<mxfile host="app.diagrams.net" modified="2024-10-31T19:59:01.786Z" agent="Mozilla/5.0 (Windows NT 10.0; Win64; x64) AppleWebKit/537.36 (KHTML, like Gecko) Chrome/130.0.0.0 Safari/537.36" etag="JH7TxE5LVyZccml66Kau" version="21.3.4" type="device" pages="2">
  <diagram name="High-level" id="Uuel61cjy7ZbpaAKGws-">
    <mxGraphModel dx="1430" dy="781" grid="1" gridSize="10" guides="1" tooltips="1" connect="1" arrows="1" fold="1" page="1" pageScale="1" pageWidth="1100" pageHeight="850" math="0" shadow="0">
      <root>
        <mxCell id="0" />
        <mxCell id="1" parent="0" />
        <mxCell id="GQyigsiqdUalnDf_dycu-34" style="rounded=0;orthogonalLoop=1;jettySize=auto;html=1;entryX=-0.012;entryY=0.443;entryDx=0;entryDy=0;entryPerimeter=0;sketch=1;curveFitting=1;jiggle=2;" edge="1" parent="1" source="GQyigsiqdUalnDf_dycu-8" target="GQyigsiqdUalnDf_dycu-5">
          <mxGeometry relative="1" as="geometry" />
        </mxCell>
        <mxCell id="GQyigsiqdUalnDf_dycu-35" style="rounded=0;orthogonalLoop=1;jettySize=auto;html=1;entryX=0.034;entryY=0.546;entryDx=0;entryDy=0;entryPerimeter=0;sketch=1;curveFitting=1;jiggle=2;" edge="1" parent="1" source="GQyigsiqdUalnDf_dycu-8" target="GQyigsiqdUalnDf_dycu-4">
          <mxGeometry relative="1" as="geometry" />
        </mxCell>
        <mxCell id="GQyigsiqdUalnDf_dycu-36" style="rounded=0;orthogonalLoop=1;jettySize=auto;html=1;entryX=0.015;entryY=0.501;entryDx=0;entryDy=0;entryPerimeter=0;sketch=1;curveFitting=1;jiggle=2;" edge="1" parent="1" source="GQyigsiqdUalnDf_dycu-8" target="GQyigsiqdUalnDf_dycu-6">
          <mxGeometry relative="1" as="geometry" />
        </mxCell>
        <mxCell id="GQyigsiqdUalnDf_dycu-8" value="Terraform" style="shape=image;verticalLabelPosition=bottom;verticalAlign=top;imageAspect=0;aspect=fixed;image=data:image/png,iVBORw0KGgoAAAANSUhEUgAAAHAAAACACAYAAADTcu1SAAAAAXNSR0IArs4c6QAADitJREFUeAHtnX1UlFUex5/7PDOAoiWnRGbo5G6FL7XV4lqnrFZAT6booOxOLyuD7FZmdbT3jlu5S55t/SM37XjWNirFGWpLVmEGNLUEcteOWcZmbyrlZh1mSDCtFAVmnrvfB7nwMIHAvD3PzNw5B+597jNz7+9+P3Nfnvs2gi3PveUPlubxAn9FpQIipXRWB+n4uGCu+28Lrd+dH5W5iGOjRSXvgGgUZPrw6bYzDTaL++7iYtoZHse6RE3We4GiAh2Nv5Iv6t37bPM8U6MmF3FsaC+A3TpQ4ZfUJ9ehNG68M989tjuce3SnQN8Au8xEabS2e+mBAot7uc3WlKw767lBwjkBKvpQQUjC/2XC976DADkf7SXhuulHAVJgaQSjIb32GAziktLNpveH9Cn+5rAoMGAJ7CPV67xe+h5KY+nC/GZTH/d5UAQVCAQgzFOqUbqg1ddxqDDPvXTxYpoYQZt5UioFAgTYFQOlI2RKVxw/4vkMIOep4uXeCCkQSBvYr2koljUSkR4sdaZ93O+b+I2QKhBcCfQzBb2hHK8g1xfkNf69cN4PF/jd5pdhUCCkADvto1TCs8d9su/HBgyUL8GwnCEMdvMouxQIPcAeaVPwzPj8l/We/QA5oyeY+0KpQDgBdtoJiBPxt81maawq+s3RjFAaz+MSBh6JCZVIaB9ne70dnxTmNT67eP6x80IVb7zHE/YS2EtgKiTIVHj0xMm2Bjx23MWnrXqpE9BFZAF2mYgqNRXPjy99We/+oCjPfVNAlvMPdSqgCUCmPaVCppfSXba8xtcLre6LWTh3B6+ALrr4AHmb0C6kwuycwZvO36kooGkJVCNAJ4dPU6kFGaRfNwD97cVqgMlYLWf2D+fXZxVAP4Lk5FTN0S1AFMcbOoTO2Y4nioooJpX5iymQk1M9JTu7ai+anjW6BagYiyUdyeitPuM77vncNs+dzzIQr+7MmVsvArgyWZZ3Q4PJig666MQMBATVxc8En7CpIM9dJ4jSg2UVYz4a6DOxdN9qfXdYS8t3j54541sKLYar86brEqg2tNNPaZYg+/ZhbPWFhXe4L/zJ/RgMQHVpbWk5doBSebk/PCW70QVQsRizHcjIotOttKHQ4n5g4UIsSo7B1/TpWzOzsqp2obrciPz2+4wcfQC7YKEBHyULdPXpJs/+wrmembHC8Oabt6einSvx+bwf4Ns64ChVVLSB54KDjs4EKtOtaB+3JFDjI+tcow+e6/16vWe1fprQ3Py/xR0d7X9CiRv0YH/UlsCfgKA0N1o36WRnV+c2Nx/+RBDklUOBp2gQOwCRGWQ+qjbpTJ9ePRHV5XZ0UKphfUBzpTEFkJVKVKu63qSTm1udglGU1Vhfux9fupuZ3YG4MQmwWwidbdKxWqmEx4J7W1vlBlmmD6DUBd0HiW2AXST1sEknJ2drTnNzdT0eC9aiBx2yFXtxAVDhiNkOTTbpoJ27BM9zm2XZuxNWXNldO4TIEzcAmV4AmQ4hywrnuncX5XuuYeGhdq3W2hEAt8Lno58hvbCtWo87gAwUqrHrw7FJB50SkpVVvaC5+eQhgFPGLsO6byRuAZ4FGdpNOtOmVV2PZ7r38DxXCngR2bkV5wC7ymOQm3TwSJCuTPP4fAKmeWjYqmVWe6hdkQjkXqxmaFEHxq+fXoL5x81YhLyzKK9pwA5HUVFtEkrcMlTHh1BVzge8iC8LER0u8z8M4rAMQSTPA6Q3fuH15BwdnQE36SjTPEeOnOx3mqcntvD6OqvQ0sqUE2WV5geJJFxFCNke3iSjJHbVJp3f57snqa1G79LVNc0zVh2uhb9XG+ioMH/ucJpvESVpDoxp0MIgHaaZ0iELvebjCBGu1oudvQAyo+wVadXD08xXCER8DNXqDyycu/pToE+AipklJaSjzGlaSSQxAx2dV1C1yvozn1vUL0AmjaMi7Sg6OncRapgsEPJvFs5dfSgwIEBmpt2VWl/mNP9aJNLtKJFfs3DuaqvAoAEyM+3OtDcuTDRNwFxwMUC2snDuaqPAkAEqZq4qJ6fLXKanDSRxAnpkr2tjOk9VUSAggEy69c4LvnE40++QDMKN6OTsY+HcjZwCQQFkZm7YnL770kzTtaIg3YnHjm9ZOHfDr0BIACpmFhcT2e5KW5cyMnEcNoo9i7/28JvPUwgZQCblmlcv+KHMmf64kGC8Au1jFQvnbngUCDlAZmZZeeoXaB8tkkhm4PkRs9L8FQ4FwgaQGbuh0rzjskzT1aIoLEHYcRbO3dAoEHaAiploH732yvQ1ojQyA23jWpRIX2jM57FEBCCT2V5x3jG0j/cbBDFTOdmQhXM3cAUiCpCZqRxH6XClTxMJwa5bcpiFc3foCmgCkJlpd5orUsaaLicieYII9EcWzt3BKxD00u7BJ9X3O9esIW24s4IfZNC3PgOFaloC1caVlpIz6mvuH5wCugHoby7Wdx3AbMcp/3B+3aMAVsN9qFuAWJuz3SgYx6GTU4Y/LBTjL6YAJg4OiyLJr6ubk69bgIqx2C7tLnOZbfihkSkwei/LQBy7J6HDE0lJ0uU1NXMqFB0078QMBkbp5rQ9WDh73YL8pkLsq1uBrbgRWbY+GNsi8x5CMa7sSEgwLt2+/RaPOk3dAlQ2ieDVXXV2+TfcZz266cd275OA+BBuhnXjiFooDf17MAz5AEpcnzWQbqvQwjzPPTjQZwUOvBupFm9teepJtI9/NBoNl2NIrrMaUd+PFT++sI2SJNpqa+dM6Q+eklfdAsRQWyJK4VLlwDvbXE+RUiLVcNZtGnMYi6zyiSRNA8iP1fei20/OiKL4jNGYMH7nztll6lqor3zpFiAzFtuj06gsr8dhPnsL8r6dwsKZi2WPNZYEU6ZIxPvRThxj4dHpkn8lJRkm1tTMfmrHjhmDeoTSPUAGAiVwskC9u1Gtlt2Vf+wiFq64t5YTn91pWjsiOTmDEHENHjuiapMOStlH+PJl4bHAum3bzK/UeRvIHzUAWUYAcn6bt+0gSuSyh6x0GAtX3BdeG3Xc4TQtMRJyNarVHep7+vSTZti1aOrU2ZNqay3vBGJj1AFUMolqdTh2By1vafMcsFk8Vv+Mr3eaPkP7OIMQyYKG8wv/+9pfkw7UFKtGjRoxrq7O8qKynihQm6ISIMssQF5MBXkjzknbVWg5msnCmetwplVdmmi+QhTEx1Gt6mSTDnmTEMOVtbWzH66szD7BbA3UjWqA3Zmm9CZKvB+gfSyxzWtK7Q6Hp7ictNtdpmeTkqVxRBTWob0J+NuujneofrRxB5F2Ltq5WbW1Mw8O9fP9vT82ACJ3aBtF/N2Nn09vwGPHI/7niL78zzHfOirT78Se8mtRGpUjiyPyArTvAe/hjAwzSt2craFONGYA9ghDz8Njx8rWJvenCyye3J7wsz4sstqH8dUbiSDdAWG/8b8fqmvELeOvBOOWGeigrCopmdwRqrjV8cQgwO7sZfgEuRrV6jYcmD6xO7TL43ClvT5sDJmAYaqnsdDqtP/9YK5R6t4xGKRfAdw9b745S+lphu0VywA7RUO1OoP6hP0Fc92r7/3diRS1kiUl5laslisWE4iySecN9b1A/AB3BKMot6KqzHrrrdz/BhLHUD8T8wDPCoJTAXE64MlTpxrwgyKLNuLUQLVQ9nLz11iEfLsoERxxTD5U3xuMH+BOYX5u2dixIyZgFKV8MJ8J1XviBOBZuZRTAvHo8YKr3VNfaPFk+4torzD/57JJpmuwWu5uQDnqf/+n18o0D3kVpXc8Bpz/UlqaHfFlIXEFsBsApVfKglyD0rjJZm36eXc4PJ2bdJzml0eNSMxAj3Vl/5t0yPuSJNyA6rIA8BrVcUTSr9v5wEiIgNKYT9p8uQD53MhEw1+VqSqWrrJJB/7H8LOxJYLg7VXlop27/+23Z21B6euer2Sfi7SLkSZ9vpTfhFB+ViBi1hGCmW6y1FGZ5tADmMHmOz6r0L7UUZZpUHkDBsn3FOU3XdfXW/QYxgH6UcFjx7Ver/xugcXtKLS2pPvd1t0lB9gnks5zRAtoW/tBDAQ8qedV4xxgnwDPBqKTk4wS+RfvCc8t53ibprc4QE3lDz5xDjB4DTWNgQPUVP7gE+cAg9dQ0xg4QE3lDz5xDjB4DTWNgQPUVP7gE+cAg9dQ0xg4QE3lDz5xDjB4DTWNgQPUVP7gE+cAg9dQ0xg4QE3lDz5xDjB4DTWNgQPUVP7gE+cAg9dQ0xg4QE3lDz5xDjB4DTWNgQPUVP7gE9ctQGNisoMfzzwwYN0CfKX8/O/48cxRDJCZzo9nZkr07eq2BPqbqz6eGUeIdO9h8H9fvF1HDUAFjHI8s6PSvGK4ZByH/Qt27GXQfHOJ1l+YqALIxCrZPNqDA+8WYFOlsodhDwuPRzcqATJQ9krTXoCcApA2bLPSbI8es0cLN6oBKoIpW8HsleYy4XxpPPzPAGTEd8lqAY6lGfUAWUYcjrRTKI1PSaI4ESA3sfBYd2MGIANVWmn6CiB/axDFbJTGj1h4rLoxB5CBAsi6SyeZJ+HAgkWoaFtYeKy5MQtQAdV1YMGLBnFYBn6DYjWq1rCclqTllyKmATJhSytTTjhc5ofwY81XAeQ2Fh4LblwAZKBKN5kPAORMSRBn42yXQyw8mt24AshAbXCZtgwbY/6FKJBH8BzyPQuPRjcuASqgSkpIh91lfs6YQHDONnkJf5qcIxrslyZuATLh1pebmvHYsZBQw2SUxl0sPFrcuAfIQNldqfU4Z3sqBgJuA8gjLFzvLgfoR2hDpWnj6AQTRnPEP6PH2up3W3eXHGAfSFaVk9P4+YLliYZEZXz1NZHgnEP+il4F/M8X1VNO/g8k+slcMVd8QwAAAABJRU5ErkJggg==" vertex="1" parent="1">
          <mxGeometry x="550" y="220" width="70" height="80" as="geometry" />
        </mxCell>
        <mxCell id="GQyigsiqdUalnDf_dycu-26" value="" style="group" vertex="1" connectable="0" parent="1">
          <mxGeometry x="70" y="184" width="126.00000000000011" height="151" as="geometry" />
        </mxCell>
        <mxCell id="GQyigsiqdUalnDf_dycu-25" value="Developer" style="text;html=1;strokeColor=none;fillColor=none;align=center;verticalAlign=middle;whiteSpace=wrap;rounded=0;" vertex="1" parent="GQyigsiqdUalnDf_dycu-26">
          <mxGeometry x="32" width="60" height="30" as="geometry" />
        </mxCell>
        <mxCell id="GQyigsiqdUalnDf_dycu-12" value="" style="group" vertex="1" connectable="0" parent="GQyigsiqdUalnDf_dycu-26">
          <mxGeometry x="21.620000000000005" y="26" width="80.76999999999998" height="88" as="geometry" />
        </mxCell>
        <mxCell id="GQyigsiqdUalnDf_dycu-11" value="" style="image;sketch=0;aspect=fixed;html=1;points=[];align=center;fontSize=12;image=img/lib/mscae/Person.svg;imageBackground=default;" vertex="1" parent="GQyigsiqdUalnDf_dycu-12">
          <mxGeometry x="21.89" width="37" height="50" as="geometry" />
        </mxCell>
        <mxCell id="GQyigsiqdUalnDf_dycu-7" value="" style="shape=image;verticalLabelPosition=bottom;labelBackgroundColor=#ffffff;verticalAlign=top;aspect=fixed;imageAspect=0;image=data:image/svg+xml,PHN2ZyB4bWxuczpjYz0iaHR0cDovL2NyZWF0aXZlY29tbW9ucy5vcmcvbnMjIiB4bWxuczpkYz0iaHR0cDovL3B1cmwub3JnL2RjL2VsZW1lbnRzLzEuMS8iIHhtbG5zOmlua3NjYXBlPSJodHRwOi8vd3d3Lmlua3NjYXBlLm9yZy9uYW1lc3BhY2VzL2lua3NjYXBlIiB4bWxuczpyZGY9Imh0dHA6Ly93d3cudzMub3JnLzE5OTkvMDIvMjItcmRmLXN5bnRheC1ucyMiIHhtbG5zOnNvZGlwb2RpPSJodHRwOi8vc29kaXBvZGkuc291cmNlZm9yZ2UubmV0L0RURC9zb2RpcG9kaS0wLmR0ZCIgeG1sbnM6c3ZnPSJodHRwOi8vd3d3LnczLm9yZy8yMDAwL3N2ZyIgeG1sbnM9Imh0dHA6Ly93d3cudzMub3JnLzIwMDAvc3ZnIiB4bWxuczp4bGluaz0iaHR0cDovL3d3dy53My5vcmcvMTk5OS94bGluayIgdmVyc2lvbj0iMS4xIiBpZD0ic3ZnMTMzODEiIGlua3NjYXBlOnZlcnNpb249IjAuOTIuMyAoMjQwNTU0NiwgMjAxOC0wMy0xMSkiIHNvZGlwb2RpOmRvY25hbWU9ImxhcHRvcF9saWdodF9ibHVlLnN2ZyIgeD0iMHB4IiB5PSIwcHgiIHZpZXdCb3g9IjAgMCA0MS42MyAyNS41IiBzdHlsZT0iZW5hYmxlLWJhY2tncm91bmQ6bmV3IDAgMCA0MS42MyAyNS41OyIgeG1sOnNwYWNlPSJwcmVzZXJ2ZSI+JiN4YTs8c29kaXBvZGk6bmFtZWR2aWV3IGJvcmRlcmNvbG9yPSIjNjY2NjY2IiBib3JkZXJvcGFjaXR5PSIxIiBmaXQtbWFyZ2luLWJvdHRvbT0iMCIgZml0LW1hcmdpbi1sZWZ0PSIwIiBmaXQtbWFyZ2luLXJpZ2h0PSIwIiBmaXQtbWFyZ2luLXRvcD0iMCIgZ3JpZHRvbGVyYW5jZT0iMTAiIGd1aWRldG9sZXJhbmNlPSIxMCIgaWQ9Im5hbWVkdmlldzEzMzgzIiBpbmtzY2FwZTpjdXJyZW50LWxheWVyPSJzdmcxMzM4MSIgaW5rc2NhcGU6Y3g9IjI3Ljc1NDk3OCIgaW5rc2NhcGU6Y3k9IjE2Ljk5OTk4NyIgaW5rc2NhcGU6cGFnZW9wYWNpdHk9IjAiIGlua3NjYXBlOnBhZ2VzaGFkb3c9IjIiIGlua3NjYXBlOndpbmRvdy1oZWlnaHQ9IjEwMTciIGlua3NjYXBlOndpbmRvdy1tYXhpbWl6ZWQ9IjEiIGlua3NjYXBlOndpbmRvdy13aWR0aD0iMTkyMCIgaW5rc2NhcGU6d2luZG93LXg9Ii04IiBpbmtzY2FwZTp3aW5kb3cteT0iLTgiIGlua3NjYXBlOnpvb209IjI0LjA4MzMzMyIgb2JqZWN0dG9sZXJhbmNlPSIxMCIgcGFnZWNvbG9yPSIjZmZmZmZmIiBzaG93Z3JpZD0iZmFsc2UiPiYjeGE7CTwvc29kaXBvZGk6bmFtZWR2aWV3PiYjeGE7PGcgaWQ9ImcxMzM3OSIgdHJhbnNmb3JtPSJ0cmFuc2xhdGUoLTAuNzUsLTAuNzUpIj4mI3hhOwk8dGl0bGUgaWQ9InRpdGxlMTMzNTQiPlBhZ2UtMTwvdGl0bGU+JiN4YTsJPGcgaWQ9Imdyb3VwMzY3OC0xIiB0cmFuc2Zvcm09InRyYW5zbGF0ZSgwLjc1LC0wLjc1KSI+JiN4YTsJCTx0aXRsZSBpZD0idGl0bGUxMzM1NiI+TGFwdG9wIChMaWdodCBCbHVlKTwvdGl0bGU+JiN4YTsJCTxnIGlkPSJzaGFwZTM2NzktMiIgdHJhbnNmb3JtPSJ0cmFuc2xhdGUoMi42MDI1LC0xLjUpIj4mI3hhOwkJCTx0aXRsZSBpZD0idGl0bGUxMzM1OCI+cGF0aDg4Nzc8L3RpdGxlPiYjeGE7CQkJPHBhdGggaWQ9InBhdGgxMzM2MCIgaW5rc2NhcGU6Y29ubmVjdG9yLWN1cnZhdHVyZT0iMCIgc3R5bGU9ImZpbGw6IzU1NkE4QTsiIGQ9Ik0zNi4wMywyN1YzLjc1YzAtMC40MS0wLjM0LTAuNzUtMC43NS0wLjc1SDAuNzUgICAgIEMwLjM0LDMsMCwzLjM0LDAsMy43NVYyN0gzNi4wM3oiLz4mI3hhOwkJPC9nPiYjeGE7CQk8ZyBpZD0ic2hhcGUzNjgwLTQiIHRyYW5zZm9ybT0idHJhbnNsYXRlKDQuMTMyNSwtMy43NSkiPiYjeGE7CQkJPHRpdGxlIGlkPSJ0aXRsZTEzMzYzIj5yZWN0ODg3OTwvdGl0bGU+JiN4YTsJCQk8cmVjdCBpZD0icmVjdDEzMzY1IiB4PSIwIiB5PSI2Ljc1IiBzdHlsZT0iZmlsbDojMDBCQ0YyOyIgd2lkdGg9IjMzIiBoZWlnaHQ9IjIwLjI1Ii8+JiN4YTsJCTwvZz4mI3hhOwkJPGcgaWQ9InNoYXBlMzY4MS02Ij4mI3hhOwkJCTx0aXRsZSBpZD0idGl0bGUxMzM2OCI+cGF0aDg4ODE8L3RpdGxlPiYjeGE7CQkJPHBhdGggaWQ9InBhdGgxMzM3MCIgaW5rc2NhcGU6Y29ubmVjdG9yLWN1cnZhdHVyZT0iMCIgc3R5bGU9ImZpbGw6IzU1NkE4QTsiIGQ9Ik0zOS4zOCwyN0gxLjg4QzAuMzgsMjcsMCwyNC43OSwwLDI0Ljc5ICAgICBsNDEuNjMtMC4wNEM0MS42MywyNC43NSw0MC44OCwyNywzOS4zOCwyN3oiLz4mI3hhOwkJPC9nPiYjeGE7CQk8ZyBpZD0ic2hhcGUzNjgyLTgiIHRyYW5zZm9ybT0idHJhbnNsYXRlKDIyLjUsLTEwLjI5KSI+JiN4YTsJCQk8dGl0bGUgaWQ9InRpdGxlMTMzNzMiPnBvbHlnb244ODgzPC90aXRsZT4mI3hhOwkJCTxwYXRoIGlkPSJwYXRoMTMzNzUiIGlua3NjYXBlOmNvbm5lY3Rvci1jdXJ2YXR1cmU9IjAiIHN0eWxlPSJmaWxsOiNGRkZGRkY7ZmlsbC1vcGFjaXR5OjAuMTU7IiBkPSJNMCwxMy4yOUwxNC42MywyN1YxMy4yOUgweiIvPiYjeGE7CQk8L2c+JiN4YTsJPC9nPiYjeGE7PC9nPiYjeGE7PC9zdmc+;imageBackground=default;" vertex="1" parent="GQyigsiqdUalnDf_dycu-12">
          <mxGeometry y="38" width="80.77" height="50" as="geometry" />
        </mxCell>
        <mxCell id="GQyigsiqdUalnDf_dycu-17" value="Bash" style="shape=image;html=1;verticalAlign=top;verticalLabelPosition=bottom;labelBackgroundColor=#ffffff;imageAspect=0;aspect=fixed;image=https://cdn1.iconfinder.com/data/icons/heroicons-solid/20/terminal-128.png" vertex="1" parent="GQyigsiqdUalnDf_dycu-26">
          <mxGeometry y="117" width="34" height="34" as="geometry" />
        </mxCell>
        <mxCell id="GQyigsiqdUalnDf_dycu-18" value="VSCode" style="shape=image;verticalLabelPosition=bottom;labelBackgroundColor=#ffffff;verticalAlign=top;aspect=fixed;imageAspect=0;image=data:image/svg+xml,PHN2ZyB4bWxuczpkYz0iaHR0cDovL3B1cmwub3JnL2RjL2VsZW1lbnRzLzEuMS8iIHhtbG5zOmNjPSJodHRwOi8vY3JlYXRpdmVjb21tb25zLm9yZy9ucyMiIHhtbG5zOnJkZj0iaHR0cDovL3d3dy53My5vcmcvMTk5OS8wMi8yMi1yZGYtc3ludGF4LW5zIyIgeG1sbnM6c3ZnPSJodHRwOi8vd3d3LnczLm9yZy8yMDAwL3N2ZyIgeG1sbnM9Imh0dHA6Ly93d3cudzMub3JnLzIwMDAvc3ZnIiB4bWxuczp4bGluaz0iaHR0cDovL3d3dy53My5vcmcvMTk5OS94bGluayIgeG1sbnM6c29kaXBvZGk9Imh0dHA6Ly9zb2RpcG9kaS5zb3VyY2Vmb3JnZS5uZXQvRFREL3NvZGlwb2RpLTAuZHRkIiB4bWxuczppbmtzY2FwZT0iaHR0cDovL3d3dy5pbmtzY2FwZS5vcmcvbmFtZXNwYWNlcy9pbmtzY2FwZSIgdmVyc2lvbj0iMS4xIiBpZD0iTGF5ZXJfMSIgeD0iMHB4IiB5PSIwcHgiIHZpZXdCb3g9IjAgMCA1MC44NDk5OTggNTEuMDkiIHhtbDpzcGFjZT0icHJlc2VydmUiIHNvZGlwb2RpOmRvY25hbWU9InZpc3VhbF9zdHVkaW9fY29kZS5zdmciIHdpZHRoPSI1MC44NDk5OTgiIGhlaWdodD0iNTEuMDkiIGlua3NjYXBlOnZlcnNpb249IjAuOTIuMyAoMjQwNTU0NiwgMjAxOC0wMy0xMSkiPjxtZXRhZGF0YSBpZD0ibWV0YWRhdGE0MzE4OSI+PHJkZjpSREY+PGNjOldvcmsgcmRmOmFib3V0PSIiPjxkYzpmb3JtYXQ+aW1hZ2Uvc3ZnK3htbDwvZGM6Zm9ybWF0PjxkYzp0eXBlIHJkZjpyZXNvdXJjZT0iaHR0cDovL3B1cmwub3JnL2RjL2RjbWl0eXBlL1N0aWxsSW1hZ2UiLz48ZGM6dGl0bGUvPjwvY2M6V29yaz48L3JkZjpSREY+PC9tZXRhZGF0YT48ZGVmcyBpZD0iZGVmczQzMTg3Ii8+PHNvZGlwb2RpOm5hbWVkdmlldyBwYWdlY29sb3I9IiNmZmZmZmYiIGJvcmRlcmNvbG9yPSIjNjY2NjY2IiBib3JkZXJvcGFjaXR5PSIxIiBvYmplY3R0b2xlcmFuY2U9IjEwIiBncmlkdG9sZXJhbmNlPSIxMCIgZ3VpZGV0b2xlcmFuY2U9IjEwIiBpbmtzY2FwZTpwYWdlb3BhY2l0eT0iMCIgaW5rc2NhcGU6cGFnZXNoYWRvdz0iMiIgaW5rc2NhcGU6d2luZG93LXdpZHRoPSIxOTIwIiBpbmtzY2FwZTp3aW5kb3ctaGVpZ2h0PSIxMDE3IiBpZD0ibmFtZWR2aWV3NDMxODUiIHNob3dncmlkPSJmYWxzZSIgZml0LW1hcmdpbi10b3A9IjAiIGZpdC1tYXJnaW4tbGVmdD0iMCIgZml0LW1hcmdpbi1yaWdodD0iMCIgZml0LW1hcmdpbi1ib3R0b209IjAiIGlua3NjYXBlOnpvb209IjEuMDMwMzAzIiBpbmtzY2FwZTpjeD0iLTYuNTU1IiBpbmtzY2FwZTpjeT0iLTI5Ni4wNyIgaW5rc2NhcGU6d2luZG93LXg9Ii04IiBpbmtzY2FwZTp3aW5kb3cteT0iLTgiIGlua3NjYXBlOndpbmRvdy1tYXhpbWl6ZWQ9IjEiIGlua3NjYXBlOmN1cnJlbnQtbGF5ZXI9IkxheWVyXzEiLz4mI3hhOyYjeGE7PGcgaWQ9Imc0MzE4MiIgdHJhbnNmb3JtPSJ0cmFuc2xhdGUoLTMwMy45MywtNzMuNTkpIj4mI3hhOwk8ZGVmcyBpZD0iZGVmczQzMTY3Ij4mI3hhOwkJPHJlY3QgaWQ9IlNWR0lEXzNfIiB4PSIzMDMuOTI5OTkiIHk9IjczLjU4OTk5NiIgd2lkdGg9IjUxLjI1IiBoZWlnaHQ9IjUxLjI1Ii8+JiN4YTsJPC9kZWZzPiYjeGE7CTxjbGlwUGF0aCBpZD0iU1ZHSURfNF8iPiYjeGE7CQk8dXNlIHhsaW5rOmhyZWY9IiNTVkdJRF8zXyIgc3R5bGU9Im92ZXJmbG93OnZpc2libGUiIGlkPSJ1c2U0MzE2OSIgeD0iMCIgeT0iMCIgd2lkdGg9IjEwMCUiIGhlaWdodD0iMTAwJSIvPiYjeGE7CTwvY2xpcFBhdGg+JiN4YTsJPGcgY2xpcC1wYXRoPSJ1cmwoI1NWR0lEXzRfKSIgaWQ9Imc0MzE4MCI+JiN4YTsJCTxkZWZzIGlkPSJkZWZzNDMxNzMiPiYjeGE7CQkJPHJlY3QgaWQ9IlNWR0lEXzVfIiB4PSIzMDMuOTI5OTkiIHk9IjczLjU4OTk5NiIgd2lkdGg9IjUxLjI1IiBoZWlnaHQ9IjUxLjI1Ii8+JiN4YTsJCTwvZGVmcz4mI3hhOwkJPGNsaXBQYXRoIGlkPSJTVkdJRF82XyI+JiN4YTsJCQk8dXNlIHhsaW5rOmhyZWY9IiNTVkdJRF81XyIgc3R5bGU9Im92ZXJmbG93OnZpc2libGUiIGlkPSJ1c2U0MzE3NSIgeD0iMCIgeT0iMCIgd2lkdGg9IjEwMCUiIGhlaWdodD0iMTAwJSIvPiYjeGE7CQk8L2NsaXBQYXRoPiYjeGE7CQk8cGF0aCBzdHlsZT0iZmlsbDojMDE3OWNiIiBkPSJtIDMwOS44NywxMDUuMDIgNi4yMywtNS42NiAtNi4yMywtNi4yMyBWIDEwNSBaIG0gMzEuNTEsMy4zIFYgODkuOTUgbCAtMTEuODksOS4xOSAxMS44Nyw5LjE3IGggMC4wMiB6IG0gLTE5LjM1LC0zLjQ0IC0xMi42LDkuNzggLTUuNSwtMi43IFYgODYuMzUgbCA1LjQ4LC0yLjc2IDEyLjUyLDkuODQgMTkuODIsLTE5Ljg0IDEzLjAzLDUuMjMgdiA0MC41OSBsIC0xMi45OCw1LjI3IHoiIGNsaXAtcGF0aD0idXJsKCNTVkdJRF82XykiIGlkPSJwYXRoNDMxNzgiIGlua3NjYXBlOmNvbm5lY3Rvci1jdXJ2YXR1cmU9IjAiLz4mI3hhOwk8L2c+JiN4YTs8L2c+JiN4YTs8L3N2Zz4=;" vertex="1" parent="GQyigsiqdUalnDf_dycu-26">
          <mxGeometry x="47" y="121" width="30" height="30" as="geometry" />
        </mxCell>
        <mxCell id="GQyigsiqdUalnDf_dycu-19" value="Git" style="shape=image;verticalLabelPosition=bottom;labelBackgroundColor=#ffffff;verticalAlign=top;aspect=fixed;imageAspect=0;image=data:image/svg+xml,PHN2ZyB4bWxuczpjYz0iaHR0cDovL2NyZWF0aXZlY29tbW9ucy5vcmcvbnMjIiB4bWxuczpkYz0iaHR0cDovL3B1cmwub3JnL2RjL2VsZW1lbnRzLzEuMS8iIHhtbG5zOmlua3NjYXBlPSJodHRwOi8vd3d3Lmlua3NjYXBlLm9yZy9uYW1lc3BhY2VzL2lua3NjYXBlIiB4bWxuczpyZGY9Imh0dHA6Ly93d3cudzMub3JnLzE5OTkvMDIvMjItcmRmLXN5bnRheC1ucyMiIHhtbG5zOnNvZGlwb2RpPSJodHRwOi8vc29kaXBvZGkuc291cmNlZm9yZ2UubmV0L0RURC9zb2RpcG9kaS0wLmR0ZCIgeG1sbnM6c3ZnPSJodHRwOi8vd3d3LnczLm9yZy8yMDAwL3N2ZyIgeG1sbnM9Imh0dHA6Ly93d3cudzMub3JnLzIwMDAvc3ZnIiB4bWxuczp4bGluaz0iaHR0cDovL3d3dy53My5vcmcvMTk5OS94bGluayIgdmVyc2lvbj0iMS4xIiBpZD0ic3ZnODA0NzkiIGlua3NjYXBlOnZlcnNpb249IjAuOTIuMyAoMjQwNTU0NiwgMjAxOC0wMy0xMSkiIHNvZGlwb2RpOmRvY25hbWU9ImdpdC5zdmciIHg9IjBweCIgeT0iMHB4IiB2aWV3Qm94PSIwIDAgMzAuMzcgMzAuMzciIHN0eWxlPSJlbmFibGUtYmFja2dyb3VuZDpuZXcgMCAwIDMwLjM3IDMwLjM3OyIgeG1sOnNwYWNlPSJwcmVzZXJ2ZSI+JiN4YTs8c29kaXBvZGk6bmFtZWR2aWV3IGJvcmRlcmNvbG9yPSIjNjY2NjY2IiBib3JkZXJvcGFjaXR5PSIxIiBmaXQtbWFyZ2luLWJvdHRvbT0iMCIgZml0LW1hcmdpbi1sZWZ0PSIwIiBmaXQtbWFyZ2luLXJpZ2h0PSIwIiBmaXQtbWFyZ2luLXRvcD0iMCIgZ3JpZHRvbGVyYW5jZT0iMTAiIGd1aWRldG9sZXJhbmNlPSIxMCIgaWQ9Im5hbWVkdmlldzgwNDgxIiBpbmtzY2FwZTpjdXJyZW50LWxheWVyPSJzdmc4MDQ3OSIgaW5rc2NhcGU6Y3g9IjI0LjU0MDUyIiBpbmtzY2FwZTpjeT0iLTcuOTc4NjcxNyIgaW5rc2NhcGU6cGFnZW9wYWNpdHk9IjAiIGlua3NjYXBlOnBhZ2VzaGFkb3c9IjIiIGlua3NjYXBlOndpbmRvdy1oZWlnaHQ9IjEwMTciIGlua3NjYXBlOndpbmRvdy1tYXhpbWl6ZWQ9IjEiIGlua3NjYXBlOndpbmRvdy13aWR0aD0iMTkyMCIgaW5rc2NhcGU6d2luZG93LXg9Ii04IiBpbmtzY2FwZTp3aW5kb3cteT0iLTgiIGlua3NjYXBlOnpvb209IjYuOTUyMzU1MSIgb2JqZWN0dG9sZXJhbmNlPSIxMCIgcGFnZWNvbG9yPSIjZmZmZmZmIiBzaG93Z3JpZD0iZmFsc2UiPiYjeGE7CTwvc29kaXBvZGk6bmFtZWR2aWV3PiYjeGE7PGcgaWQ9Imc4MDQ3NyIgdHJhbnNmb3JtPSJ0cmFuc2xhdGUoLTIwLjgxNTYsLTAuNzQyMikiPiYjeGE7CTx0aXRsZSBpZD0idGl0bGU4MDQ2NyI+UGFnZS0xPC90aXRsZT4mI3hhOwk8ZyBpZD0iZ3JvdXA0MjQ4LTEiIHRyYW5zZm9ybT0idHJhbnNsYXRlKDIwLjYzMDYsLTM0Ljg0MjgpIj4mI3hhOwkJPHRpdGxlIGlkPSJ0aXRsZTgwNDY5Ij5HaXQ8L3RpdGxlPiYjeGE7CQk8ZyBpZD0ic2hhcGU0MjQ5LTIiPiYjeGE7CQkJPHRpdGxlIGlkPSJ0aXRsZTgwNDcxIj5TaGVldC40MjQ5PC90aXRsZT4mI3hhOwkJCTxwYXRoIGlkPSJwYXRoODA0NzMiIGlua3NjYXBlOmNvbm5lY3Rvci1jdXJ2YXR1cmU9IjAiIHN0eWxlPSJmaWxsOiNGNTREMjc7IiBkPSJNMzAsNDkuNDRsLTEzLjMtMTMuMyAgICAgYy0wLjc0LTAuNzQtMS45Mi0wLjc0LTIuNjYsMGwtMi44NSwyLjg1bDMuNDMsMy40M2MwLjI2LTAuMSwwLjUzLTAuMTYsMC44NC0wLjE2YzEuMjcsMCwyLjMsMS4wMywyLjMsMi4zMiAgICAgYzAsMC4yOS0wLjA1LDAuNTgtMC4xNSwwLjg0bDMuMzYsMy4zNmMwLjI1LTAuMTEsMC41NS0wLjE3LDAuODMtMC4xN2MxLjI4LDAsMi4zMSwxLjA1LDIuMzEsMi4zMmMwLDEuMjktMS4wMywyLjMxLTIuMzEsMi4zMSAgICAgYy0xLjI3LDAtMi4zMS0xLjAyLTIuMzEtMi4zMWMwLTAuMjksMC4wNi0wLjU4LDAuMTYtMC44NGwtMy4xNy0zLjE3djguMjZjMC43NywwLjM5LDEuMjcsMS4xNywxLjI3LDIuMDYgICAgIGMwLDEuMjktMS4wMiwyLjMyLTIuMjksMi4zMmMtMS4yOSwwLTIuMzItMS4wMy0yLjMyLTIuMzJjMC0wLjk4LDAuNjEtMS44MiwxLjQ5LTIuMTV2LTguMzZjLTAuODgtMC4zMy0xLjQ5LTEuMTctMS40OS0yLjE1ICAgICBjMC0wLjMsMC4wNi0wLjU4LDAuMTYtMC44NWwtMy40My0zLjQybC05LjEzLDkuMTNDMCw1MC4xOCwwLDUxLjM2LDAuNzQsNTIuMDlsMTMuMywxMy4zMWMwLjczLDAuNzQsMS45MiwwLjc0LDIuNjYsMEwzMCw1Mi4wOSAgICAgQzMwLjc0LDUxLjM2LDMwLjc0LDUwLjE4LDMwLDQ5LjQ0eiIvPiYjeGE7CQk8L2c+JiN4YTsJPC9nPiYjeGE7PC9nPiYjeGE7PC9zdmc+;" vertex="1" parent="GQyigsiqdUalnDf_dycu-26">
          <mxGeometry x="96.00000000000011" y="120" width="30" height="30" as="geometry" />
        </mxCell>
        <mxCell id="GQyigsiqdUalnDf_dycu-29" value="" style="group" vertex="1" connectable="0" parent="1">
          <mxGeometry x="324" y="220" width="76" height="115" as="geometry" />
        </mxCell>
        <mxCell id="GQyigsiqdUalnDf_dycu-28" value="main.tf" style="text;html=1;strokeColor=none;fillColor=none;align=center;verticalAlign=middle;whiteSpace=wrap;rounded=0;container=0;" vertex="1" parent="GQyigsiqdUalnDf_dycu-29">
          <mxGeometry x="8" y="85" width="60" height="30" as="geometry" />
        </mxCell>
        <mxCell id="GQyigsiqdUalnDf_dycu-14" value="" style="image;aspect=fixed;html=1;points=[];align=center;fontSize=12;image=img/lib/azure2/general/File.svg;container=0;" vertex="1" parent="GQyigsiqdUalnDf_dycu-29">
          <mxGeometry width="56.00000000000001" height="69" as="geometry" />
        </mxCell>
        <mxCell id="GQyigsiqdUalnDf_dycu-21" value="" style="image;aspect=fixed;html=1;points=[];align=center;fontSize=12;image=img/lib/azure2/general/File.svg;container=0;" vertex="1" parent="GQyigsiqdUalnDf_dycu-29">
          <mxGeometry x="10" y="10" width="56.00000000000001" height="69" as="geometry" />
        </mxCell>
        <mxCell id="GQyigsiqdUalnDf_dycu-22" value="" style="image;aspect=fixed;html=1;points=[];align=center;fontSize=12;image=img/lib/azure2/general/File.svg;container=0;" vertex="1" parent="GQyigsiqdUalnDf_dycu-29">
          <mxGeometry x="20" y="20" width="56.00000000000001" height="69" as="geometry" />
        </mxCell>
        <mxCell id="GQyigsiqdUalnDf_dycu-30" value="" style="group" vertex="1" connectable="0" parent="1">
          <mxGeometry x="790" y="140" width="212.68" height="312.68" as="geometry" />
        </mxCell>
        <mxCell id="GQyigsiqdUalnDf_dycu-38" value="" style="group" vertex="1" connectable="0" parent="GQyigsiqdUalnDf_dycu-30">
          <mxGeometry x="-40.000000000000014" y="-50" width="142.68000000000004" height="362.68" as="geometry" />
        </mxCell>
        <mxCell id="GQyigsiqdUalnDf_dycu-4" value="Storage Account (adls2)" style="image;aspect=fixed;html=1;points=[];align=center;fontSize=12;image=img/lib/azure2/storage/Data_Lake_Storage_Gen1.svg;" vertex="1" parent="GQyigsiqdUalnDf_dycu-38">
          <mxGeometry x="40.64999999999999" y="160" width="64" height="52" as="geometry" />
        </mxCell>
        <mxCell id="GQyigsiqdUalnDf_dycu-5" value="Service Principal" style="image;aspect=fixed;html=1;points=[];align=center;fontSize=12;image=img/lib/azure2/identity/Users.svg;" vertex="1" parent="GQyigsiqdUalnDf_dycu-38">
          <mxGeometry x="40.64999999999999" y="50" width="64" height="70" as="geometry" />
        </mxCell>
        <mxCell id="GQyigsiqdUalnDf_dycu-6" value="Azure Databricks" style="image;aspect=fixed;html=1;points=[];align=center;fontSize=12;image=img/lib/azure2/analytics/Azure_Databricks.svg;" vertex="1" parent="GQyigsiqdUalnDf_dycu-38">
          <mxGeometry x="40.000000000000014" y="250" width="64.65" height="70" as="geometry" />
        </mxCell>
        <mxCell id="GQyigsiqdUalnDf_dycu-37" value="" style="rounded=1;whiteSpace=wrap;html=1;strokeWidth=1;fillWeight=4;hachureGap=8;hachureAngle=45;fillColor=none;sketch=1;rotation=90;" vertex="1" parent="GQyigsiqdUalnDf_dycu-38">
          <mxGeometry x="-109.99999999999999" y="110" width="362.68" height="142.68" as="geometry" />
        </mxCell>
        <mxCell id="GQyigsiqdUalnDf_dycu-2" value="Azure" style="shape=image;verticalLabelPosition=bottom;labelBackgroundColor=#ffffff;verticalAlign=top;aspect=fixed;imageAspect=0;image=data:image/svg+xml,PHN2ZyB4bWxuczpkYz0iaHR0cDovL3B1cmwub3JnL2RjL2VsZW1lbnRzLzEuMS8iIHhtbG5zOmNjPSJodHRwOi8vY3JlYXRpdmVjb21tb25zLm9yZy9ucyMiIHhtbG5zOnJkZj0iaHR0cDovL3d3dy53My5vcmcvMTk5OS8wMi8yMi1yZGYtc3ludGF4LW5zIyIgeG1sbnM6c3ZnPSJodHRwOi8vd3d3LnczLm9yZy8yMDAwL3N2ZyIgeG1sbnM9Imh0dHA6Ly93d3cudzMub3JnLzIwMDAvc3ZnIiB4bWxuczpzb2RpcG9kaT0iaHR0cDovL3NvZGlwb2RpLnNvdXJjZWZvcmdlLm5ldC9EVEQvc29kaXBvZGktMC5kdGQiIHhtbG5zOmlua3NjYXBlPSJodHRwOi8vd3d3Lmlua3NjYXBlLm9yZy9uYW1lc3BhY2VzL2lua3NjYXBlIiB2ZXJzaW9uPSIxLjEiIGlkPSJzdmc1MDMyOSIgaW5rc2NhcGU6dmVyc2lvbj0iMC45Mi4zICgyNDA1NTQ2LCAyMDE4LTAzLTExKSIgc29kaXBvZGk6ZG9jbmFtZT0iYXp1cmUuc3ZnIiB4PSIwcHgiIHk9IjBweCIgdmlld0JveD0iMCAwIDYyLjc2IDQ4LjQ4IiBzdHlsZT0iZW5hYmxlLWJhY2tncm91bmQ6bmV3IDAgMCA2Mi43NiA0OC40ODsiIHhtbDpzcGFjZT0icHJlc2VydmUiPjxtZXRhZGF0YSBpZD0ibWV0YWRhdGExNjgwNyI+PHJkZjpSREY+PGNjOldvcmsgcmRmOmFib3V0PSIiPjxkYzpmb3JtYXQ+aW1hZ2Uvc3ZnK3htbDwvZGM6Zm9ybWF0PjxkYzp0eXBlIHJkZjpyZXNvdXJjZT0iaHR0cDovL3B1cmwub3JnL2RjL2RjbWl0eXBlL1N0aWxsSW1hZ2UiLz48ZGM6dGl0bGUvPjwvY2M6V29yaz48L3JkZjpSREY+PC9tZXRhZGF0YT48ZGVmcyBpZD0iZGVmczE2ODA1Ii8+JiN4YTs8c29kaXBvZGk6bmFtZWR2aWV3IGJvcmRlcmNvbG9yPSIjNjY2NjY2IiBib3JkZXJvcGFjaXR5PSIxIiBmaXQtbWFyZ2luLWJvdHRvbT0iMCIgZml0LW1hcmdpbi1sZWZ0PSIwIiBmaXQtbWFyZ2luLXJpZ2h0PSIwIiBmaXQtbWFyZ2luLXRvcD0iMCIgZ3JpZHRvbGVyYW5jZT0iMTAiIGd1aWRldG9sZXJhbmNlPSIxMCIgaWQ9Im5hbWVkdmlldzUwMzMxIiBpbmtzY2FwZTpjdXJyZW50LWxheWVyPSJzdmc1MDMyOSIgaW5rc2NhcGU6Y3g9IjQ5LjM2MTQ4NiIgaW5rc2NhcGU6Y3k9IjEyLjA3MjQ5NyIgaW5rc2NhcGU6cGFnZW9wYWNpdHk9IjAiIGlua3NjYXBlOnBhZ2VzaGFkb3c9IjIiIGlua3NjYXBlOndpbmRvdy1oZWlnaHQ9IjEwMTciIGlua3NjYXBlOndpbmRvdy1tYXhpbWl6ZWQ9IjEiIGlua3NjYXBlOndpbmRvdy13aWR0aD0iMTkyMCIgaW5rc2NhcGU6d2luZG93LXg9Ii04IiBpbmtzY2FwZTp3aW5kb3cteT0iLTgiIGlua3NjYXBlOnpvb209IjUuOTY3MzU3NyIgb2JqZWN0dG9sZXJhbmNlPSIxMCIgcGFnZWNvbG9yPSIjZmZmZmZmIiBzaG93Z3JpZD0iZmFsc2UiPiYjeGE7CTwvc29kaXBvZGk6bmFtZWR2aWV3PiYjeGE7JiN4YTs8cGF0aCBpZD0icGF0aDUwMzI0IiBpbmtzY2FwZTpjb25uZWN0b3ItY3VydmF0dXJlPSIwIiBzdHlsZT0iZmlsbDojMjA3NUI4OyIgZD0iTTE1LjY4LDQ4LjM2YzAuMDctMC4wNyw2LjQtMS4yMywxNC4wNi0yLjU3ICBjNy42NS0xLjM1LDEzLjk3LTIuNSwxNC4wMy0yLjU2YzAuMTItMC4xMS0wLjc1LTEuMTctMTAuMjItMTIuNDZjLTIuNTItMi45OS00LjYzLTUuNTYtNC43LTUuN2MtMC4wOS0wLjE5LDAuODktMy4wNCwzLjczLTEwLjgzICBjMi4xMS01LjgxLDMuODctMTAuNjUsMy45MS0xMC43NWMwLjAzLTAuMDksMC4xMy0wLjE3LDAuMjItMC4xN2MwLjE5LDAsMjYuMTQsNDQuOTEsMjYuMDUsNDUuMDZjLTAuMDQsMC4wNi0xMC42OCwwLjEtMjMuNjQsMC4xICBDMjUuMjEsNDguNDgsMTUuNiw0OC40MywxNS42OCw0OC4zNnogTTAsNDMuMDFjLTAuMDUtMC4xMywwLjU0LTEuMjksMS40NS0yLjg4YzAuODQtMS40Niw0LjQyLTcuNjYsNy45NS0xMy43N2w2LjQxLTExLjFsOS4wOC03LjYzICBDMjkuODgsMy40NCwzNC4wNCwwLDM0LjEzLDBjMC4xLDAsMC4xMywwLjA5LDAuMDgsMC4yNEMzMy43NCwxLjQ4LDE0LjMsNDIuOTIsMTQuMTMsNDMuMDVjLTAuMTksMC4xMy0xLjg0LDAuMTctNy4xNSwwLjE3ICBDMC45MSw0My4yMiwwLjA3LDQzLjE5LDAsNDMuMDF6Ii8+JiN4YTs8L3N2Zz4=;" vertex="1" parent="GQyigsiqdUalnDf_dycu-38">
          <mxGeometry x="10.000000000000014" y="10" width="26.25" height="20" as="geometry" />
        </mxCell>
        <mxCell id="GQyigsiqdUalnDf_dycu-32" style="edgeStyle=orthogonalEdgeStyle;rounded=0;orthogonalLoop=1;jettySize=auto;html=1;sketch=1;curveFitting=1;jiggle=2;shadow=0;" edge="1" parent="1" source="GQyigsiqdUalnDf_dycu-22">
          <mxGeometry relative="1" as="geometry">
            <mxPoint x="560" y="275" as="targetPoint" />
          </mxGeometry>
        </mxCell>
        <mxCell id="GQyigsiqdUalnDf_dycu-33" style="edgeStyle=orthogonalEdgeStyle;rounded=0;orthogonalLoop=1;jettySize=auto;html=1;entryX=0.057;entryY=0.771;entryDx=0;entryDy=0;entryPerimeter=0;sketch=1;curveFitting=1;jiggle=2;" edge="1" parent="1" source="GQyigsiqdUalnDf_dycu-7" target="GQyigsiqdUalnDf_dycu-14">
          <mxGeometry relative="1" as="geometry" />
        </mxCell>
      </root>
    </mxGraphModel>
  </diagram>
  <diagram id="2SUUFY71sjVcZpa-hYao" name="Terraform-detailed-diagram">
    <mxGraphModel dx="1037" dy="566" grid="1" gridSize="10" guides="1" tooltips="1" connect="1" arrows="1" fold="1" page="1" pageScale="1" pageWidth="1100" pageHeight="850" math="0" shadow="0">
      <root>
        <mxCell id="0" />
        <mxCell id="1" parent="0" />
        <mxCell id="SUx3mmpvgNjhCRliXCZC-12" style="rounded=0;orthogonalLoop=1;jettySize=auto;html=1;entryX=0;entryY=0.5;entryDx=0;entryDy=0;sketch=1;curveFitting=1;jiggle=2;strokeWidth=0.5;endArrow=open;endFill=0;" edge="1" parent="1" source="SUx3mmpvgNjhCRliXCZC-7" target="SUx3mmpvgNjhCRliXCZC-10">
          <mxGeometry relative="1" as="geometry" />
        </mxCell>
        <mxCell id="SUx3mmpvgNjhCRliXCZC-7" value=".env" style="sketch=0;pointerEvents=1;shadow=0;dashed=0;html=1;strokeColor=none;fillColor=#505050;labelPosition=center;verticalLabelPosition=bottom;verticalAlign=top;outlineConnect=0;align=center;shape=mxgraph.office.concepts.document_blank;" vertex="1" parent="1">
          <mxGeometry x="640" y="230" width="40" height="47.5" as="geometry" />
        </mxCell>
        <mxCell id="SUx3mmpvgNjhCRliXCZC-14" style="rounded=0;orthogonalLoop=1;jettySize=auto;html=1;entryX=0;entryY=0.5;entryDx=0;entryDy=0;exitX=1;exitY=0.5;exitDx=0;exitDy=0;sketch=1;curveFitting=1;jiggle=2;strokeWidth=0.5;endArrow=open;endFill=0;" edge="1" parent="1" source="SUx3mmpvgNjhCRliXCZC-9" target="SUx3mmpvgNjhCRliXCZC-10">
          <mxGeometry relative="1" as="geometry" />
        </mxCell>
        <mxCell id="SUx3mmpvgNjhCRliXCZC-9" value="secrets.tfvars" style="shape=image;verticalLabelPosition=bottom;labelBackgroundColor=default;verticalAlign=top;aspect=fixed;imageAspect=0;image=data:image/png,iVBORw0KGgoAAAANSUhEUgAAAgAAAAIACAYAAAD0eNT6AAAAAXNSR0IArs4c6QAAIABJREFUeAHtvQmcHMV96A+2iY84ec7lOM5LXs6XvPz9cvGSvCTv+Smx2emREAjwYnNImp4Vi0BIWGAhbtYYW8IGH3IiWwZH5orMaGpWq/u+haTVfXAI0C0OiUsntrGh/p9aqcWwO6vto7q7qvvL58NnRrPd1VXf+nX9vlPTXX3WWfwHAQhAAAIQgAAEIAABCEAAAhCAAAQgAAEIQAACEIAABCAAAQhAAAIQgAAEIAABCEAAAhCAAAQgAAEIQAACEIAABCAAAQhAAAIQgAAEIAABCEAAAhCAAAQgAAEIQAACEIAABCAAAQhAAAIQgAAEIAABCEAAAhCAAAQgAAEIQAACEIAABCAAAQhAAAIQgAAEIAABCEAAAhCAAAQgAAEIQAACEIAABCAAAQhAAAIQgAAEIAABCEAAAhCAAAQgAAEIQAACEIAABCAAAQhAAAIQgAAEIAABCEAAAhCAAAQgAAEIQAACEIAABCAAAQhAAAIQgAAEIAABCEAAAhCAAAQgAAEIQAACEIAABCAAAQhAAAIQgEC8BJwh1b90yuJhxxUHHFf8wnGF5H8YEAPEQI5i4LjjitUFt3pdc3Pll+IdcSkdAoYQKJSq15P0GehzNNAjtwh+XzGw8bxyxycNGaKpBgTiIeCUal9g4Cf5EwPEADHQIwY2MBMQT96hVAMIFEfO/qBTEi9y4vc48fv6dsDf+QZJDOQgBgrl2ggDhmqqAAH9BIrl9iLJn+RPDBADxECvMbBa/8hLiRAwgEDRrX2JE7/XE59veDn4hkf8E/99xMAxA4ZqqgAB/QScsmjrI/hJgiRBYoAYyHUM6B95KRECBhBAAPj2gwASA8TAmWPAgKGaKkBAPwEE4MwnPgMjfIgBYkD/yEuJEDCAAALA4EaCIwaIgTPHgAFDNVWAgH4CCMCZT3wGRvgQA8SA/pGXEiFgAAEEgMGNBEcMEANnjgEDhmqqAAH9BIIKwP2PbJVbX3iT/2FADBAD1sbApaNmBrqrQf/IS4kQMIAAAoDMIHTEQN5iAAEwIPlQhfQJIAAM/nkb/GkvMY8ApJ97qIEBBBAABkMSIjGQtxhAAAxIPlQhfQIIAIN/3gZ/2kvMIwDp5x5qYAABBIDBkIRIDOQtBhAAA5IPVUifAALA4J+3wZ/2EvMIQPq5hxoYQAABYDAkIRIDeYsBBMCA5EMV0ieAADD4523wp73EPAKQfu6hBgYQQAAYDEmIxEDeYgABMCD5UIX0CSAADP55G/xpLzGPAKSfe6iBAQQQAAZDEiIxkLcYQAAMSD5UIX0CCACDf94Gf9pLzCMA6eceamAAAQSAwZCESAzkLQYQAAOSD1VInwACwOCft8Gf9hLzCED6uYcaGEAAAWAwJCESA3mLAQTAgORDFdIngAAw+Odt8Ke9xDwCkH7uoQYGEEAAGAxJiMRA3mIAATAg+VCF9AkgAAz+eRv8aS8xjwCkn3uogQEEEAAGw6wkxE37j8uHZj8vb/n2ajm8bbEcPW65/OZjW+XKp1+XWWkj7dBzviIABiQfqpA+AQRAz4DCwJwux8VbX5FDb54nHVf0+H/gVdPkA9N2IAEvpNtHJp0jCED6uYcaGEAAAWBQNGlgDlOXVTsOy0tHzuyR+LvLwA9nPIsEIAFdMYAAGJB8qEL6BBCA/AnAymfekGufP5qZZDjmvlV9Jn8lA4Ou6ZBrnjuSmXaHkSX2OXm+IwDp5x5qYAABBCAfAqC+Jbd9b528+Nrpp5OlGgTHT94kO3fZKwO1lftPt6f7N/5G/55UeyawAKx4+nV5zw/Wy8tvmNN1rAuu7pAj7l4qH5m3M3BZJGAzzjcEwIDkQxXSJ4AAmDEgxZkYHl+yV14y4t3E3z0xXjZ6tlyy7VXrktmW/Sdk+Zb5gQTgjn/rDNTO6rJ9XTMH3Zl5//7iuOVyNbMKgZjGGet+y0YA0s891MAAAghAdgVAJcivP7RZFss9L4zzEpj3OnjMPLlh7zGrBvJJ03YESv6qreoOAb9JYtGWQ1J92/cY9faqBGrW2hd9l+v3+GwX37mJABiQfKhC+gQQgPgGmTQHcDXlf93dS/tMXvVJ7XvVp61JYuoahovPMKtR36769/c9vNV3G2/8+grf/AYMa5cTLeKXZmyacGwEIP3cQw0MIIAAZE8AOlYd8HVVfH1iVO/V79omDM5+6nDPAxt8J+f6ds5Z97KvNq7bdVQOaGkPfIyx9z8h1b5+2sA26Z17CIAByYcqpE8AAUhvENKdALYceFNO+PF22b+lFjhxqST5+etnWZG4Fm4+FCo5j/raMt/tm7v+5VAMFUf1c8r8jYd8H0t3HFBe3+c0ApB+7qEGBhBAAPoeLGwYUNWU+A33+p+yrv9W7L2/4sY5ViQtlci9Ovt9Vd/mF2w66Lt9KoH7LbvRdgNbp8nJM1l3wNRzBwEwIPlQhfQJIAD2C8DszpdP36LWKBn5/UxNX5s6YHv1+vHivaESs7qNzyvDz+vGfcelWkHQL7vetrvz39dad3GlHz62b4MApJ97qIEBBBAAuwVAXQl//rDgv1U3SljVZXsDJcmkk8CmfcfllWPmBk7K6mLBMAsf3fqdNYGP1Yhr+dYFVt5mmXT/Jnk8BMCA5EMV0ieAANgpAOt3H+26pa1Rwgnz2c3f8n97XJIDdf2xvvv4k6ES8g/agy/+o46rHiJUv3BSGK7ePoOGd8j/XLDbaMGqZ5319whA+rmHGhhAAAGwTwDURXBDxwZbAMdLRI1e1dS/+nZt8qCvbmtUS/k2qv+ZPnNvni/Veghh26YuBmwe1fdzBs5UB+9vaj2GcQ9ulJsj1CdsO9jvvec5AmBA8qEK6RNAAN47MJg+UKpvkerbpJdUoryquwUmTNku1d0Dprf7zn/rDNVmtZJf1LY9seOwHHlP8AsPe+ubq+5YKJc9+VrkekVtV573RwDSzz3UwAACCID5yU8N1OqiNHUhW29JJejnl14/S05/4gUrkpD6Fl4sB7+1UT0kSFeSU7MI9z+yNVQ9GvWNui6hujS6nOhqX97KQQAMSD5UIX0CCID5ArD8qddl652LtCV/teDPqmfe0JYc404e13x5SeC2qwsjF297RXsb1V0IF12rZwZG/SSgHsa05UD4nyjiZp/V8hGA9HMPNTCAAAJgtgCoB/nouhDtdMKx6Dfoh+c8Hzj5q2/cX//RFu3J30uGavr+qjs0CtlXlkp1jYNXPq/xn5MIgAHJhyqkTwABiH+wCTOg655yVk8DnLrErinnjXuOSfWgnUZT6Gf6TF2017nzSKwJVfdPMmoVxumr7fhJJkw8m7YPApB+7qEGBhBAAMwTgNXPHpajvqrvorNhty+QS7fb97hf9Zv7mRJ9b3+bPPO5WJN/fTL70aznfD0xsLe61n9u00WZ9QxsfI8AGJB8qEL6BBAAswQg7IN86hNJ/fu7JnYaf4tfowSy4unXQyVWda1E0nc1dN2WefO8ULJS31fee/UUws6dPFCoUVzo+gwBSD/3UAMDCCAAZgiASloTpz4V6iE3XuKof73w6g75yJydiX0T1jUwe+WM/eYTgROqusZh1toXU2mzegLg2G8Fr3N9n9W/v/JLc+W8Df6fXeBx49Xf+YwAGJB8qEL6BBAAfwNGnAOr+r1a3bJWnwCivB9y0zy5wOKn0anfwlUyD8rgtglrU0n+9bHxwLQdcoCmpZnVswgenMYDher56nqPAKSfe6iBAQQQgHQFQD2f/vIb5wROdr0lR7V+vVomWNdAmXQ56pa4YbcvDMxDzXisNOTWxtmdL2l5OJPXx7dNWCM37DlmbZ8mHUN+jocAGJB8qEL6BBCA9ARAXUB2fmv0J86pRKHue1c/IfgZ/EzeRn3j9RJfkNdv/+c2o9q++rkj8vpx+i7kLN86P5Z1DUyOhTjrhgCkn3uogQEEEIDkBUDd3nZHyKVtGyVFdatcWr996xyk1e/oYdbdVzMoG/aa9w1ZXdehlloutgRfxbBRP184vEM+Om+XUaKjs/+TLAsBMCD5UIX0CSAAyQrAoi2HZEnjFeM3jF8e6lG3SQ62fo+lHpTTKPH19ZnpT9mrrdwfSmx6a7etd3b4jYMktkMA0s891MAAAghAcgLw0OznpfqtureBPcjn6luluk8+K8vIqmV71c8YQRiobUd8ZakV34jVo4WHty0O3L7eePBAoWjnLQJgQPKhCukTQACiDSR+vq3oXjXucyNnSLHcrlX9+uI0etzywMlRSZBNt8qpxwCrtf/D3OHQSAR4oFD4cxcBSD/3UAMDCCAA4QeRvpKa+rtaN17ng3zUg3FW7rDnQT5+GCmZaZTg+vrs7u+vs+Lbf3cGUxbukYOu0TQTxAOFQsUAAmBA8qEK6RNAAOITgPaV+7U+Oe7rP9os1TMCuicUm/+9af9xqdYt6CvZd/+7eiKfutLe1rYv3vqKdG+eH7jd3Tl4/1Z3HKyz+PbPpPsRAUg/91ADAwggAPEIgLoXXNctfuppgOoxtEkPkkkcT9266CWxIK8Tq09bz0PdDXL7hLWh2t+IlZodUj8zJNFvth8DATAg+VCF9AkgAPEIQPnWBVoGdrUozrLtr2VyUFcPPQozFT507PxMJboHp++QatW/Rkk96GffrTyZyVjRLRwIQPq5hxoYQAAB0C8A6p78oAN3o+3bvrdOqgsIdQ9+ppTXNrEzFKfqsuzNhsxdf1BeoWFFyMtvmJP4w5BMiacg9UAADEg+VCF9AgiAfgH4XvXpUInNkwD108EPp+/IbOJXA/XcDQdDLZCjnpQXZKC3aVv1TIib7o/+TAh1y6FN7U6jrghA+rmHGhhAAAHQLwDfeizcc+w9AVD3i9t8gZufAX3E3UsDS5J6yI5aL8BP+bZuoy4OVNd8eLEQ5tWmWyPT6icEwIDkQxXSJ4AA6BeA/5gZbj37+sFeLe+rLiRMa4CM87iPzd8VKsGN++GmTPLwWD82f7ccNDza7YFqjQF1bYVXJq+Nz28EIP3cQw0MIIAANB4gogycq3Yclv01rP+uVsb7QXu2fgpQV75fdsPswAKgnhGgpsij9Iup+6pbIb/24EYtCwRddfvCTDLS3XcIgAHJhyqkTwAB0C8AarBSA3r9N/oo72/59mqrH/FbP3h/M+TPIz+c8WwmE5vuJYIfX5K9CyTr40fXewQg/dxDDQwggADEIwDq6n11wVqUxF+/r3qAkPp9WNcAmEY5KtldEOJZCMNuX5CZZx7Uc1crIKplnev7Ocp79WyI+vJ53/u5jQAYkHyoQvoEEIDeB4moA2jX2u//oW/td3XPvOlPvjsTMzWTETTBqd+0pz/xQqYSm3qAk5oJ0fWYYLWGQNZ+KjpTHOn4GwKQfu6hBgYQQADiEwBvoFKr+Kmla4Mmv0bbq4R4zw/WS/W7sVe+Da8z1rwY6jduJQ02tM9vHdXdHWrZ3kZ9G+YzdbGoWnfC7/HZ7uT5jgAYkHyoQvoEEID4BUANuuqhQOoCrTCDfKN9uh4K9IwdDwVS33jDtF2th6C4ZSVpze58WaqFehr1Z5jPRt+7Qq59/mhm+CTZzwhA+rmHGhhAAAFIRgDU4Kb7scCXXDdD1ix4LLC6gC9MglPT5EkmhTiP9cC0HVKtYxCGQ/d91B0m6vd+JVZx1jnLZSMABiQfqpA+AQQgOQHwBtQfzXou1MVw3ROB+rfpyWDdrqPy0pEzAye+L3xxltyw55j1CU49oW/st54I3P5Gfa0+u/T6WZm7JsI7L5J8RQDSzz3UwAACCEDyAqAGuoWbD0n1UJveBvqgn6vp4M6d5k0Hj5+8KVQbH523y/rk39XHNwd/1HFvfX/d3UvlKkt+9kkymYc5FgJgQPKhCukTQADSEQA1aKlvx2Pv1/ft8MovzZUmLQO7dNurUi1m1FtC6+1ztRTylgPp9UuYhNJ9n4dmP69tlkdd+KlEaguP+tUmhQhA+rmHGhhAAAFIP9Ho/H1Y3RKmHi/bPSGl8e8w6yAUyzWpLpZLo746jqn7Oo+LR0yXU5fss5aHDqZxlIEAGJB8qEL6BBCA9AVADXCz1r4k1S1dvX0rDvr5bRPWSLXsbhyDp58y21fsD9UW9YhgP+WbuE3XnR53LArV7kb9e9UdC+Wy7dm5C8KkPkMA0s891MAAAgiAGQKgBsc1zx2Ro766XFsCabltgVy6/dXEE6qaqlYrFzZKamf6TC10ZOtv3Gqth6hP8fPYnF7rYZ9daz2YlOD7qgsCYEDyoQrpE0AAzBEANWip374nTNku1VS4lxCivF6SwhTy96pPh6r7v1WeTFxW+koUff1dyY66JU9XfykJysIFkH1xS/vvCED6uYcaGEAAATBLALyBUU2h61onPsmLyNTCNEo6gkrLlTfO7VonwWu/Da/qsbsj79G3ql/51gVy8Ta7n/dgQ7+pOiIABiQfqpA+AQTATAFQg9Typ16XrXfq+0256zayHfE+K/7u768LnPyVLFQse4pdx6oDodY36E2M1DUbWVj3AAFIf0ynBhDwTQABMFcA1GDa9UChkPfSN0o2n79+llTr8scxUC/YdLBrYaJGxz3TZ6O+uiyW+sTRRvUTzcSpT8kBLcFvb2zEQC13bMpdG3HwMrVMZgB8pwg2zDIBBMBsAfAG0IfnPC8vDPEo3UZJR60eqK4z8MrW9RrmAkaVSBdtOaS9LrraVF9O584jcsx9q0LNcDTqh8Fj5sn5G+1oez2HLLxHALKc1WibbwIIgB0CoAZdlSjDXF3fKPmoz9ST9tbv1rN6oHpMcW/HOdPnX3twoxXJf+76l+XlN+p7kM+Y+1bKzl162GchISfdBgTAd4pgwywTQADsEQA1SKq15W/+1upQybZRIh5687zI38DV4jdXhEiO6mFGJi5f3D0ZTZq2I9SKho14q5URf9D+jBXS051Dlv6NAGQ5q9E23wQQALsEwBuEv197RtvT5dT963PWhV997ztTtoUSErUCotceU1/vnbw5VNsaJX/1KODZnS8Z32ZT+0JnvRAA3ymCDbNMAAGwUwDUYDirU9/qgWp6O8xV6Ct3vCEvHN4ROEmWb51v/Nr2UxbuCdyuRolffXbDvSukukVSZxKjrPDnLgKQ5axG23wTQADCDyImDMCrnzsirx+n5170MN/Ib5+wNlSSnLbygPHJUN2X31tC9/u5uuDyu49vt/7hRibEus46IAC+UwQbZpkAAmC3AKhBccuBE/Kbj22VxZZoqwfe+I2VgZKyen5BmBXwbrp/VaDj6Bz4/Za1asfhyMlfJRm1XoDfY7JdcuciApDlrEbbfBNAAJIbdOIe4NtX7pfNo2aGTlzq4TN+66juh1eP7fX7TdjbTt33bsMDbtRv9V6dw7yOuHupVD+P+OXJdsmehwiA7xTBhlkmgAAkO/DEPdCvePp1Ofyu4IlZJbnr7vG/IM8j83aGSpD3PbTFiqS4eOsrodqnZkRUG9UzAuLua8oPf+4iAFnOarTNNwEEIPwgYuoAvGn/cXnPAxukegZAkG+v3wiQnK/58pJAZat6qFUIda07EDd7lcAvHRlsNuXiEdNldek+Ev8L5p9TCIDvFMGGWSaAAJg/WIVNdo/N3yXV0+X8SMBANTX/pL9nz2/adzzULYgPzX7equT4rce2+mKn+F5956KuZzeE7Sv2S/Y8RACynNVom28CCECyA0/SA/3iLa/0uXqgmikIcgeAup3Nj1TUb6N+llDXDSTd/ijHUwsc9XWdg2KnZlvUrEuUY7FvsrGBAPhOEWyYZQIIQLIDTxoDvbq/Xz2lr9EV+2oRoKDfzNVdBxcEeC6BOq6tC+Co9f9v/c6ahj+nqCSi1gpIo085ZrTzFgHIclajbb4JIADRBhKbBuIl216V3608Kdu+t05+5Qfr5Y9mPde1tHCYNtz49RW+ZwHu+O5a65Pkws2H5IQfb5d3TeyU4x7cKB+Zs1Nu3HPM+naF6fss7IMA+E4RbJhlAghAfgRA58CtViFsNKNQP+2v3qsL41Y9w+1wOtlTVvRzFgHIclajbb4JIADRB5O8DsgTpz51xlkAdWFhbTlXxec1PkxuNwLgO0WwYZYJIAAIQJSBWv0GfuWX5vYQAXXx3Nz1B5kit+CWuCj9b+u+CECWsxpt800AAUAAog7i6qJAlewfnbdLTlmwWy7e9gqJn8RvdAwgAL5TBBtmmQACgABEFQD2J4ZsiwEEIMtZjbb5JoAAMHjbNnhTX2I2agwgAL5TBBtmmQACwGAadTBlf2LIthhAALKc1WibbwIIAIO3bYM39SVmo8YAAuA7RbBhlgkgAAymUQdT9ieGbIsBBCDLWY22+SaAADB42zZ4U19iNmoMIAC+UwQbZpkAAsBgGnUwZX9iyLYYQACynNVom28CCACDt22DN/UlZqPGAALgO0WwYZYJIAAMplEHU/YnhmyLAQQgy1mNtvkmgAAweNs2eFNfYjZqDCAAvlMEG2aZAALAYBp1MGV/Ysi2GEAAspzVaJtvAggAg7dtgzf1JWajxgAC4DtFsGGWCSAADKZRB1P2J4ZsiwEEIMtZjbb5JoAAMHjbNnhTX2I2agwgAL5TBBtmmQACwGAadTBlf2LIthhAALKc1WibbwIIAIO3bYM39SVmo8YAAuA7RbBhlgkgAAymUQdT9ieGbIsBBCDLWY22+SaAADB42zZ4U19iNmoMIAC+UwQbZplAUAEYec8yOWHKdv6HATFADFgbA4Ou6ZCOK3z/n+UcQNtyTCCoAAQ5adjW/wADK1gRA+bGQI5TBE3PMgEEwNxBh4RA3xADZsRAlnMAbcsxAQTAjAGGgZ5+IAbMjYEcpwianmUCCIC5gw4Jgb4hBsyIgSznANqWYwIIgBkDDAM9/UAMmBsDOU4RND3LBBAAcwcdEgJ9QwyYEQNZzgG0LccEEAAzBhgGevqBGDA3BnKcImh6lgkgAOYOOiQE+oYYMCMGspwDaFuOCSAAZgwwDPT0AzFgbgzkOEXQ9CwTQADMHXRICPQNMWBGDGQ5B9C2HBNAAMwYYBjo6QdiwNwYyHGKoOlZJhBYAMpiZaEsxvM/DIgBYsDWGHBc8VIQ4cpyDqBtOSYQQgDacoyLpkMAAhkg4LhiPQKQgY6kCdEIIADR+LE3BCBgHwEEwL4+o8YxEEAAYoBKkRCAgNEEEACju4fKJUUAAUiKNMeBAARMIYAAmNIT1CNVAghAqvg5OAQgkAIBBCAF6BzSPAIIgHl9Qo0gAIF4CSAA8fKldEsIIACWdBTVhAAEtBFAALShpCCbCSAANvcedYcABMIQQADCUGOfzBFAADLXpTQIAhDogwAC0Acg/pwPAghAPvqZVkIAAu8SQADeZcG7HBNAAHLc+TQdAjklgADktONp9nsJIADv5cG/IACB7BNAALLfx7TQBwEEwAckNoEABDJFAAHIVHfSmLAEEICw5NgvKoF+pckfcsq1fyyWpzY1Dav8YdTy2B8CfgkgAH5JsV2mCSAAme5eIxtXHDn7g12PkXXFG92eyPZ0sVQdaGSlqVSmCCAAmepOGhOWAAIQlhz7hSHQNPjhX3ZKYm23xC+7/bujf6nyiTDlsw8E/BBAAPxQYpvME0AAMt/FRjWw4IqHuiX77snf+/erRVd83qjKU5nMEEAAMtOVNCQKAQQgCj32DUKg0FL5E8cVb/sUgJMiUBaVga0zfjPIcdgWAn0RQAD6IsTfc0EAAchFNxvRyEKpen2g5O8KbzbgoFMWFxnRCCqRCQIIQCa6kUZEJYAARCXI/n4JOG71OyEFoEsE1M8Hg0rtH/N7PLaDQG8EEIDeyPB5rgggALnq7lQb67hiUhQBOLXvS9wpkGo3ZuLgCEAmupFGRCWAAEQlyP5+CWgSAO/agIcvKHf8it9jsx0E6gkgAPU0eJ9bAghAbrs+8YZrFYCT1wfsKbq1f028IRzQegIIgPVdSAN0EEAAdFCkDD8EYhAANRvwjiq337WVj/qpA9tAQBFAAIgDCKgToSzaAv0uWxZtgINAGAIxCYB3p8DO/i3i02HqxT75I4AA5K/PaXEDAghAAyh8FAuBmAVAiYBaY2DSwNYZH4mlARSaGQIIQGa6koZEIYAARKHHvkEIJCAAp2YDak86JfF3QerGtvkigADkq79pbS8EbBKA4hWP/mpxqPhnp1S72CnVmvk/XgbFcnvRKVf+rJfQCfxxcgLQtYDQzwtu7cvntk46J3BF2SHzBBCAzHcxDfRDwAYBKLSK33HK4mHHFT8LdL3CuyvJeb8T8xqCSdEVz+pYlz9hAfD6emP/0rT/6edcYJv8EEAA8tPXtPQMBEwXgPNK1T91XHGAxH96WVwvsSX/WqqNO0Mo9fmnlARAcVLieEu/tiUf6LOSbJALAghALrqZRvZFwGQBUAO244rtJH8Dkv+pmYNCuXppXzHV299TFIAuWSq4Yk1TqfrnvdWPz/NDAAHIT1/T0jMQMFkAHLd6JcnfnOTf1RdlseMM4XTGPwUVgAlTtsthty/UPdPxpuPWRre1tb3vjJXlj5kmgABkuntpnF8CJgtAwRU/RgAMEwA1ExDywsCgAvD4oj1y8/4T8puPbZUDWto1i0Bt+YCy+CO/5wnbZYsAApCt/qQ1IQmYLACOK1YhAOYJQFOpdl6YcAsjAFtfeFOq/+euPyjdm+drlgBxrOhWrznrLHl2mPawj70EEAB7+46aayRguADMRQDME4D+bvUfwoRgFAFQErBp33H59Yc2y/4tNd0isOCzgyu/H6ZN7GMnAQTAzn6j1poJGC0AJXEXAmCcABzrV5r8oTBhGFUAvNmAWZ0vySE3zdMsAdUjjitamQ0I07P27YMA2Ndn1DgGAiYLwHnljk86rjiBBJgkAdVvhg1DXQKgRGDD3mNy/ORNsqh7NqAs5pw/pPK7YdvIfnYQQADs6CdqGTMBkwVANV19K0MATBGA2pNqNcawIalTALzZgI5VB+QVN87RPBsgXnPc6mVh28lqqJeRAAAgAElEQVR+5hNAAMzvI2qYAAHTBUAhcMqi5LhdU7S6B3rK87syYKk2r+hWfitKSMYhAEoE1u8+Kr/8/XWyWNYrSsWSqEZtcxRe7BsfAQQgPraUbBEBGwRA4RzYOuM3C+XaCMet/cgpiwr/J8DArT1edMV9uh6zG5cAeLMBYvk+edno2bql7qBTFhdZdEpTVR8EEAAfkNgk+wRsEYDs90T2Wxi3ACgR6Nx5RN41sVP7bIASzs8Mqf1G9nspHy1EAPLRz7SyDwIIQB+A+LM2AkkIgDcbUF26T37++llaZwOKrni54NYu1AaEglIjgACkhp4Dm0QAATCpN7JdlyQF4ORswNGu2QDtF5GWRWXA5TN/Ldu9le3WIQDZ7l9a55MAAuATFJtFJpC0AHizAY8v2SsvHTlT92zAXmfo1M9EhkIBqRBAAFLBzkFNI4AAmNYj2a1PWgKgRGD1s4flmPtWaZUAxxXvqDb1u7by0ez2WjZbhgBks19pVUACCEBAYGwemkCaAuDNBjw6b5e8ZMR0vSJQEruc0tR+ocGwY+IEEIDEkXNAEwkgACb2SjbrZIIAKBFYteOwvPHrK/RKwKnZgIGtMz6Szd7LVqsQgGz1J60JSQABCAmO3QITMEUA6mcDLrq2Q7cIPO+Ua/8nMBx2SJQAApAobg5mKgEEwNSeyV69TBMAJQLLnnxNXnfPMt0S8PNCWYwvjpz9wez1YjZahABkox9pRUQCCEBEgOzum4CJAqAkYMuBN+UD03bIC6/WOxtQdMW2giv+1jcgNkyMAAKQGGoOZDIBBMDk3slW3UwVAO8ngaXbX5Uj7l4ay2zAua2TzslWb9rdGgTA7v6j9poIIACaQFJMnwRMF4D62YCBrdN0i8DmQrn2V31CYoNECCAAiWDmIKYTQABM76Hs1M8GAfBmAxZuPiSvumOhbgn4SbFUG9vcXHl/dnrVzpYgAHb2G7XWTAAB0AyU4nolYJMAKBHYvP+EnDBluzx/WLtuEVjtlCt/1iso/hA7AQQgdsQcwAYCCIANvZSNOtomAN5swPyNh2TLbQt0S8Cbajagra3tfdnoXbtagQDY1V/UNiYCCEBMYCm2BwFbBaB+NmBAi+bZgLJYWWip/EkPWHwQKwEEIFa8FG4LAQTAlp6yv542C4A3GzB3w0FZvmW+5tmA6hHHFa1nnSXPtr+X7WgBAmBHP1HLmAkgADEDpvjTBLIgAEoENuw9JsdP3iSLLTXNIiDmFoeJ/3oaGG9iI4AAxIaWgm0igADY1Ft21zUrAuDNBsxY86K8csxc3RJw+ORsgN19bXrtEQDTe4j6JUIAAUgEMwc566yzsiYASgQ27jk1G1DWPhsw67xyxycJnHgIIADxcKVUywggAJZ1mMXVzaIAeLMB0594QV55o+bZgLJ43XGrV1rc5cZWHQEwtmuoWJIEEIAkaef7WFkWACUCnTuPyLsmdspiWej9WaAsKgNbZ/xmvqNHb+sRAL08Kc1SAgiApR1nYbWzLgDebEB16T75+etnaZWAoiteLpaqgyzsdiOrjAAY2S1UKmkCCEDSxPN7vLwIQNdswK6jXbMBjqt/NqDQUvn1/EaRnpYjAHo4UorlBBAAyzvQournSQC82YDKkr3y0lEztc4GOCXxYpNbO9+irjeuqgiAcV1ChdIgYJsANDdXPty/Rfy3AWXxR/wfL4OmwbWP64zJPAqAEoHVzx6WY+5bpVcCXPFOwRUT+11b+ajOPspLWQhAXnqadp6RgA0C0Nxc+SXHrY1yXLFd+5Sq7ina7JV3zHFr/1l0K39xxkDy8ce8CoA3G/DQ7OflxddO1y0CO/u3iE/7wM8mdQQQgDoYvM0vAdMFYFCp/WOOK1aQ+DX/lhxcVH7quNXLopwpeRcAJQIrd7whR49brlsC3nbc6jfV7FiU/snTvghAnnqbtvZKwHQBKLjV2ST/1JO/l7DeKpbE/+41mPr4AwLwpvRmA344fYccdE2Hx1XX69P93eo/9NEN/PnkolTrg4wrQPNHQM3WquWsz22ddI6/PdgqVQImC0CxPLUpyEnKtomIwoqwAYsAvCsASgSWPfmaHHnPMl3J3yvnF44rvlYcOfuDYfspD/sxA6C3l9VFqY4rVjmu+PmpcfgXTknMdMq1/6P3SJSmlYDJAuCUxIMk9USSupc8/Ly+E/aBNQjAewVAScCWA2/KSbVn5AVX654NqG4ttlT/RutgkaHCEAA9ndm/VPmE44qOM4zTvyi6tS/pORqlaCdgtAC4teVnCCw/yYptgv/W3yezolv71zCBiAD0FADvJ4El216V13x5SZ/sA54PbxXd6p392pZ8IEx/ZXkfBCB67xZd8XnHFa/6iMl3nLK4KPoRKUE7AbMFQCzyEVy6B03K60saQk7rIQC9C4A3G/DAtB36ZwNKYkv/Uvtfax88LC4QAQjfeV0XZpfFw0HG5qIrnm1ra3tf+KOyZywEzBaA6jeDBBnbJvJzwVsDLp/5a2GCEQE4swB4swELNx+SV92+ULeI/rTgipuamyvvD9N3WdsHAQjXowW3dqFaljrMWFtwxd+GOyp7xUbAZAEolGt/5bji7TDBxj4xyUBZVMIGIwLgTwCUCGzef0J++7FtcsCwdt0i8ET/IbX/HrYPs7IfAhCsJ8N86+8+BqufDIIdla1jJ2CyAKjGF0riW90DiX/HlNz7mvp3xStqFcawQYkA+BcAbzZg3oaDsnzrfN0ScEItrJXnKVkEwP9ZXCjVHMcVBzSMu63+j8qWiRAwXQDUlGXRFd91XPGOhgDUPZDmpryiK/ZGncJDAIILgBKBTfuPy/se2iL7t9Q0x1ttSdOwyh8mMtAYdhAEoO8OuaDc8SuFcvUHGsdeBKBv7MluYboAeDSccu0fi674j6Irtjmu2Mn/iTB43nFrSxy3Nrpp8MO/7PVF2FcEIJwAeLMBsztfkkPHap8NOOq4ovWss+TZYfvVxv0QgDP3WqEs/sVxxW7NX7oQgDNjT/6vtghA8mQ4om4CCEA0AVAi8PiiPZpnAU7+nFR0xfwmd9rv6e5zU8tDABr3jFpOulAW42O69goBaIw9vU8RgPTY5+3ICIC5AnDqm97hk7MB2Y9MBKBnH6tlvh239ozmb/31wooA9MSe7icIQLr883R0BMB4AegarNXzN84fUvndLMcmAvBu7/YrTf7QqW/9ahnp+oSt+z0C8C52M94hAGb0Qx5qgQDYIQAqCRRc8UaWZwMQgJMjjjOk+peOKzbHnPg9kUAATBvoEQDTeiS79UEA7BGA0wmhLCoDW2f8ZtaiMu8CoJaHLpZqYx1X/Ox0X8f77V9JAAJg2omEAJjWI9mtDwJgoQCcTAoHs7aWe54FoKml9inHFRsSTPzMAJg6rCMApvZM9uqFAFgrACcH8LKoFFoqv56FyMyjANR96/9pCsmfGQATTxwEwMReyWadEADLBeDkbMBLxVJ1oO0RmjcBGDCs9j8cV3SmlPiZATD1hEEATO2Z7NULAUheANQjhm/59mpvANb1qlblnKRWirM1SvMiAGq550JZ3Oi44ic6k//wtsXytglrgsYT1wCYdsIgAKb1SHbrgwAkLwCj710h1QJClSV75aWjZgYdsPvafk/Rrf2rjRGbBwFQyzyfXMlT3619A6+aJidM2S637D8h739ka1/x0f3vCIBpJwsCYFqPZLc+CEB6AqAkYPWzh+WY+1Z1H5Sj/rtrNkDHUtFJRn62BUCera64d1xxTOe3/vIt8+XcDQe7hFLFEwKQZMTGdCwEICawFNuDAAKQrgCoQVv9/+i8XfKSEdOjJv7u++/s3yI+3aPTDf0gqwKgntbplGsLdSZ+9RCq8ZM3dT2UyoshBMDQwA5aLQQgKDG2D0sAATBDANTgvWrHYXnj11d0T+JR//2241a/Uxw5+4NhYySp/bIoAE6p1uyUxes6k3/p5nlyzrqXT3/rRwCSitCEjoMAJASaw5yFAJgjAN5ArmYDLrq2I2ri77Z/7cn+5er/MjnksyQA/UuVTziu6NCZ+L1v/Rv3HW+Y/JkBMDm6A9QNAQgAi00jEUAAzBMANZCv3PGGHD1uebckHvnCsZ+r9eWbmyu/FCloYto5KwLQ9a3fFa/qTP5X3DhHTn/ihV4TvyePXAMQU3AmWSwCkCTtfB8LATBTANSAvuXAm/KBaTvkhVfrng2obi22VP/GtMi3XQCaBtc+7rhVoTPxF8tC3jWxU27Yc6zP5M8MgGkRHbI+CEBIcOwWmAACYK4AeN/qlm1/TY64e6nu2YC31GzAua2TzgkcNDHtYLMAFF3xOccVh3Qm/8tvmCPbV+73lfi9WGEGIKbgTLJYBCBJ2vk+FgJgvgDUzwZcoHs2oCTWNpWqf27CWWCjAAwqtX8s6DnUlyR43/rX7T4aKPkzA2BCFGuoAwKgASJF+CIQdPB6fNGewIOS9+0kq6+KSV+Dev3fvYWAwvBYsu1VqVYSrC9Pw/ufqKfQNTdX3u8raGLayDYBKJRqjuOKAxr4n+7Py0bPlrXl+0KfY8wAxBScSRaLACRJO9/HQgDsmAGol4XN+090rfx2/rD204lDUxJadV6p+qdpnRG2CEDxikd/Neh546d/brp/lVz7fPBv/fWxgQCkFb0aj4sAaIRJUWckEHQgYwagpzAkOQNQP9gv2HhIDrt9gW4JeFPNBqj16s8YODH80QYBaCrVznNcsc9PQve7TfPIGXLKQj0zawhADIGZdJEIQNLE83s8BKBnQq9Psn7epyUAqm7ebMAA/bMBCz47uPL7SZ4ZJgvAwNYZH1EXTTqueNtvYveznfrWv/q5I6Gn/LvHJwKQZMTGdCwEICawFNuDAAJgtwB4CWDehoOyfOt8zbMB1SNq/foeQRPTB6YKQJM79Z+KrnjWT0L3u80l182Qj83fpS3xe3GAAMQUnEkWiwAkSTvfx0IAsiEAKgFs2Husa334YktNrwiUxZzzh1R+N+4zxTQB6Fea/KE4vvWrBZ7UQk9e0tb5igDEHaUJlI8AJACZQ3QRQACyIwBeIpm55kU5eMw8rRJQcMUbcc8GmCQA/d3qPziueNrvN3o/2w26pqNrYSevn+J4RQAyMLAjABnoREuagABkTwBUYtm459RsQFnvbEDRrc4otIrfiSO8TRAAtTDSqfH3F36Sut9tRn1tmVzx9OuxfOuvFwkEII7ITLhMOwRAnq3WvC66Yr7up135Palyut3PHFc855Rr959X7vhk1NBEALIpAF5SqK3cLy+7YbbW2QDHFQedsrgoaux13z9tASi44m+Lrtimc1xR3/ofnL4j9sTv9TcC0D2qLPy36QLQ3Fz5cKEs2nWeKJQV6kEvh9VtSVFCHAHItgCoxLBu11F558S1Uq0wp/c8qz0y4PKZvxYl/ur3TUsAur71l8Rdjive0snnunuWyWVPvpZY8ld9jQDUR5Sl700XAKckHtV5olBWpIH5eFNL7VNhQx0ByL4AeN8Opy7ZJy+9fpZmCRAHiuX2Ytj4q98vDQFQ547jig06xyC1XPP3a890PczJY5/UKwJQH1GWvjdZAIpDxT/rPFkoK1Ly9wbzuWFDHQHIjwCoJKRWmrv1O2u8uNH1+o7jigfUCnlh41Dtl6QAqGWP1YJHjit+qnMMGt62WKrlmpNK+N2PgwBEiUBD9jVZAAqumKjzhKEsLQLw9meGdfx2mPBFAPIlAF7CmLJgt1Qr0Gk+//YU3dq/holDtU9SAuCUK3/muGK1zrYPvGqa/G7lSbnlwInUkr/qWwQgbPQZtJ/RAlASy3SeOJSlRQCkU5raL0wIIwD5FACVLGKcDZjU79rKR4PGY/wCIM9WtzI6rjiuc9y56vaFcuHmQ6kmfk/sEICgUWfg9iYLgOOKpTpPHsrSIwD9W8Snw4QyApBfAfCSxqPzdsmLR0zXOxtQEruKbu3/BYnJOAXAKbX/geOKxTrHmwEt7V0LL23af9yI5M8MQJBoM3hbowWgLP5d50lEWVoE4O2mwbWPhwlpBAABUIlDrUx3w/jleiWga9386jfUinp+YjMeAZBnF8q14Y4rjukca8q3zJdzNxw0JvF7MscMgJ9IM3wbkwVArYut80SirOgCUHCrs8OGdFABGDp2vpzd+ZJxA583AKbxmubDgHS39z9mPisHDe/QLAK1J52S+Lu+YlS3ADS5037PKdXm6Rxj+rfU5Dce2iI37TPnW399DCAAfUWZBX83WQAUPqcsHtZ5UlFWJAk4VnQrfxE2rIMKgOorNQjepwZBg6Y+6wfBpN9nSQAUu+VPvS5HfXWZZgkQP3dc8ZXm5sov9RarOgXAKYuS44rDOscWJb+z1potvwhAb9Fl0eemC4BaCKhYElWdJxdlhZCAsni9UBafjRLaYQTA6yv19Dn1FLqkE65px8uaACi+Ww68KSdN2yEvvFr3bIDYXCjX/qpRzOoQALVMseOK6V6M6ngtlmty3A83dj1sybTY614fBKBRZFn2mekCcBJn11LAF5+aYntVx4lGGb4k4GdOWexw3Oo3+pcqn4ga2kW39u0o3NVz6L/92Lau59J3H4zy8u8sCoDXd0u3vSqv+fIS3bMBPyu61dv6tS35QH38RhUAp1T7guMKrWPRlTfOldOfeMEayUUA6iPK0vd2CIClcKn2ewg4bm1UFAHw9jXpVigveSX1mmUBUAzVve3/PvUpeX7rNL0iUBJrBwyr/Q8vIMMKQNGt/JbjiqleLOp4Vcsmf2XSerl+91Frkr/qKwTAiyaLXxEAizvPsqp3XSjVdbW2r9mHMyYAlSD+zYDFUJJK/N5xsi4AXjsXbTkkr7pj0RljIETy/UmhLG5sa2t7XxgBUA8l6no4kRs9fr26XzZ6tmxfsd+qxO/1EQJg2QDcqLoIQCMqfBYXgag/A3gDp/eqpozTXA7VGwyTes2LACieW/afkN/+z23y/GHtukVgheOK3V4M+XutPeJvO/9ycOe/r5WdO49YmfxV/yAAcY2SCZaLACQIm0Odpe7TdsqionMwVQ9EmZTSA1GSSvzecfIkAF6b5288JMu3LtAtAamVd+mombKyZK+1id/rFwQgAwM6ApCBTrSuCfLsYll80XHFmzpFYGQKj0T1BsOkXvMoAIqtug30voe3SrUins6YSbqsW769umtZ5KTiJc7jIADWDbw9K4wA9GTCJ8kQGFAWf1TQ/LyHQdd0yAem7Ujl8ahxDrZe2XkVAK/96lZQdUto0ok76vE+N3KGfGz+buu/9Xv9oF4RgGTGyViPggDEipfC+yCgLsgqlKrX635U6qivLZMrnn49UwOuGnTzLgCKgZoNUMmn2FKzQgTG3LdKrn72cOZiEQHoY3Cz4c8IgA29lP06FoZW/z/HFeuiftOq39+bDaj/1mL7ewTg3ecpzFzzohw8Zp6xEpDF+Ks/fxCADIzLCEAGOjEjTVCLtRRLtbGOK35Wn8ijvh89bnnXA2jqBy9b3yMA7wqA6sONe451PSVPraAXNU507n/9uGVyZQZnoOrPGwQgAwMvApCBTsxYE5wh1b8suNVNOgfkS65Tv8Husn4aFgF4rwB4CUmtoKdW0tMZM2HKyvq3fo+3ekUAMjDwIgAZ6MQMNuHc1knnnIrNX4QZiHvb56b7V8nVz9l77zUC0FgAVELasOeYvOcH66VaWa+3/o/z8zzchYIAZGywRQAy1qEZa05/t/oPjiue1jlwN4+cIacs3GPlbAAC0LsAeMmpumyv/MIXZyUmAWpVyglTtnctY+zVIQ+vzABkYLBFADLQiRlvgnoiZKEsxjualhH2ZELNBqx93q711xGAvgVAJd/OXUflXRM7Y5eA4Xctlou3vmKlTEaVFAQgAwMvApCBTsxJE5rcqf9UdMWzXgLX8arWYq8t32fNAI4A+BMAL7lNXbJPXnq9/tmAgVed+ta//4Q1seMx0fWKAGRg4EUAMtCJOWrCwNYZH3Hc6nccV7yjQwBUGeo3Y/VtcZ0FT2NDAIIJgEp2nTv1zgbk+WmU9fKAAGRg4EUAMtCJOWxCU6l2nuOKfbokQJVz+Q1zZPtKs5/MhgAEFwAvaT06b5e8eMT00D8LqGWIx0/e1LUQkVdmnl8RgAwMvAhABjoxp034bGvlvziumKRTArzZAHVFuYmDOwIQXgBUfz6x47D80jdWBpaA0s3z5Nz1LxsZE2nFKQKQgYEXAchAJ+a8CU5ZXOC44iWdIjDkpnly1tqXjBvwEYBoAuAly+ZRMwNJQBaXlfZYhH1FADIw8CIAGehEmnDWoFL7x3TPBvRvqXVN+W7cd9wYEUAA9AiAeiRvEGFc+cwbxsRA2IStez8EIAMDLwKQgU6kCacJOKVas+OKV4IM7n1tq6Z/56wzY/oXAUAAdCfysOUhAKeHHXvfIAD29h01b0ygaXDt444ran0l9iB/92YD1JPowg6YOvZDABAAHXGkowwEoPH4Y9WnCIBV3UVlAxA4NRvwWpBE39e25Vvmy7kbDqYmAQgAAqAjeesoAwEIMBiZuikCYGrPUC8dBPqXKp9wXDG9r8Qe5O9pLgKDACAAOpK3jjIQAB0jVMplIAApdwCHT4RAsVwb4rjiaJBE39e2V9+5SC7ekuwysAgAAqAjeesoAwFIZOiK9yAIQLx8Kd0cAv1bxH9zXLGor8Qe5O9JPwgGAUAAdCRvHWUgAOaMbaFrggCERseOVhKQZzuuaHVccTxIou9r2+Fti+XibfHPBiAACICO5K2jDATAygHwvZW2RQCKQ8U/O27tR44rtjuu2Gnh/885rlhQdKvXFEfO/uB7e4F/JU2g/5Daf3dc8URfiT3I3wdd0yEfnL4j1gsEEQAEQEfy1lEGApD0qBXD8UwXgH5tSz5QcMXEIAOxBds+fV6p+qcxdCdFBiDQ3Fx5f7FUG+u44qc6Y+aL45bLuBaOQQAQAB3JW0cZCECAwcbUTU0XgFNPfgu0apfOwTzGsvZ8ZkjtN0yNizzVq6ml9inHFet19vVF13bIh2Y/r302AAFAAHQkbx1lIAAZGCVNFoD+pfa/dlzxts6B2ayyqt/JQAhlognntk46xymJuxxXvKUzRsbct7LrATQ6BlxVBgKAAOiKpajlIAAZGPpMFoBCSXxL52BsXFll8br6iSMDYZSZJhRbqn9TdMU2nbFyyXUz5GPzd2mZDUAAEICoiVvX/ghABoY9kwXAccVinQOxiWUVh7b/cQbCKFNNULMBp64N0DobcNP9q+Tq545EEgEEAAHQlcCjloMAZGDYM1sAastNTNo669RUqv55BsIok00olsT/dtzaMzr7+9KRM+XjS/aGlgAEAAGImrh17Y8AZGDYM1oASuJBnYOvgWX9pLm58uEMhFFmm6D659RPUVqvRbnj3zpl587gswEIAAKgK4FHLQcByMCwZ7IANJVq5xmYtLXdkVBwxY8zEEK5aEL/FvHpU2tPaOv/y0bPlmL5vkCzAQgAAhA1cevaHwHIwNBnsgAovE5JzMyoBBxlLQC7TqB+11Y+WixVv+e44h1dMVksC/nl76+T63cf9SUCCAACoCuBRy0HAbBr/GpYW9MFYFCp/WOOm7lrAQ6r2Y2GHcKHxhMolqc2Oa7Yp0sCVDlX3DhHdqw60KcEIAAIQNTErWt/BMD4oarvCpouAKoF6qrsglu9znGrW3UOuimUpZ5N/8BnB1d+v++eYQuTCXy2tfJfnJKYrDOGiuWa/NqDG+XGPcd6FQEEAAHQlcCjloMAmDxC+aybDQJQ35R+pckfUk91G1AWf2TT/4WWyq/Xt4P32SBQLFUHOq54SacIDLlpnpzV+VJDCUAAEICoiVvX/ghABsYw2wQgA8hpQsYInPyZSkzSKQH9W2py/ORNcuO+4+8RAQQAAdCVwKOWgwBkYCBDADLQiTTBCAJFV3zOccUhnSIw9OZ5cnbny6clAAFAAKImbl37IwBGDDvRKoEAROPH3hCoJ9A0uPZxx60KnRLgzQZs2necZwG8gADoSuBRy0EA6s98S98jAJZ2HNU2mkChJAYXXPGGThEYdvtCOWHK9kDrEIy+d8Xp2YOoA36W9r901MxAHON6vLPNTBEAo4cgf5VDAPxxYisIBCXQv1T5hOOKDp0SELQsBKDxjAEC0JhLECFBAIKOCAZujwAY2ClUKVMEiuXaEMcVR4Mmbx3bIwCNEx0C0JgLApCpoafvxiAAfTNiCwhEJaBuXXVcsUhHUg9SBgLQONEhAI25IABRz3TL9kcALOswqmsxAXm244pWxxXHgiTxKNsiAI0THQLQmAsCYPHwEqbqCEAYauwDgfAEmoZV/tBxxdIoid3vvghA40SHADTmggCEP6+t3BMBsLLbqLTlBNra2t53ajbghN9kHmY7BKBxokMAGnNBACwfWIJWHwEISoztIaCPQNGt/IXjis4wyd3PPghA40SHADTmggDoO7etKAkBsKKbqGSGCfRrW/KBYqk21nHFz/wk9SDbIACNEx0C0JgLApDhgaZR0xCARlT4DALJE+hfav9rpyS2BEnwfW3bPHKGrC3fx2JA3VYQRACiCcDCzYdk+Zb5gRZTUj95JX9WccQzEkAAzoiHP0IgUQLq0denZgPe6iu5+/17sSzkXRM75brdRxGBUyKAAIQTgC0H3pQPTNshL7i6I2jyV9sjAImOJj4OhgD4gMQmEEiYQKGl/e8dVzztN8n72e7yG+bI9pX7kYAX3pQIQHABWLr9VTni7qVhEr+3DwKQ8DjS5+EQgD4RsQEEUiHQ3Fz5sFOu3e+44m0/Cd7PNsVyTY57cKPcsPdYrkUAAfAvAOpb/6TaM2G/9XvJXzpudWgqJxIH7Z0AAtA7G/4CARMIOOXaPzplscNPgve7zRU3zpHTn3ghtxKAAPgTgJU73pCjxy2vS+Ii9PtCaer/NeF8og51BBCAOhi8hYChBJoGP/zLBVdMdFzxjt8k39d26jHDX//RFqkeMxzk6oSQigIAABhDSURBVO8sbIsA9C0AP5y+Qw4aHuq3/kaS8NrA1hkfMfT0ym+1EID89j0tt49AoVwb0VdiD/p39+b5cu6Gg7mSAASgdwHQ+a3/dCyWxF32nW05qDECkINOpomZIVAsVQeeHlTd8NOx3csYMKxdfuuxrXLz/hO5EAEEoLEAPDzneXnxtdMbfYMP/1mpNk+tdZGZkzBLDUEAstSbtCXrBOISAE8IrrpjoVywKfuzAQjAewVg9bOH5Zj7VoVP8o1l9G3HrX5D3dqa9fPS2vYhANZ2HRXPIYG4BUCJwMCrpskJU7bLLRmeDUAA3hWAx5fslZeOnKk7+e8ulMW/5PAUtavJCIBd/UVt800gCQHwZgNa71wkF205lMmfBBCAN2XnrqNdC0R5/a3pVV2kOumCcsev5PtMtaT1CIAlHUU1IXDWWWclKQAqIZzfemo24EC2rg3IuwBUl+6Tn79+lt5v/SXxYpNbO58T1SICCIBFnUVVc08gaQHwvhUOb1ssF297JTOzAXkVgM6dR7q+9avlob2+1fJaFpVCS+XXc3+C2gYAAbCtx6hvngmkJQAqSQy6pqNrHXi1MpztawHkUQDUwk9qASgtCf/URX9FV7xcLFUH5fmctLrtCIDV3Uflc0YgqACopwGeP6xd66B//bhlcuUzb1gtAXkSgPW7j8q7v79OxvCtf8pnhtR+I2enYLaaiwBkqz9pTbYJBBWA0feu6Lqtb9jtC7VKgFohTj0VztaZgLwIwIw1L8orx8zV2vdOWbzuuNUrs32m5aR1CEBOOppmZoJAGAFQSVot8KNu7VML/uicAv7iuOVWzgZkXQDUw57GT94kiy01rf3tuGLWeeWOT2biZKIRZ52FABAFELCHQFgB8L6pz994SJZvXaA1KVx0bYf80aznrJoNyLIAqGWdy7fM19rHjisOO67gcb72DBX+aooA+OPEVhAwgUBUAVAisGn/cXn/I1u1fzu86f5Vcs1zR6wQgSwKgOrXrlmeFr2zPI4r5haHif9qQvxTB80EEADNQCkOAjES0CEA3mzArLUvyiE3zdP6TVFddDhlwW7jJSBrAqBmdlpu0zuz47jVIye/9cuzYwxpik6TAAKQJn2ODYFgBHQKgBKBuH4r7poNeN7c2YCsCIB3bYfuOz2cslhZaKn8SbDoZGvrCCAA1nUZFc4xAd0C4M0GTF/9grzyS3qvFlfry/948V4jZwOyIAALNx+S6uFNOi/qdFzxZrFUG9vW1va+HJ9m+Wk6ApCfvqal9hOISwC6ZgP2nLpyvKzvynF17/ldEzvlut1HjRIBmwVALcSkbsEc2DpNd/J/wilX/sz+s4QW+CaAAPhGxYYQSJ1AnALgzQZUl+2TX/ii3nXiL7thtqyt3G+MBNgqAEu3vyqvvXuJ7sT/E/Wtv7m58v7UA5wKJEsAAUiWN0eDQBQCSQiAEgFvzXid08vebIBamc6TjbRebRMA71v/hVd36E7+mwvl2l9FiUn2tZgAAmBx51H13BFISgC8xDx1yT55qeanxqn16DtWHUhVAmwSgGVPviavu2eZ7sT/80JZjD+3ddI5uTuJaPC7BBCAd1nwDgKmE0haAE7OBuh/brxaoU6tVLdx3/FURMAWAXh03i6pFlrSOhPjim0FV/yt6bFO/RIggAAkAJlDQEATgTQEwJsNeGz+LnnJdTO0JqOhN8+TsztfTlwCTBeAVc+8IW+4d4VW1o4rur71F0fO/qCmcKQY2wkgALb3IPXPE4E0BUCJwBM7Dssx963Umpj6n5oN2JTgbIDJAqC+9V8yYrpWxgVXPOWUxN/l6VyhrT4IIAA+ILEJBAwhkLYAeLMBcSQp9+b5cu76g4nMBpgoAHHIleOKdxxXTBrYOuMjhoQw1TCJAAJgUm9QFwicmYApAqBEII5p6gEt7V3PKdiy/0SsImCaADy+ZK9UCyfp/K3fKYldRbf2/84cUfw11wQQgFx3P423jIBJAuDNBqgnAV44XO+Faq13LpKLthyKTQJMEYDOnfovsPS+9fe7tvJRy8Kb6iZNAAFImjjHg0B4AiYKgBIBdavaiK8s1foN9vzWaV1Pt9tyQP9sgAkCEMctlo4r9jhDp34mfISxZ64IIAC56m4aazkBUwVASUBci9UMb1ssF297RetsQJoC4C2ypBZG0jrlXxaVAZfP/DXLQ5zqJ0kAAUiSNseCQDQCJguA95NAHMvVqnXvJ059qksyvONEeU1LAMTyffKy0bP1Jn5XvOSUxQXRIou9c0kAAchlt9NoSwnYIAAnZwNOxPLAmlFfXS6XP/V65NmApAVgYwwPWuqaPSiLymeG1H7D0nCm2mkTQADS7gGODwH/BGwRAO/b+YJNB7U/snbQ8I4uufCOEeY1SQGYseZFeeUYvY9adlxx0CnVLvYfOWwJgQYEEIAGUPgIAoYSsE0AVHLevP9E18V8A4a1a536/uK45XLlM2+Emg1IQgA27D31eOUWfY9XPnXNwNSiW/ktQ0OUatlEAAGwqbeoa94J2CgA3jf0+RsPyfKtC7RKwKBrOuTkmc8FloC4BWBW50tyyE3ztLa14Io3HFe05v0coP0aCSAAGmFSFARiJmCzACgR2LT/+MnZgBa9swE33b9KrnnuiG8RiEsA4mqfUxZzzh9S+d2Yw4vi80YAAchbj9NemwnYLgDebEAc35A/N3KG/M8Fu31JQBwCEMcMh+NWj/Ct3+Yz1vC6IwCGdxDVg0AdgawIgBKBuH4j75oNeP7MswE6BSCuaxyKrpjf5E77vbru5y0E9BJAAPTypDQIxEkgSwLgzQbEcZV886iZ8vFFe3qdDdAlAHHc5eC44kSxVBvb1tb2vjhjibIhcBYCQBBAwB4CWRQAJQJx3Sd/24Q1ct2uoz1EIKoAqOWJH5i2Q6oFirSu5ueKVeeVqn9qT0RSU6sJIABWdx+VzxmBrAqANxsQx0p5l90wW9ZW7n+PBEQRgDhWOnRc8RO+9efsZDahuQiACb1AHSDgj0DWBUCJQBxr5at19++a2CnX7z45GxBGAOJ61kHBFWuaStU/9xcBbAUBjQQQAI0wKQoCMRPIgwB4swFxPC3v8hvnyI5VB2RQAVDXKeh+2qHjirfU+NvcXHl/zGFD8RBoTAABaMyFTyFgIoE8CYASgTXPH5E3f2u11t/Ziy012T/g6nwDr9L+W/+Gppbap0yMMeqUIwIIQI46m6ZaTyBvAuDNBjy+ZK+8dORMrSKg+eI9v3X7eaEsxjc3V37J+mCkAfYTQADs70NakB8CeRUAJQJP7Dgsx9y30m+iNXG77f3L1f+Vn2ilpcYTQACM7yIqCIHTBPIsAN5swKPzdslLRkw3McH3Vqe3Hbf6neLI2R883ZG8gYAJBBAAE3qBOkDAHwEE4M2u2/lWPfOGvOHeFb0lXJM+39m/RXzaX++yFQQSJoAAJAycw0EgAgEE4KQA1M8GXHRth0kJ36vLO44rJjUNfviXI3Q3u0IgXgIIQLx8KR0COgkgAO8VACUCy558TV53zzIv8ZrwurtQFv+is98pCwKxEEAAYsFKoRCIhQAC0FMAlATEtUhPwDsFur71X1Du+JVYOp9CIaCbAAKgmyjlQSA+AghAYwHwfhKIaZnevmcVSuLFJrd2fnw9T8kQiIEAAhADVIqEQEwEEIAzC0D9bEAMD+ppLAJlUSm0VH49pi6nWAjERwABiI8tJUNANwEEoG8B8GYDFm4+JK+6Y2HjpO2KyJ8XXfFysVQdpLuPKQ8CiRFAABJDzYEgEJkAAuBfAJQIbN5/Qk6Ysl2eP6w9csJ/z/UAZVEZ2DrjNyN3KAVAIE0CCECa9Dk2BIIRQACCCYA3GzB/4yHZctuC6BJQFq87bvXKYL3G1hAwlAACYGjHUC0INCCAAIQTgPrZgAEtoWcDZp1X7vhkg27hIwjYSQABsLPfqHU+CSAA4QXAmw2YtfYlecHVQRcP4lt/Ps+4jLcaAch4B9O8TBFAAKILgBKBS0cFe7JgpoKIxkDAI4AAeCR4hYD5BBAABMD8KKWG1hAILABu7UmnLCr8DwNiIJUYWPmeq9H7uJ1t9L0ruh6e401/83pSIJgBsCZFUdE4CQQXgOj3zwYZwNgW3sRA+BhAABrPGCAAcWYVyraGAAIQfnAlMcHO9BhAABAAa5IRFU2eAAJAEjM9iVG/8DGKACAAyWcVjmgNAQQg/OBKYoKd6TGAACAA1iQjKpo8AQSAJGZ6EqN+4WMUAUAAks8qHNEaAo4rbmGADT/Awg52JscAAoAAWJOMqGjyBIrl2hUmD2DUjQRLDISPAQQAAUg+q3BEawgU3cpvOa74KYNs+EEWdrAzNQYQAATAmmRERdMh4JRqXzd1AKNeJFdiIHwMIAAIQDpZhaNaQ+Dc1knnOK6YxUAbfqCFHexMjAEEAAGwJhFR0fQINDdX3u+Uq2McVxw0cSCjTiRYYiB4DCAACEB6WYUjW0dAiUD/Uvtfdz10pFRrdvgfBsSAMTFQLNXGBhEhBAABsC4JUWEIQAACEOhJoGlo+7kIQOOkHuRBRzwLoGds8QkEIAABCBhMAAGInvyVKCAABgc5VYMABCAAgZ4EEAAEoGdU8AkEIAABCGSeAAKAAGQ+yGkgBCAAAQj0JIAAIAA9o4JPIAABCEAg8wQQAAQg80FOAyEAAQhAoCcBBAAB6BkVfAIBCEAAApkngAAgAJkPchoIAQhAAAI9CSAACEDPqOATCEAAAhDIPAEEAAHIfJDTQAhAAAIQ6EkAAUAAekYFn0AAAhCAQOYJIAAIQOaDnAZCAAIQgEBPAggAAtAzKvgEAhCAAAQyTwABQAAyH+Q0EAIQgAAEehJAABCAnlHBJxCAAAQgkHkCCAACkPkgp4EQgAAEINCTAAKAAPSMCj6BAAQgAIHME0AAEIDMBzkNhAAEIACBngSCCsA1X14itxw4Ibe+oCdxZqWcS0fNlI4rfP/fsyf4BAIQgAAEIJAggaACoJLc8LsWy8VbX0EC6iQIAUgwaDkUBCAAAQhEJxBGAJQEDGydJidM2c5swCkJQACixyIlQAACEIBAggQKrvjbIFPX3bcd9dXlcsXTr+d+NgABSDBoORQEIAABCEQn8NnBld/vntSD/nvQNR3ygWk7ci0BCED0WKQECEAAAhBIkEBzc+X9RVe8HDTpN9r+hntXyFXPvJFLEUAAEgxaDgUBCEAAAnoIOK74WqOEHuazS0ZMl4/M3Zk7CUAA9MQipUAAAhCAQIIEBrbO+Ijjiu1hEn5v+4y9/wm55rkjuREBBCDBgOVQEIAABCCgj8BnhtR+w3HF4t4SepjPm0fOkFMW7smFBCAA+mKRkiAAAQhAIHEC8mzHFa2OK46HSfi97XPT/avkmuezPRuAACQerBwQAhCAAAR0EygObf9jxxUrekvoYT5vHjVTPr4ou7MBCIDuKKQ8CEAAAhBIhUC/tiUfKJZqYx1X/DRMwu9tn9smrJHrdh3N3M8CCEAqYcpBIQABCEAgLgJNLbVPOa7Y0FtCD/P5ZaNny/YV+zMlAQhAXBFIuRCAAAQgkBqBc1snnXNqNuCtMAm/0T7FspB3TeyU63ZnYzYAAUgtPDkwBCAAAQjETaDQ0v73BVc81Sihh/3s8hvnyI5VB6yfDUAA4o4+yocABCAAgVQJ9CtN/lChLMY7rvhF2KTffb9iuSbv+cF6uXHfcWtFAAFINSw5OAQgAAEIJEXAKdf+seiKZ7sn8yj/Hjp2vpzd+ZKVEoAAJBV5HAcCEIAABFIn0Nxc+fCp2YC3oyT++n37t9Tk+Mmb5CbLZgMQgNTDkQpAAAIQgEDSBApl8VnHFfvqE3nU96Wb58m561+2ZjYAAUg66jgeBCAAAQgYQaB4xaO/6rhiUtTEX7//gJb2k7MB+82/NgABMCIMqQQEIAABCKRFoFhuLzquOFCfyKO+v+r2hXLh5kNGzwYgAGlFHMeFAAQgAAFjCAwqtX/MKYuHoyb++v0HXjVNTpiyXW7Zf8JIEUAAjAk/KgIBCEAAAmkTcEq1ZscVr9Qn8qjvh9+1WC7e+opxEoAApB1tHB8CEIAABIwi0DS49vFCWbRHTfz1+5/femo24IA5swEIgFFhR2UgAAEIQMAUAqdmA16rT+RR34+8Z5lc9uRrRswGIACmRBr1gAAEIAAB4wgUWsXvFN3qjKiJv37/Qdd0yAem7UhdAhAA48KNCkEAAhCAgFkE5NmOK1odVxyrT+RR318/bplc+fTrqYkAAmBWlFEbCEAAAhAwlIBTav8Dx60tiZr46/dPczYAATA00KgWBCAAAQiYSOD0bMDx+kQe9f2Y+1bJ1c8eTnQ2AAEwMb6oEwQgAAEIGE2gOLT9jx1XrIia+Ov3/9zIGfKx+bsTkwAEwOgQo3IQgAAEIGAqgX5tSz5QLNXGOq74aX0ij/r+pvtXydXPHYldBBAAUyOLekEAAhCAgBUEmlpqn3JcsSFq4q/fv3nUTPnjRXtilQAEwIrwopIQgAAEIGAygXNbJ51zajbgrfpEHvW9mg1Y+/zRWEQAATA5oqgbBCAAAQhYRaDQ0v73jiuejpr46/e/bPRsWVu+T7sEIABWhRaVhQAEIAAB0wn0K03+UKEsxjuu+EV9Io/yvlgW8q6JnXLdbn2zAQiA6ZFE/SAAAQhAwEoCTrn2j0VXPBsl8Xff9/Ib5shpKw9omQ1AAKwMKyoNAQhAAAI2EGhurnz41GzA292Tedh/e7MBG/YciyQCCIANEUQdIQABCEDAagJNpdp5jiv2hU36jfYbOna+nLX2pdASgABYHVJUHgIQgAAEbCFQvOLRX3VcMalRMg/7Wf+Wmhw/eZPcuO94YBFAAGyJHOoJAQhAAAKZIFAstxcdVxwIm/Qb7Ve6eZ6cs+7lQBKAAGQinGgEBCAAAQjYRGBQqf1jTlk83CiZh/1sQEt712zApv3+ZgMQAJsihrpCAAIQgECmCDilWrPjilfCJv1G+111+0K5cPOhPmcDEIBMhRKNgQAEIAAB2wh8ZljHbxfKor1RMg/72cCrpskJU7bLLftP9CoCCIBtkUJ9IQABCEAgkwROzQa8FjbpN9rv6jsXycVbXmkoAQhAJsOIRkEAAhCAgI0ECq3id4pudUajZB72s/NbT80GHHjvbAACYGOEUGcIQAACEMgwAXm244pWxxXHwib9RvsNb1ssl2x79fRsAAKQ4RCiaRCAAAQgYC8Bp9T+B45bW9IomYf9bNA1HfKBaTvklgNvSgTA3tig5hCAAAQgkHECbW1t7yuUxY2OK34SNuk32m/0uOXyoms7ZKO/9fZZxlHTPAhAAAIQgIB5BIpD2//YccWK3pJzEp+bR4UaQQACEIAABHJAoF/bkg8US7Wxjit+mkTC736MHCCmiRCAAAQgAAFzCTS11D7luGJD9wQd97/NJULNIAABCEAAAjkhcG7rpHNOzQa8FXfi98rPCVqaCQEIQAACEDCfQKGl/e8dVzztJek4X82nQQ0hAAEIQAACOSLQrzT5Q4WyGO+44hcIQI46nqZCAAIQgAAEFIEmd+o/FV3xbFwSAGUIQAACEIAABAwlMLB1xkdOzQa8rVsEDG0y1YIABCAAAQhAwCPQVKqd57hin04J8MrmFQIQgAAEIAABgwkUr3j0Vx1XTNIlAQY3lapBAAIQgAAEINCdQLHcXnRc8UJUEeheLv+GAAQgAAEIQMBwAoNK7R9zyuLh0BJQFq8b3kSqBwEIQAACEIBAbwScUu0LjiteDSECnb2VyecQgAAEIAABCFhA4DPDOn67UBbtwSSgNsqCplFFCEAAAhCAAAT6IlBwa67jisM+RGB70+CHf7mv8vg7BCAAAQhAAAKWEPjs4MrvO66Y26sElMSWJnfa71nSHKoJAQhAAAIQgEAQAkVXfM4piZmOKw6d+n9poVwboR46FKQctoUABCAAAQhAAAIQgAAEIAABCEAAAhCAAAQgAAEIQAACEIAABCAAAQhAAAIQgAAEIAABCEAAAhCAAAQgAAEIQAACEIAABCAAAQhAAAIQgAAEIAABCEAAAhCAAAQgAAEIQAACEIAABCAAAQhAAAIQgAAEIAABCEAAAhCAAAQgAAEIQAACEIAABCAAAQhAAAIQgAAEIAABCEAAAhCAAAQgAAEIQAACEIAABCAAAQhAAAIQgAAEIAABCEAAAhCAAAQgAAEIQAACEIAABCAAAQhAAAIQgAAEIAABCEAAAhCAAAQgAAEIQAACEIAABCAAAQhAAAIQgAAEIAABCEAAAhCAAAQgAAEIQAACEIAABCAAAQhAAAKpEPj/AQtuarXGf6qKAAAAAElFTkSuQmCC;" vertex="1" parent="1">
          <mxGeometry x="630" y="400" width="70" height="70" as="geometry" />
        </mxCell>
        <mxCell id="SUx3mmpvgNjhCRliXCZC-10" value="main.tf" style="shape=image;verticalLabelPosition=bottom;labelBackgroundColor=default;verticalAlign=top;aspect=fixed;imageAspect=0;image=data:image/png,iVBORw0KGgoAAAANSUhEUgAAAgAAAAIACAYAAAD0eNT6AAAAAXNSR0IArs4c6QAAIABJREFUeAHtvQeYHdWVrr06B6mlVmq1YktqFGjlnEBIyEIIBCIIEEEyQigAJsgWyYFoQOQcBJggEQRCILJIxjbxv3c8d4LveK7nmZk7vr6+Htvj8YztMYPtWT+7pZK726e7T9XZVWfXrlfPo+d0n66w91frrO/d61TtLcI/FEABFEABFEABFEABFEABFEABFEABFEABFEABFEABFEABFEABFEABFEABFEABFEABFEABFEABFEABFEABFEABFEABFEABFEABFEABFEABFEABFEABFEABFEABFEABFEABFEABFEABFEABFEABFEABFEABFEABFEABFEABFEABFEABFEABFEABFEABFEABFEABFEABFEABFEABFEABFEABFEABFEABFEABFEABFEABFEABFEABFEABFEABFEABFEABFEABFEABFEABFEABFEABFEABFEABFEABFEABFEABFEABFEABFEABFEABFEABFEABFEABFEABFEABFEABFEABFEABFEABFEABFEABFEABFEABFEABFEABFEABFEABFEABFEABFEABFECB2BWYJCLbReRHIvJ7EVH+owExQAxkKAZ+LSIficgXRKQy9ozLCVDAEQUuxPRJ9BlK9MAtgN9dDPy5iAx2JD/TDBSITYFVJH7MnxggBoiBP4mB71IJiM13OLADClSJyI/54P/JB7+70QF/ZwRJDGQjBs5zIE/TBBSIRYFlmD/mTwwQA8RApzFg7gngHwp4qcAWPvidfvAZ4WVjhMd15jp3FQO/8jLz0ykU+EyBqwAAAIAYIAaIgS5jALNAAS8VAAAY/XQ1+uFvxAcx4GXqp1MoQAWA5IbBEQPEQHcxgFeggJcKUAEg+XWX/Pg7MZL1GPAy+dMpFAAASO5ZT+70n89AdzGAU6CAlwoAACS/7pIffydGsh4DXiZ/OoUCoQDgtNMX6auvXcN/NCAGiIHUxkDffnVhgQanQAEvFQAASOSpTeTAKDAeJQYAAC+9jE5FUAAAAAAAAGIgUzEAAERwCnbxUgEAgOSfqeQfZcTIPn5VGgAAL72MTkVQAAAAAAAAYiBTMQAARHAKdvFSAQCA5J+p5M9o3q/RfJTrCQB46WV0KoICAAAAAAAQA5mKAQAgglOwi5cKAAAk/0wl/ygjRvbxq2oAAHjpZXQqggIAAAAAABADmYoBACCCU7CLlwoAACT/TCV/RvN+jeajXE8AwEsvo1MRFAAAAAAAgBjIVAwAABGcgl28VAAAIPlnKvlHGTGyj19VAwDASy+jUxEUAAAAAACAGMhUDAAAEZyCXbxUAAAg+Wcq+TOa92s0H+V6AgBeehmdiqAAAAAAAADEQKZiAACI4BTs4qUCAADJP1PJP8qIkX38qhoAAF56GZ2KoAAAAAAAAMRApmIAAIjgFOzipQIAAMk/U8mf0bxfo/ko1xMA8NLL6FQEBQAAAAAAIAYyFQMAQASnYBcvFQAASP5eJP8XX7pSt1y8UhcunKTjxzfpzFlj9IzVh+v2HVu86F+UkS775K52AABeehmdiqAAAAAApN4gH3r4Qm1qalAR+ZP/lZXlev75x6a+j5h5bjOPogsAEMEp2MVLBQAAACDV5vjkU5do3751f2L8HWHgos3Hp7qfUYyOfXJDAwDgpZfRqQgKAAAZA4AdOy7WZ5693BszPOSQ8d2av4GB2toqfXrnZd70G3PPbe756AIARHAKdvFSAQAgAwBgRslHHz1L6+pqDpilSYIrTzpUn9315dSa4g1b1x7oT8cRf67fzz13eei+Pr59ix67Yo4ObOzTeq7q6kqdOGmkXnb5yaGPlY85sU10Y89XOwDASy+jUxEUAAA8B4CrrjpD63rVdmqUDQ31+vA3Lkqdmb38ylU6clRjp/3KBQBHHDEtVD+/ft3ntUeP6k7PMXPmGN1JVSGUpvmadJzbAQARnIJdvFQAAPAUAIxBnnLKAi0pKenUwAKTHDq0v76w54pUJfLzvnBMt/0K+he8Llo0Ke8+bnvwAjWj/WDfzl4HDOitt92+Ie/jxmlsHDu/6gEA4KWX0akICgAAHgKAKflPmjSyW/Nqa2qbNh2VGhMz9zD06qKq0bZfbX8+9bSFefdxzpxxeetXXl6mGzemR7+sgwIAEMEp2MVLBQAAzwDgxpvOyuuu+LbGaH4232unxRhWrJibtzm37eddd52TVx+f2/0VNabedt98fj700Alq9k2LjlltJwDgpZfRqQgKAACeAMArr16ta886QsvKSkMblzG3/v17pcK4Hth2fiRznjb9oLz7d9fd50TS0Ohovk65977z8j5XVk24mP0GACI4Bbt4qQAA4AEAmJL47BAl61yj2UGD+qbCtIyR52p/V++Z0fz9D5yfd/+MgXd1vO7+VlVVoV/84gl5n6+YZpjFcwMAXnoZnYqgAACQcgC4865NBx5R686Yuvq7KV+7bgZXXnV6JGM2j/GF6dueF69QM4NgV3rl87elS6en7ubKMDqldVsAIIJTsIuXCgAAKQYAcyd8RUXhRmXM7NqvrwllkkknfzPX/5Ah/UKbsrlZMMrER4sXTwl9rlxQ0Nw8KJWPWSZ9fZM8HwDgpZfRqQgKAAApBIDdz39VzSNtuQwnynuHLZzotPkbc1i3bmmk/p57XvjJf8z5zCJCbSdOiqJrsI+ZS+CrXz3VeY2TNOFingsAiOAU7OKlAgBAygDA3AQ3fPiASGYYGFLbV1P6N6PrYibk7s5tHms0U/m2bXc+P48cOVDNfAjdHb+zv5ubAfv06Rn6vLnaZuZjOOGE+frSy9Hb01k7eT+/5/8DnQAAL72MTkVQAABIEQCYUWRXM9PlMp7O3jNPC6xdu0TN0wNBYnT19Yil0yKZsJnJr9A+PfnUpTplanOk8+fSfsyYIfroY18suF2F9ivL+wMAEZyCXbxUAABIAQCYm9LMjWy5DCXKe/369dKbbzk7FSZkRuH5zGbYUYf581us9c9UEU47fVGkdnRsl/nd3Jdw7bVu33PhMyAAAF56GZ2KoAAA4DgAPPb4l3TcuGHWzN9M+PPEk5dYM8e4jWLChBGh+25ujHzoYfvrG5inEHr2/OOCSrnMPd/3DNSYxZjSUIGJ+xonfXwAIIJTsIuXCgAADgNA60I+bVbwy9dccm0XGE4h34knnagvueSk0OZv+n7KqsNiAxwDZGPHDo3UrlzXZfLkUWrucUha2yyfDwDw0svoVAQFAAAHAcB2ydmsBnj1NatTZTIv7PmampUKc5lmV++Zm/Z2PRfvdLy2v5IxszDecms6vpLxARwAgAhOwS5eKgAAOAYATz19qU61eNPZQQcN1kce2Zwq8zcmY75z78roO/vbl7acmFhft2w5Ma8VAztra9v303RTZtohAADw0svoVAQFAACHACDqQj5tjaTtz0cum+H8I365zOTx7VsiGau5VyLp79S3bbtAm5oaIsFK22sV/GxWIXx215cTg5hc+vv+HgAQwSnYxUsFAAAHAMCY1oaNyyItchMYR9vXmppKvfTSk1JrIgsWTAhtqOYeh9tu31CUPpsVABccNjF0m9tes7Y/Dx7cT++5lwWF4gIRAMBLL6NTERQAAIoMAOb7avPIWlsDKOTnocP66333f6EoRmgjYZvvwqM89rf4c1OK3ufzzz/WGsSZtQjOv2BF0ftk45q6dgwAIIJTsIuXCgAARQQAsz59Y2Mfa+a/6PDJaqYJdi3h5tseUwkZPXpIaD1MxWPHjoud6Pcdd260sjhTAIGHHz5Zn3/ha070Ld/r6Pp2AICXXkanIigAABQJAL74pRO0srIitNkFxtD21Tz3br5CcD3xdtc+M+Jt2698f/78mZ9zqu87d16m06ePjtSXXH0eNaoxlnkNursevv4dAIjgFOzipQIAQMIAYB5vO+KIaFPb5jKHAQN6F+27b5sGYb5HjzLvvqmgvLDnCqcAwOhiqhlmquXS0lIrIFBTU6WXX36Kc/20GQNJHQsA8NLL6FQEBQCABAFg24N27xifNWtspKVuk0q0Yc5jFsrJBTjdvef6Kns3bF0bCWw663dan+wIEwtxbwsARHAKdvFSAQAgIQC4+JKVar6r7iyxh3nfjCrNc/JJP/IWV2I20/aarzHCaGC2NbPoxdUmm8c1Swu3tAwP3b/O9GBBoXCr/3W8lgCAl15GpyIoAADEDAC2Z42rr++h11lY5a5jUizm7zNnjQltjgaC0vSonFkG2Mz9H+UJh1wgwIJC0SEAAIjgFOzipQIAQIwAYHshH7Mwzo4n3Ljb3RYwGJjJZXDdvbd8+exUjP476vS1K06ztqRzsL6DL5WgjlrF9TsA4KWX0akICgAAMQHA1q1rra4cd/LJCzRNC/nkk7xffOlKHTZsQGgAMCvymTvt8zmHi9s89PCFOnLkwND97gyKzBMHz+1O7+OfSV8jACCCU7CLlwoAADEAgHkW3NYjfnV1NWqWoU06SSZxvvUblkUywY0bj0q9HuZpkM8tmRqp/7lAYPyEJjVfMyRx3dJ+DgDASy+jUxEUAABiAIDm5kFWEruZFOeRR7/oZVI3ix716FEdWqfhwwd4ZXQXXnicmln/cpl62PfWnb3Uy1ixDRwAQASnYBcvFQAALAOAmY8+bOLOtf3RR89ScwOh7eTnyvGWHTUzkk7Xfn2Nd5rcfc+5OmhQ30h6tI2dgY19vHkyJM44BQC89DI6FUEBAMAyAGzadFRBidx8dXDhRcd5Z3JtE/o995wbaYIcs1Je2+P49LNZE+KQQ8cXFDsGBswjhz7pEkdfAIAITsEuXioAAFgGgNWrFxeUxMePb0r1DW75JOyJk0aG1qi8vMz76XDNzYHmno+2o/qwP6fp0ch8YiWObQAAL72MTkVQAACwDACbNx9fUAI3Cb+hoV7NjYRxJL9iH/PyL58SSZ8TVx7ipR7B9fjKV1ZFuieiLSCYxwLNvRXBMXnNPVcAABDBKdjFSwUAAMsA8ORTl2hZWeHzv5uZ8b7whWO8SubmzveBA+tDA4BZI8CUyH00NPMo5PHHz7MyQdCYsUO91Mj2dQcAvPQyOhVBAQDAMgCYZGUSetuRWSE/L1o0KdVL/LZN3mesPjySLhdtPt5LY7M9RfBVV53hpU5tY8jGzwBABKdgFy8VAABiAABz9765Ya0Q42+774gRA9V8P2wj+RXrGMbsqqvDr4Vw0EGDvbyz3cyAaKZ1bnudC/nZrA1RrGubtvMCAF56GZ2KoAAAEAMAmITYOvf7ykOslHaNMdTWVqnrK991ZQSmkhHW4Mx32jffcrZXxmam7TWVEFvLBJs5BHz7qqirOLLxNwAgglOwi5cKAAAxAUCQqMwsfmbq2rDml2t7Y4jHrpij5nvj4PhpeL311vWRQMhAQxr6l28bzfTFM2aMthILJj4GDOitZt6JfM/PdvtuCgQAvPQyOhVBAQAgZgAwSdcsCmRu0Mpl6lHeM9O+7tiRjkWBzIg3St/NfAhGN19M6867NqmZqCfK9c61z+zZY/WZZy/3Rp8krzMAEMEp2MVLBQCABADAJDfbywL37t1Dr7v+TOcNwNzAl8vAunvPlMmTNIU4z3X++ceqmceguz7n83fzhIn5vp8VAHM/4pfPdQQAvPQyOhVBAQAgIQAIEtOWLSdGuhkulzm4bgbP7f6K9u1bF9r4TGn7+Re+lnoAMCv0LThsYuj+57rW5r1+/XrpTTevS70uwWehWK8AQASnYBcvFQAAEgYAk/Qe2Ha+mkVtOkv0Yd835eBnd33ZOWNYedKhkfp4+eWnONeXsGa1bdsF2tTUEKn/ua7/pEkj9YknL0m9LmF1jGN7AMBLL6NTERQAAIoAACapmdHxoYdOsGYQgwf3U5emgf3GI5vVTGaUy8y6eq+lZXjqy9tbLl5prcpjbvw0IPXyKyz1awsGAIAITsEuXioAABQJAIJkZvP7YfNImFleNjh2MV+jzINgzM7cLFfMdhdybtv3efTqVavXXLs6tXoUomWc+wIAXnoZnYqgAABQZAAwie72Oza2zv/f1cg4zN8OP3yymml340yiXR37+hvODD3yN/0zSwR3dVyX/2aeWBhr8UmPMWOG6COPfjG1erh8rQCACE7BLl4qAAA4AAAmWT698zKdNu2gSMaZCw6aDxqkjzyyOXEDMaVqM3NhrjZ19Z6Z6Cit33GbuR4KXcUv0Catcz24bPgd2wYAeOlldCqCAgCAIwBgkpR5tGvt2iWRJs0JDKTta12vWr36mmRLyJs2HRXa/E2bz15/ZOKw0tEYwv5uYMc8kmdMu63uUX82EOTDDZBhdUx6ewAgglOwi5cKAAAOAUCQCE0J3dY88UneRGYmpjHQEdYABw/u2zpPQtD/NLyaZXenTG0O3dfOtGluHqQPPXxR6iAoDdeqYxsBAC+9jE5FUAAAcBAATMIy3ymPGzfMmsGYx8jMUsUdk6HN35cvnx2pvVddna5V7G686axI8xt0Zv7mng0f5j2wGUtxHgsAiOAU7OKlAgCAowBgEmDrgkIRn6XPZTb9+/dSMy9/HMn1/gfOVzMxUa7zdvXe1KnNsbQnjj6ar2g2bFxmbVY/M92xK09txKGXq8cEALz0MjoVQQEAwGEACBLoJZecpDU14ZfSzWW8xqTNfQbBsW29RrmB0UyPu+3BC6y3xVaf2h5n13Nf0fnzW0IDTq5rYN4bOrS/3nvfeanoe1sdfPgZAIjgFOzipQIAQAoAwCRdY5Q2Z5ZbuHCS7n7+q1YMyCxT3JnRdfX+8cfPs3L+uE3prrvP0UaLC/nMm9/i5MyNcevoyvEBAC+9jE5FUAAASAkAmORp5pY/bKG9ueUNUBQ6AjeT3wwa1Dc0AJjFjFycvrijSZ33hWMizWiYC3zMzIjnnrc8FdDTUQeffgcAIjgFu3ipAACQIgAIkvA55x5t7Xto8/z6XXedE9mUzjxzSWjzN+ZoZkAM+uPq60knR1vLIJf5m6WA77hzo/N9dvVa2GwXAOCll9GpCAoAACkEAJMMb799g5pV83KZTdj3THk7yl3oO564WGtqqkK3YdSoRufntv/aFaeF7ldnus+eM07NI5I2TYxjsRxwhHzPLijQTgEAIKUAYAxg587LdMaM0VaMKsqI/HNLpkY699Ybz3LeDM1z+Z0Zer7vmxsuzzrriNQvbuQbbFABaOcB/JJhBQCAFAOASczm0bQzVh+upaXhH8Fra2Rz5x4cypTN+gVRZsA75NDxoc5TDPMx8yW01SbKz8ZkbrppnfN9LYa+xT4nAJBhx6Pr7RQAAFIOAEEy3bp1rfbp0zOycZnFZ4JjdfdqoGP8+KbQ5zLPvadhgRvzXX0U0w/2mThppJqvR7rTkb9HL+MXoh0A0M4D+CXDCgAAngCASYiPb9+iBx88PJJ5TZkyKm/DuuzykyOd49RTF+Z9jkISfKH7PvTwhZH6Zyoipo9mjYBC28D+8cEBAJBhx6Pr7RQAADwCAGMaL750pa44bm7o8vyqVYflbVrjJ4Qf/ZtZCG3NOxC3ORoD79u3LhQE9OpVq9deuyZvDePuA8fvHCAAgHYewC8ZVgAA8AwAgsR/+ZdPUbO6XFCW7uq1qqpCH30sv7XnDWCYGfy6Ol6uv225eGWqzHH16sV593HcwcNa124ItOe1c/N1QRsAIMOOR9fbKQAAeAoAJtE++NCFOmLEwC6NzJStwzwBYB5ny2XwXb1nvpYw9w24kPzzbYOZ4KilpeuvU4x2ptpioCjf47Jd8eEAAGjnAfySYQUAAI8BwJiNeb7frNKX6459MwnQxZeEG5kbI6+uzn9dAnPetE6AY+b/X3T45JzaGRMxcwVg6MU39LDXAADIsOPR9XYKAACeA0CQHB/+xkW67uylevTRs/SYY+foli0ntk4tHPw9zOucOePyrgIsWTI19Sb5wLbzde1ZR+iRy2boCSfM10svPUlf2PO11PcrzDX3aVsAoJ0H8EuGFQAAMgIANhO4mYUwV0Wh49cA5sa4J568BKMkxpyKAQAgw45H19spAACQnCMl5/UblnVZBTA3Fl53/ZmRjm0TVjhW+kr0cV8zAKCdB/BLhhUAAACAyCZtvgMfPLjfn4CAmSTo7nvOjXzcuA2A42cbCgCADDseXW+nAAAAABRk1OamQGP2l19+in71a6fqQw9fVNDxMOdsm3MS1x8AaOcB/JJhBQAAAADDJgYyFQMAQIYdj663UwAAIPlnKvknMcLkHG5XMQCAdh7ALxlWAAAAAAAAYiBTMQAAZNjx6Ho7BQAAkn+mkj+jc7dH50lcHwCgnQfwS4YVAAAAAACAGMhUDAAAGXY8ut5OAQCA5J+p5J/ECJNzuF1lAADaeQC/ZFgBAAAAAACIgUzFAACQYcej6+0UAABI/plK/ozO3R6dJ3F9AIB2HsAvGVYAAAAAAABiIFMxAABk2PHoejsFAACSf6aSfxIjTM7hdpUBAGjnAfySYQUAAAAAACAGMhUDAECGHY+ut1MAACD5Zyr5Mzp3e3SexPUBANp5AL9kWAEAAAAAAIiBTMUAAJBhx6Pr7RQAAEj+mUr+SYwwOYfbVQYAoJ0H8EuGFQAAAAAAgBjIVAwAABl2PLreTgEAgOSfqeTP6Nzt0XkS1wcAaOcB/JJhBQAAAAAAIAYyFQMAQIYdj663UwAAIPlnKvknMcLkHG5XGQCAdh7ALxlWIBQATJnarGvXLuE/GhADxEBqY6C2tkpFJMz/DFsEXfdZgVAAEPJDE+YDxrbhEhJ6oRcxkFwM+OwB9C3DCgAAySUREjZaEwPpjIEMWwRd91kBACCdCQkj4boRA8nFgM8eQN8yrAAAkFwSIWGjNTGQzhjIsEXQdZ8VAADSmZAwEq4bMZBcDPjsAfQtwwoAAMklERI2WhMD6YyBDFsEXfdZAQAgnQkJI+G6EQPJxYDPHkDfMqwAAJBcEiFhozUxkM4YyLBF0HWfFQAA0pmQMBKuGzGQXAz47AH0LcMKAADJJRESNloTA+mMgQxbBF33WQEAIJ0JCSPhuhEDycWAzx5A3zKsQCgAmHdwL73kxKH8RwNigBhIbQw09qkMC08Ztgi67rMCoQDgilXD9Pcvzuc/GhADxEBqY2Bac08AwGdXo295KwAAkMhTm8iBUWA8SgwAAHn7Axt6rgAAAAAAAMRApmIAAPDc1ehe3goAACT/TCX/KCNG9vGr0gAA5O0PbOi5AgAAAAAAEAOZigEAwHNXo3t5KwAAkPwzlfwZzfs1mo9yPQGAvP2BDT1XAAAAAAAAYiBTMQAAeO5qdC9vBQAAkn+mkn+UESP7+FU1AADy9gc29FwBAAAAAACIgUzFAADguavRvbwVAABI/plK/ozm/RrNR7meAEDe/sCGnisAAAAAAAAxkKkYAAA8dzW6l7cCAADJP1PJP8qIkX38qhoAAHn7Axt6rgAAAAAAAMRApmIAAPDc1ehe3goAACT/oiT/X++aq+/fOElfv2q8/t2D04vSBkb2fo3s872eAEDe/sCGnisAAAAAiZrvb56b27qMbH2P8nYrso0bWqN7vnpwom3J1zDYzi9QAAA8dzW6l7cCAAAAkJjp/tszc3Tm6K6XYj1mVl/90WMzE2sT5u6XuedzPQGAvP2BDT1XAAAAABIz29WLGtqN+kUk5+/96sr1qYvHJtaufEyDbfwBBQDAc1eje3krAAAAAIkY7d8+MF1LS3IbfmcgsHJ+f/3JjlmJtA+D98fgu7uWAEDe/sCGnisAAAAAiRjsbWePzDna78z8g/cbelfoc5ePS6SN3RkHf/cDEgAAz12N7uWtAAAAACRirucvHxQJAAIQMF8f/Pyp2Ym0FaP3w+g7u44AQN7+wIaeKwAAAACJmOr6pY0FAYABgcY+lTwpQLwWHK8AgOeuRvfyVgAAIKEWnFA7G2m1fd8GAATVgDMWNei/7pyTSLvb9oGf/agMAAB5+wMbeq4AAAAAJGKkNgHAgEBTQ5W+de2ERNqO8fth/MF1BAA8dzW6l7cCAAAAkIiJ2gYAAwElJaLmuL98hmpAYG68dg8rAEDe/sCGnisAAAAAqQWA4CuBUY3V+u71ExPpBwbbvcG6rhEA4Lmr0b28FQAAAIBEjDOOCkAAAObVzDFgzvHvz85NpD+umxzt6xxUAIC8/YENPVcAAAAAEjHMuAEggIGWYbX68S2TE+kTJtu5ybqsDQDguavRvbwVSA0A/OLpOfqdrRN112XjdOclY/kfswavXNGi//O+adaMNCkAMCBQXlaiXztlmP72+XnW2u+yodG2cCACAOTtD2zouQLOA8D/eWymmse+KstLCn6OPBgl8pr/lLyjB9dYmZc/SQAIru+UUT30L+6aCgRQ5WoXAwCA565G9/JWwGkA+P7903RIv0qMv5NFcwKjS+L10hOHtkuiYUedxQAAo4sBx6+vbtJPqAYUdP3CXm+XtwcA8vYHNvRcAWcBwCTsluG1mL8D5h8AxtMFrNBXLAAI2j5rTJ1+7157X2m4bHC0reuvBAAAz12N7uWtgLMA8PjmMZi/Q+ZvjHTM4JrIo8iwADB3/XnaMPZgqzFQU1mqt6wbqZ/u6dogMFC/9QEA8vYHNvRcAWcB4ORD+ltN/sFIkNf8v//PpVXUGwPDAsBRX79FN735gc46c4OWlpdbjYVDWnrpD7ZNjwwzAEK6AQEA8NzV6F7eCjgLAHPH1VlN+rnMjPfCw8Deq8dHMs4oAHDuOx+r+X/ytu3ab9RBVuOhZ3WZ3rOpWX9HNSDS9UwzBAEAefsDG3qugLMAcMTUeqsJH7MPb/a5NPvw5kmRDKMQADAQsOmN93T6aWdqaVmZ1bhYPLle/+HhGZH6lGYTzHLbAQDPXY3u5a2AswBwxanDrSb6XGbGe+GgwIyaf70r2kx7hQJAUA1Yee8j2mf4CKux0au2TO8/l2pAVqAAAMjbH9jQcwWcBYAfPjpTa6tKrSZ6DD+c4XfU66JjB0d5bhpzAAAgAElEQVQeKdsCAAMCG1//jk5dtVpLSu3Gx9JpffSfHpkZuY9ZMdC09xMA8NzV6F7eCjgLACbJmFFZRxPi98JMPKp+ZopdMxtj1ORvEwCCasDxdzygvQcPsRojfXuW6xNfGhO5n1H1Yb/kbiwEAPL2Bzb0XAGnAcAkxW9cMFpNiTaqcbFf4cCwZGq9/r/tswoyxTgAwIDA+lff1QkrTlQpsTtT5Anz+hXcZ0w9OVMPozUA4Lmr0b28FXAeAMwH+yc7ZuldG0fpmsMbdOX8/vxPQIOTDumvXzxuiLVlduMCgKAacOzNd2vPhkaroNjQu0Kfu3xcQeATxpjYNhlgAADy9gc29FyBVAAAiTGZxBinznEDgAGBs19+R1uWH2e9GmCg85+fmA0IeLKmAADguavRvbwVAAA8SWpxmreNYycBAEE1YPnWO7TngAar1YCB9RX6/JcPBgI8+LwAAHn7Axt6rgAA4EFCs2HQcR8jSQAwILDuxbf2VQMsT6dsqgE/e5JqQNzxEufxAQDPXY3u5a0AAAAAJDKqTRoAgmrA0dfdqrX97E4rPXxAlb55TbQZEeM0No6d31dlAEDe/sCGnisAAAAAXgOAAYG1u/fqqAWLrH4lUFIiaqDml89EfzQSw87PsG3rBAB47mp0L28FAAAAwHsACKoBS6+4Tqt79bYKAiMHVus7101IREPbRpjV4wEAefsDG3quAAAAACRiXsX6CiAw/+D1zOde05HzF1iFgKAa8O/PRpsmOatGXKx+AwCeuxrdy1sBAAAAyBQABCBgqgFVdXZXnGxurNZv3zAxET2LZZ4+nBcAyNsf2NBzBQAAACARw3KlAhAAgHld8/QeHTptptVqQHlZiV5y4lD9zXNUA1yFBQDAc1eje3krAAAAAJkFgFYYePsjXbj5Mq2oqbEKAuObavW/3zY5EW1dNVpX2wUA5O0PbOi5AgAAAJCISblYAWhbDTjjyed1yORpViEgqAb89vl5iWjsquG61i4AwHNXo3t5KwAAAACJmJPrANC2GlBeVW0VBCaN7KF/fseURHR2zWxdbA8AkLc/sKHnCgAAAEAixpQKAHjnYzUgcOqjO7VhbItVCKiuLNXr1zTpf75ANaDYUAAAeO5qdC9vBQAAAAAA2G/8bb8S2PTmBzp3/XlaVlFhFQRmj63T/3nftEQ0L7bRunp+ACBvf2BDzxUAAACARMwoTRWAtiCw6uEndcDosVYhoGZ/NeDTPcWZCc9VY06qXQCA565G9/JWAAAAAACAHBWAthAQVANKy8utgsC8g3vp3z4wPRH9kzLXNJwHAMjbH9jQcwUAAAAgEQNKawWgLQic/OAO7d882ioE9Kot0/vPbdbfUQ1IJA4NoAAAnrsa3ctbAQAAAEgk8foAAAYGNr7+HZ26arWWlJZaBYEjptbr/35kZiLXIg2j9DjbCADk7Q9s6LkCAAAAkIjp+AIAQUXghLsf0vqhw61CQO/91YA4zY9jUwHw3NPoXggFAAAAAADo5h6AwPQ7vm547dv7qgEldqsBy6b30R8+SjUgLlihAhDCIdjUawUAAAAAAIgIAAEQHH/nNu09ZKjVakCfnuX6+OYxiVybuIzW1eMCAF57Gp0LoQAAAAAkYjK+fQUQmH/wevbL72jL8uNUSkqsgsDK+f31JztmJXKNXDVs2+0CAEI4BJt6rQAAAAAkYi6+A0AAAsu33qE9BzRYhYCB9RW6+/JxiVwn22br4vEAAK89jc6FUAAAAAASMZasAIABgbNfentfNUDEKgiYasBPn5ydyPVy0bhttQkACOEQbOq1AgAAAJCIoWQJAIJqwNHX36Y9+vW3CgGD+lTqi189OJFrZstwXTsOAOC1p9G5EAqkCgB+tWuu/v1DM/QH26bzP2YNfrzd7vfOWQQAAwJrd+/VUQsWWYWAkhLRTcsa9ZfPzAEEIgA8ABDCIdjUawWcB4D/2D1Pb18/SluG11pNomK5POvj8XpWl+mqBQP0r+6ZWrDRZBUAgmrAki9frVV1vazG8KjGan33+okFXxvXRuhxtwcA8NrT6FwIBZwGgJ8/NVvnt9hNmj4addx9qqoo1Se+VNgjaVkHAAMCZz77ijbNmW8VAkpLRC86drCa6ljcxunL8QGAEA7Bpl4r4DQAHDm9j9VkGbdR+nz8irIS/eCmSZFNBgD4WINqwKItX9HK2h5WY3vc0Br98Obo18cXc8+nHwBAbJ5WKSJDRaQitjNwYKsKOAsAr1813mqC9Nmck+qbqcbkk2BzbQMA/BEADAiseXqPDp0202qMl5WW6GUrh+pvnqMakCsGg/cAAKseYg62XEQ+EJHf7c9FvxeRV0TkEOtn4oBWFXAWAM5aMtBqckzKJH0+j7n5LOqCNQBAewBorQa8/ZEuuOBiraiusRrrE5pq9c9unxIZ1gKj9PUVALDmIY0i8mIXOc+AwBZrZ+NA1hVwFgAO4bt/q6bQxYc01HneunZCJGMBAHIAwP4piE/fsVsHTZwS6jp0dz3NVzZXnjZcP3l+XqTr5av5m34BAFZ85BQR+Xl3cSgi/yUix1s5IwexroCzALBoUm+rCTGPQOV8eTwZ8e0bot11DgB0DgBBNWDh5susVwMmjuih372DakBboAEACvKRehHZHjKf/kBESgs6KzvHooCzAGDubA4ZZGyfh4EXoqkZVf4s4kx0AEA3ALC/GnDqo89ow7gWq7FsnuK44fMj9D9foBpABaAgH1khIj+JmEOmFXRmdo5FAWcB4M/vmKLmEaeIwcZ+McCAmYq27UgqzM8AQH4AYKoBm978QGev26Sl5RVW43jOuDr9m/unRb6GYa63y9tSAQjtJVFG/R1j13xlwD/HFHAWAEwCuZAqQMcPUdF+79+ronUWxqiJHQDIHwBavxJ452M95aEntP9BY6xe89qq0taJtT7dMz+zIAAAhHKhI0XkRxYGYhtCnZWNE1HAaQAwJcvzjh6k5u5zCwHIMSJWBYYPqNL/ftvkggwDAAgPAK3VgDfe1xmrz9LSsjKr8XvYhN76dw9OL+iaRoXBYu8HAOTlLXUi8uD+m/hsxB4AkJfsyW7kNAAEieL9GyfpmYsbdHxTrZrpT/kfvwbNn00za0zilnUj9d8szDkPAEQDgKAasPK+R7VP00gbifjAMepqyvT+c5v1dxmrBgAA3ZrMIhH5R8uDLgCgW9mT3yAVABCAAK/pLdsCAIUBgAGBo75+ywHztpmcPzelXv/xGzMyUw0AADo1mhoR2Soif7AZX/uPBQB0Knvx/gAARFhNDBAJDyIAgLsAYBJ079p91YAsxDYAkNNw5ojI38Zg/AG0AgA5ZS/umwAAAJDIyA8AcBsAgsRv1t/4p0dmJhITxYINAKCd6VTvH/WbWfsCs47jFQBoJ7sbvwAAAEAiyR4ASAcAGBOo71Heem9AsQw67vMCAAfMZ5KI/EXMxh/ABABwQHZ3fgAAAAAAYP8kPMENd66+xnUPQGcGYOZ9+MmOWYnER9ym3/b4AICUi8ilIvKfnV37GN4HANzx/QMtAQAAgEQSPBWA9FQA2ib/ht4V+tzl4xKJkbYmHefPGQeACSLy3bbXOKGfAYADtuvODwAAAJBIcgcA0gkAgTmYasBPI04DHaeZRzl2RgEgGPV/ElzThF8BAHd8/0BLAAAAAADgK4Dge9ouXxv7VOqerx6cSLxEMfZ898kgABwsIv8tYcPvGEsAwAHbdecHAAAASCShUwFIvgJglhges3hpx0Rc0O9mVk5zLf9155xE4iZfUw+zXYYAwKzA96XPvu//rU3zHzRhko5dsixsHAEA7vj+gZYAAABAIokcAEgeAEbMPUTNDY1HX3+b9ujXP2zC7nL7poYqfevaCYnEThhzz2fbjADASBF516bxl1VW6tz15+k5b32oM9ec3WV85DgvAHDAdt35AQAAABJJ4gBA8QDAQMDa3Xt11IJFYZN2l9sH1QAbU0XnY9y2tvEcAEpExJjtr3KYcJfXs6vt+zeP1pMf3NEKlCaeAAB3TLyQlgAAAAAA4Ok9AEEFoO1jjUuvuE6re/WObAS5TMKszfHu9RMTiSMbEOAxADSJyNu5rlHU98wiVFNXrdZNb7x/wPwBgEIs1619AQAAIJHETQWguBWAthBw5nOv6cj5C6xCQGmJ6PnLB+lvnpubSDwVAgKeAsBJIvKLqEafa7++I5v1pAceb2f8QRxRAXDLyKO2BgAAABJJ2ACAOwAQJHFTDaiqq7MKAi3DavX/u7WwpaMLMfd89vUMABpF5MVcBh71vWDUv3HveznNnwpAVLt1bz8AAAAAADL0FUBg/sHrmc++ok1z5luFgPKyEr3kxKH6H7vnJRJb+Zh+2208AgAz6v95VKPPtV/vwUP0+Du3dWr8QdxQAXDPzKO0CAAAABJJ0lQA3KsABMn83Lc/0oWbL9OKmhqrIDChqVb/7PYpicRXW4Pv7mcPAKBBRHbnMvDI75WUaMvy43TDa9/q1vxN3AAAUezWvX0AAAAgkQQNADgMAPsrIKuffEGHTJ5mFQIq9lcDfvu8O9WAlAPAShH5aWSjz7HiX6/GwbritvvyMv4AGgEA98w8SosAAAAAAMjwVwBBQj/wGlQDqu1WA2aO7qnfu3daIrHmaQWgXkS22TR+2T/qX//Ku6HMnwpAFKt1cx8AAABIJClTAXC/AnAAAt75WE/fsVvNTII2Dae6slSvX9Ok//lCcasBKawAHCkiP7J5LXo2NOqxN98d2viDGKEC4Kahh20VAAAAAABUAHIawaY3P2id+a2sosIqCMwdV6ffv7941YAUAUAv66N+EW0+bLGu2/NWzmseGHx3rwBAWKt1c3sAAAAAAACALs1g1Tee0gFjxlmFgJr91YBP98xPJP7afi2QEgBYIiI/tDnqr+3TV5ddc1OX17o74w/+DgC4aehhWwUAAACJJOD1SxtDGchRX7/FSqIKEpYPr0aTMIaQaybAqDoE1YDScrvVgMWT6/UfHp6RSAwGEOA4ANSKyFYR+UOYa93dtmbUf9YLb1j7TAEAYa3Wze0BAAAgkeQLAKTrHoDOQOGUh57Q/geNCQUi3ZlTr9oyvf/c5kTi0ECAwwAwT0R+0J1eYf5eU1+vS6+8wZrxB3EBALhp6GFbBQAAAIkkXgDADwAwBrDx9e+0zg9fUlpqFQSWTuuj//TIzNjj0UEAqI5j1G8meDITPQWmbfMVAAhrtW5uDwAAALEnXDPqAgD8AYDASE68+2GtH9ZkFQLqe5THXg1wDABmi8j3w4zqu9u2qmdd68ROwXWK4xUAcNPQw7YKAAAAAABuAow8Stzw2rf3VQNK7FYDjp7ZV//PY/FUAxwBgIrPkrXJv7/vztDD/H34zDm6ZudLka9nvrAAAIS1Wje3dx4Afrdnvu68ZKx+bkq99ulZbnW0EeaDlbVtK8tL9KBB1bp5xWD94aOFJ2IqAP5VANqaxYpb79W6xkFWP58NvSv0ucvHWQdUBwBgmoj8tc2cUlnbQxdt+XLsxh9ccwDATUMP2yqnAeBXu+bqijn9rCYVmx+6rByrd22Z7r16fEGJGADwGwCMMax/+ZvacvQKNTPM2fxsnL5wgP7sydkFxV/wBECRbwI0o/4rReRTm/oMnTZTVz+1JzHzN9caAAhrtW5u7zQAnHbYAKuJxOaHLmvH6lFdpn9519TISRgA8B8AgtHh8htu1x797X52h/Sr1FeuaIkcfw4AwAQR+a7NvFFRXaMLLtiiZjGnQPukXgEANw09bKucBYDvbJ2I+edYuMNmAgl7rCOm1kdOwABAdgDAmJCZaW7M5460+hkuKRFdt2Sg/uLpOZHjsAgVgDIRuVREPgn7eetq+0ETJrdO15yU4Xc8DwAQ1mrd3N5ZANi0LNzEMV19WPibWEnEpSWi//fxWZGSLwCQLQAIDGPZNTeqmYHO5mewqaFK37p2QqQ4TBgAxorIRzb7XlZZqfM2XaDnvP1h4qP+4JqaVwDATUMP2ypnAeDQ8b2sJg2bH8IsH+ud66IlXgAgmwBgzCKuaoCJqV8+E74akMBNgCUiskFEfm0zVzSMa9FTH91ZVOMPIAAACGu1bm7vLAAsmNAbAHDsKwCTzN69fmKkkRcAkF0ACExj6RXXaXXvequf65EDq/WbIaE0ZgAYISLftGn8peXlrY9abnrjfSfMnwqAm2YepVXOAsA5R9l9pMjmBzKrxzJfAfx4O18BBIaW9Gsx1wKw1VczM92IOYdYhQATl186foj+etfcvOA0JgAwo/5NIvIrm/mhf/NoPfnBHc4YfxAHVACi2K17+zgLAO/dOMlqkrD5oczqsY6c3ievBNv2juvg57AVgD5NI3XlfY86l/iCBFiMVx8AINDt8Eu+ppU9elr9jLcMq9WPb5ncbYzGAADDROQNm3mhtKxMZ5yxVje98Z6TnwEAwD0zj9IiZwHAGMcZixqsJgibH9CsHatndZn+1T3JPQZo9G1NgqvPUpdKn4GBFePVJwAw+q3Z+aIOmz7L6me8vKxEv3LyMP2P3fM6BQHLAHCmiPzSZj7YB7+POGn8QdwDAFHs1r19nAYAMxHQCfOYCMhmcolyLDMD4xvXJDsRUNt2mtXnzCp0QfLJ6qtvANB6Hd/+SA+76BKtqKmxCgKTRvbQP79jSk4IsAQAg0TkpbZxWujPJSWlOuXk01sXW3I9xgEA98w8SoucBgBTBTBTAe+6bJwumVqv/eqYCrjQJJPv/mYq4DGDa1q/W/2RhTnZLzhmcEEJ3qxDP3vdJjXr0rueHONqn5cAsH8dhjOe2K2DJ00tKEY6xraJ4WvOaNJPnm9fDbAAAKtE5Ocdz1fI772HDNXj73wwNbENAESxW/f2cR4Agu+QeZ2fczSTFl1uXz/KSnLf9yjUM6lJlDZhwGcAMDqZZ9vnn3OhlldVWYmVwJBnju6pf33vtAOfnwIAYICI7AqOa+W1pEQnHneSrn/13VTFNADgnplHaREAwGqABxJjnDDxj9+YoeZubRtJ0xiEMYpiT4Zi09zzOZbvABBocNpjz+jAg8dbiZUg3qorS/WmtSP00z3zNSIAHC8i/xwcz8Zr3cBGXXHLPaky/uAaAQBR7Na9fQAAACARADBwUejXAB2T7qCJU4o6HWqQDJN6zQoAGD3PeetDnbPuHC2rqLAKAvNbeumIhtAVhh0dY6/Q31uOOlbPfvmdVJq/uT4AgHtmHqVFAAAAkBgAmOe0V87vbzWh71sQ5eKiLIiSlPEH58kSAAR9PuXhJ9XcBFqo4bqyf49+/fXo629LrfEH1wUAiGK37u0DAAAAiQGAqQKYmzpvXTdSaypLrSZ1syTqmqeTXRI1SIZJvWYRAIy25jHQGavXqZkRzxUjj9KOMYuXtk6LnFS8xHkeAMA9M4/SIgAAAEgUAIL7DH6wbbraXu+hsraHLtx8mbfVgKwCQGBk5lHQNFYDaur76JFXbU39qD+4DuYVAIhit+7tAwAAAEUBAAMC5oas284eqVUVdqsBw2fO0TU7X/Iq4Zqkm3UAMBqYaoAxn5JSuzETZUSfzz7NCw7Xtbv3eheLAIB7Zh6lRQAAAFA0AAiqAX9191SdfpDdaWGretbtqwbsf8687eglrT8DAH9cUOnEux/W+mFNzn4l4GP8tf3cAABR7Na9fQAAAKDoAGBAwEzWcv2aJjWTt+Qzssp3m6Y589UsQNM2eaX1ZwDgjwBgruGG177dukqemUEv33hIYjtTgfr8My97EXOdfVYAAPfMPEqLAAAAwAkACKoB/+POKTp5ZA+rCb2mvl6XXnlD6hMyANAeAAJzMjPomZn0kjD3rs5x4B4Uj6pOgcYdXwGAKHbr3j4AAADgFAAYEPjt8/P0ilXDtKzUbjWg+bDFetYLb6QWBACA3ABgzGnDa9/SSSecrFJiN2a6Mvy2f8vCUyhtIQAAcM/Mo7QIAAAAnAOAoBrw4c2TdNxQu4vE1Pbpq8uuuSmVEAAAdA4AgTkdc+Od2nPAwMSqAWZWyrnrz8vcrJQAQBS7dW8fAAAAcBYADAiYFSEvOXGotWmEg1GbqQas2/NWqkAAAOgeAAwInP3S29qy/LjYIaBx/EQ9ffuuVMVQAEqFvgIA7pl5lBYBAACA0wAQVAPeu3GSjh5stxrQs6FRj7357tQkcAAgPwAIzG35Dbdrj/4DrINAWWXlvlH/Wx+mJnYCTWy9AgBR7Na9fQAAACAVAGBA4N+fnavnLx+kJZYWFWqtBpSUtI4W17/i/mpsAEA4ADBmt+7Ft6xWA7K8GmVbeAAA3DPzKC0CAACA1ABAUA3Ye/V4HdY/9IIuXY4EezUO1hW33ef0iA4ACA8AgWktveI6re5d32UMBF8P5Xo10xBPXbW6dSKi4JhZfgUAotite/sAAABA6gDAgMC/PD1H1y9tjJzQcyV5cwe5+e7Y3FHuYnIHAKIDgLmea3e/rqMOWRg6ZvqNbNaTt213MiaKFacAgHtmHqVFAAAAkEoACKoBL3zlYG3sUxk6qecEAJHW4/QZPkJX3veIcwkfACgMAAKzrO3bL1S8+DitdKBF1FcAIIrdurcPAAAApBoADAj8/KnZ1qsBpWVlrSXfjXvfcwYEAAA7AGCW5O0KADv+7fOezCQZ1exz7QcAuGfmUVoEAAAAqQeAoBqw85Kx2r9XRajk3jHZd/y978hmPemBx52AAAAAAMhlxsV4DwCIYrfu7QMAAADeAIABgR9vn6XHzQlX4u1o+h1/D6oBZiW6YiTb4JwAAAAQxEKxXwEA98w8SosAAADAKwBoWw3o27PcajWgf/NoPfnBHUWDAAAAACi28QfnBwCi2K17+wAAAICXAGBA4EePzdTlM/tahYBiTgIDAAAAgQEX+xUAcM/Mo7QIAAAAvAWAoBrw6EWjta6mzCoINLZM1NMefzbRagAAAAAU2/iD8wMAUezWvX0AAADAewAwIPD3D83QRZN6W4WApBeCAQAAgMCAi/0KALhn5lFaBAAAAJkAAAMBv9szX+8/t1l7VNutBgyaMFlP3/5c7NUAAAAAKLbxB+cHAKLYrXv7pAIAvrN1oq45vEFbhtfqqMbq1P0/aFC1Lp5cr/dsatbfPDc3M4YblOBde/2b+6fpnHF1VqsBlbU9dNGWL8cKAQAAABAYcLFfAQD3zDxKi5wGgE+en6ebllme7nX/bG8dH/VK6nezvv33758GBBS58vKfL8zT69c0aVVFqVUQaJo9T+OaOAYAAACKbfzB+QGAKHbr3j5OA4BZ+S0pY07yPE0NVfrPT8wGAooMAaYy8Zd3TdVpzT2txllVXZ1+7stXW68GAAAAQGDAxX4FANwz8ygtchYAvnvHFC21uexrkUf+HQHDwI1rpfGstue3z8/TK04drhVlJVZBYNShC1sXoLGVrAEAAMBWLBV6HAAgit26t4+zAHDhsYOtJuOOBlzs3/v0LFfzFUdWTdfFfv/Z7VN0fFOt1birqa/XpVfeYKUaAAAAAIUat639AQD3zDxKi5wFgIUT7T6yVWzDz3X+/7VtOgDgwNcAbWHEVAPMvQG2qwHNhy3Ws154oyAQAAAAAFsGXuhxAIAoduvePs4CwCEtvayOxHIZcLHf+9693AzY1nxd+vmDmybp2CE1VmOwtl9/Pfq6WyNDAAAAABRq3Lb2BwDcM/MoLXIWAM5aMtBq8i222Xc8f3Vlqf5qF48EumT6Hdtiro/5Ksr2vSgHLztGz375ndAgAAAAALYMvNDjAABR7Na9fZwFgL1Xj/caAE4+pD/lf8fK/x0BIPj93esnts490RHiCvm9Z0OjHnvz3aEgAAAAAAo1blv7AwDumXmUFjkLACb5HjWjj5cQYOalZy6A+akCoF8+M0c3HtmoJTafTCkp0QkrTtT1r76bFwgAAACALQMv9DgAQBS7dW8fpwHg50/NVt/uBehdW6amuhGMLnlNFwi8ftV4Hda/yiqY9h48RI+/44FuIQAAAAAKNW5b+wMA7pl5lBY5DQDGHM1d2XduGKUTLD+eVUj5Nsq+Zm36dUsG6j88PAPzT0npvzM4+5en5+jnFzdYhYCSklKdvPJU3fDatzsFAQAAALBl4IUeBwCIYrfu7eM8ALRNwr/eNbd1VbcfbJuuafr/0yeZ9a/tdfTl5z1fPVgb+1RaBYE+w5t05b2P5IQAAAAAKNS4be0PALhn5lFalCoA8MU46Ee6yv5dXS/zNdX6pXbXqygtK9Opq1brxr3vtQMBAAAAsGXghR4HAIhit+7tAwCkvBzdlTnxt+RA45lLx+mA3hVWqwF9R4zSk+5/7AAEAAAAQKHGbWt/AMA9M4/SIgAAAOCeBEsx8OPts/T4uf2sQkBQDdj0xnsKAAAAtgy80OMAAFHs1r19AABLyZ/RdnKjbde1fuyi0Vrfo9wqCDSMPVjnrj8v1DFHzD3kQPWg0ITv0/49+vUPpWNcyzunWVMAwD0zj9IiAAAAoAIQQwz86LGZesysvqGMJsrTJV3tAwDkrhgAALl1CQMkAEAUu3VvHwAghuTv+giV9iVXrXj0otFqJn7qyqjj+hsAkNvoAIDcugAA7hl03C0CAAAAKgAxx8DfPzRDF01KfnVLACC30QEAuXUBAOK2W/eODwDEnPwZbSc32nZZ69/tma/3n9usPauTqwYAALmNDgDIrQsA4J5Bx90iAAAAoAKQYAz83YPTdcGEZKoBAEBuowMAcusCAMRtt+4dHwBIMPm7PEKlbclVKj7dXw2orSqN9d4AACC30QEAuXUBANwz6LhbBAAAAFQAihQDf3XPVJ0xumdsEAAA5DY6ACC3LgBA3Hbr3vEBgCIlf0bcyY24Xdb6k+fn6fVrmrSyvMQ6CAAAuY0OAMitCwDgnkHH3SIAAACgAuBADHz3jik6cUQPqxBQ26evHnvz3UwG9E57wwMA2usRxvjNtqc++oz2bx4dNlY3xG1mHD+8AgCAA8nf5REqbfAkOTkAABg1SURBVEuuUmGWvjbVgIoyi9WAkhJtWX6crn/lXUBgPwgAABEB4O2PdOHmy7Siuias+ZvtAYDw/hz7HgAAAEAFwLEY+OiWyTpuaKQk22li7tU4WFfcdh8Q8M7HCgCEB4Aznnxeh0ye1ml85TGZFQAQu52HPwEA4FjyZ8Sd3IjbZa1/tWuubl4xWEtLpJCk227fkpJSnXLSabrx9e9kGgQAgBAA8PZHuuCCi6OO+tvG3+fD2xN7xK0AAAAAUAFwOAbev3GSjhlstxrQe/AQPf7ObZmFAAAgPwA489lXtGnO/LYmXsjPh8ZtZhw/vAIAgMPJ3+URKm1LrlLxb8/M0U3LGrXEYjXALDM8/fQz1SwzHPYmsLRvDwB0DwCLtnxFK3tYe0T1X0SkNrw9sUfcCgAAAAAVgJTEwF0bRxUyAsu5b79RB+nJD+7IFAQAAJ0DgOVRfxBzV8ZtZBw/mgIAQEqSPyPu5Ebcrmq956sHBwnV6mtpeYXOWrtRN735QSZAAADIDQBLvnKNVtX1shpbIvKGiJRHsyf2ilsBAAAAoAKQkhiICwCCO7gbxrboqY887T0EAADtAWDt7r06asEi28b/BxG5WUQq4jYxjh9dAQAgJcnf1VEp7UquMhE3ABgQKKus1Lnrz9Nz3vrQWxAAAP4IAEdfd6vW9utv2/z/UUQWRbcl9kxKAQAAAKACkJIYSAIAgmrAwJYJetpjz3gJAQDAx3r2S2+3ThAVXG9Lr/8lIttEpC4pA+M8hSkAAKQk+TPSTm6k7arWSQKAMYTyqqp91YC3/aoGZB0Alm+9Q3sOaLA96v+xiCwvzI7YO2kFAAAAgApASmIgaQAIRoWDJkzS07c/5001IKsAcPbL7+wb9ZdYnGpaWieqelZE+iZtXpyvcAUAgJQkf1dHpbQrucpEsQDAgEBlbY/WeeDPffuj1INAFgHATPxkJoAKoM7S609E5LjCbYgjFEsBAAAAoAKQkhgICwBmNcCyigqrSX/4rLn6+WdfSTUEZAkA1r/6rk5YsVLF/qj/aRHpVyzj4rx2FAAAUpL8GWknN9J2VeuwADBi7iGtj/U1jLU7f4CZIc6sCpfWGQGzAgAn3P2Q1g8dbhUAReQXInKGHfvhKMVWAAAAAKgApCQGogCAMWkzwY95tM9M+GOp9Nt6nKbZ81JZDfAdAMxiT1NXrdaS0lKr11tEXhWRwcU2Lc5vTwEAICXJ39VRKe1KrjIRFQCCkfopDz+p/Q8aY9UUqurq9HOXX5WqaoDPAGCmde7fPNrqNRaRX4oIy/na811njgQAAABUAFISA4UCQGs14I33deaas62PDpsPW6xnPb83FSDgIwBseuP9/VWectvmv1dEhjrjWDTEqgIAQEqSPyPt5EbarmptAwCCasCJ93xD+wxvsmoW5qbDZdfc6DwE+AYAqx5+UgeMHmv1WorIv+0f9ZdYdRwO5pQCAAAAQAUgJTFgEwAMCMT1XbGpBqzb86azIOALAAT3dth+0kNE3heRg5xyKhoTiwIAQEqSv6ujUtqVXGXCNgAE1YAT7npIew8ZZnUEaeaXP+q6W5yEAB8A4NRHd6pZvMnmTZ0i8h8icqmIlMbiNhzUOQUAAACACkBKYiAuADAgsOG1b+27c7zE4p3jJSWtM8+tf+Vdp0Ag1QDw9ketj2CWV1XbNv8PRWSscw5Fg2JVAABISfJnpJ3cSNtVreMEgKAacMxNd2nPAQOtmktd4yBdceu9zkBAWgHgjCef18GTp1q9Np+N+H+7f9RfFqvTcHAnFQAAAAAqACmJgSQAwIDAgTnj983zbsdwgmrAq8WvBqQOAPaP+itqauxciz9e178QkclOOhONSkQBACAlyd/VUSntSq4ykRQABNUAs2pcj/4DrJqOmY/++DseKGo1IE0AsPqpPTp02kyr10BEficiW0WkIhGX4STOKgAAAABUAFISA0kDgAGBdS++ZX3deDNDnZmpbuPe94oCAmkBgKVXXKdmoiXLN/r9tYhMc9aRaFiiCgAAKUn+jLSTG2m7qnUxACCoBiy98nqtqa+3akZ9R4zSk+5/LHEIcB0Aztz1qo6Yd6hVrduM+qsSdRhO5rQCAAAAQAUgJTFQTAAwILB29+s66tCFVo2ptKystRqw6Y3kqgEuA4AZ9Vf36m1VYxH5m8/m8Z/ptBPRuKIoAACkJPm7OiqlXclVJooNAAeqATGYVL9RB+nJ27YnUg1wEQDigCsR+S8R2SYitUVxF07qvAIAAABABSAlMeAKABgQiKNMXVpe3rpOwTlvfRgrCLgGAEdfd6uaiZMsf9f/DyJymPMORAOLqgAAkJLkz0g7uZG2q1q7BABBNWDxpVdoRW2tVfMa2DJBT3vsmdggwBUAiOMGyzaj/p5FdRZOngoFAAAAgApASmLARQAwIGAeVRsydYZVCCivqmpd3e6ct+1XA1wAgDgesRSR/y0ii1PhPDTSCQUAgJQkf1dHpbQrucqEqwDQWg2IabKaQRMm6enbn7NaDSgmAByYZKmkxCowicizItLHCVehEalRAAAAAKgApCQGnAaAdz5uNek4pqs1894fct5mPfftj6yAQLEA4Nib79aeDY22jf//icixqXEcGuqUAgBASpI/I+3kRtquap0GADDVAFO2X7j5MrW9YM2wGbN1zc4XC4aApAFgw2vftr/Q0r7pfM2ov59TjkJjUqUAAAAAUAFISQykBQCCGwRPfeRp60vWVvbo2QoXwTmivCYJACfc/ZDWDx1ue9T/zyJyQqqchsY6qQAAkJLk7+qolHYlV5lIGwAYc9705getN/OVlldYNcGm2fP088++EqkakAQAbHz9O/tG/aUWl1feN+rfJSIDnHQTGpU6BQAAAIAKQEpiII0AEIzQT3n4Se1/0BirEFDVs04XX3ZlaAiIGwBW3vuI9hneZLWvIvKvIrIhdQ5Dg51WAABISfJnpJ3cSNtVrdMMAK3VgDfe318NKLdqjs2HLdaznt+bNwjEBQCbYuqfiLwuIkOcdhIal0oFAAAAgApASmIg7QAQVAPiGCHX1PfRI6/emhcExAEAcVQ4ROTfGPWn0ldT02gAICXJ39VRKe1KrjLhCwAYEIjrO3JTDVi3580uQcAmAMR1j4OIvCkiw1LjJDQ0lQoAAAAAFYCUxIBPABBUA+K4S762bz896uu3dAoBtgAgjqccROQ3InKpiJSm0lFodKoUAABSkvwZaSc30nZVax8BwIBAXM/Jj12yTNe//M0/AYFCASCueQ5E5AMRGZ0qB6GxqVYAAAAAqACkJAZ8BYCgGhDHTHl1jYN0xa33toOAQgAgjpkOPxvx/5ZRf6p9NLWNBwBSkvxdHZXSruQqE74DgAGBWObKLynRluXH6fpX320FgUgAENNaByLysYiMS62D0PBUKwAAAABUAFISA1kAgKAaEMdqeb0GDdHjbr9fwwKAuU/B9mqHIvLpZ85h8m9Zqh2ExqdaAQAgJcmfkXZyI21Xtc4SABgQMHfzjz78CKtzBpSUlmppWVmoY5ZVVobaXvbN2NfVPt8VkQmpdg4a74UCAAAAQAUgJTGQNQAIqgFHX3er1vbr35WhpuVvvxORrSJS6YV70InUKwAApCT5uzoqpV3JVSayCgAGBNbufl1HHbowLUafq53fE5EZqXcMOuCVAgAAAEAFICUxkGUACKoBS6+4Tqt79c5lsK6+9wcRuVNEqrxyDjrjhQIAQEqSPyPt5EbarmoNAHzcehf/mbte1RHzDnXV8Nu26+9FZIEXTkEnvFQAAAAAqACkJAYAgH0A0LYaUFVX19ZwXfn5v0Rkm4j08NI16JQ3CgAAKUn+ro5KaVdylQkAoD0AGBBY/dQeHTptpivGb9rxjyKyyBuHoCNeKwAAAABUAFISAwDAnwJAazUgvkl6woBFMOqv89ox6JxXCgAAKUn+jLSTG2m7qjUA0AkAvLPv/Zim6c0HAn4sIsu9cgY6kwkFAAAAgApASmIAAOgaANpWA8qrqvMxbhvbPCsifTPhFnTSOwUAgJQkf1dHpbQrucoEAJAHAOyvBpz66E5tGNtiw+A7O8ZPROQ47xyBDmVKAQAAAKACkJIYAADyBwBTDdj05gc6d/15WlZR0ZmJR33fjPr7Z8op6KyXCgAAKUn+jLSTG2m7qjUAEA4AWr8SeOdjXfXwkzpg9NioZt92v1+IyBleOgGdyqQCAAAAQAUgJTEAAEQDgLbVgNLy8raGHubnV0VkcCZdgk57qwAAkJLk7+qolHYlV5kAAKIDQFANWHnfI1pRXRPG+M22jPq9tcBsdwwAAACoAKQkBgCAwgHAgECP8CsLZtsl6L23CgAAKUn+jLSTG2m7qjUAAAB460R0rCgKhAKAlmG1unJ+f/6jATFQhBiYd3CvUKXrEXMPaV08Jyh/87oPIKgAFMVrOKmDCoQCABEJlYDYHr2IgeLFAACQu2IAADjoRDSpKAoAAEANUOdpDAAAAEBRXIWTpkYBAMDT5M/Iu3gjb1e0BwAAgNQ4EQ0tigIAAABABcDTGAAAAICiuAonTY0CAICnyd+VUSjtKF4lAgAAAFLjRDS0KApcToIuXoJGe7SPMwYAAACgKK7CSVOjwOlxJiCOjcERA8WLAQAAAEiNE9HQoigwQEQ+IUkXL0mjPdrHFQMAAABQFFfhpKlS4Ka4EhDHxdyIgeLFAAAAAKTKiWhsURSoEBGz0hV3g6MBMeBRDAAAAEBRHIWTpk6BMhG5WET+GRAAhIgBP2IAAAAAUudENLioChgQmCIix4jISfxHA2LAqRi4NAycAQAAQFHdhJOjAAqgAApYU2A6AJDb1MMsdMRaANbikQOhAAqgAAokpAAA8A4AkFCscRoUQAEUQAGHFAAAAACHwpGmoAAKoAAKJKUAAAAAJBVrnAcFUAAFUMAhBQAAAMChcKQpKIACKIACSSkAAAAAScUa50EBFEABFHBIAQAAAHAoHGkKCqAACqBAUgoAAABAUrHGeVAABVAABRxSAAAAABwKR5qCAiiAAiiQlAIAAACQVKxxHhRAARRAAYcUAAAAAIfCkaagAAqgAAokpQAAAAAkFWucBwVQAAVQwCEFAAAAwKFwpCkogAIogAJJKQAAAABJxRrnQQEUQAEUcEgBAAAAcCgcaQoKoAAKoEBSCgAAAEBSscZ5UAAFUAAFHFIAAAAAHApHmoICKIACKJCUAgAAAJBUrHEeFEABFEABhxQIBQCDJk7Rc97+UM+1YJo+HaNHv/4qImH+OxQCNAUFUAAFUCCLCoQCAGNyjeMn6unbdwEBbSAIAMjiR4c+owAKoEC6FQgNAAYCyquqde7686gG7IcAACDdHwJajwIogAJZVGBayNJ1uzL3sBmzdc3OlzJfDQAAsvjRoc8ogAIokG4FhhcCAGbfytoeunDzZZmGAAAg3R8CWo8CKIACWVSgTER+UigEmP1HzDtUz9z1aiZBAADI4keHPqMACqBA+hW43gYAmGNU9+qtR3zt65mDAAAg/R8CeoACKIACWVSgVkS+ZwsCzHEOWrhYz3p+b2ZAAADI4seGPqMACqCAHwr0E5Fv2oSA2j59ddk1N2UCAgAAPz4E9AIFUAAFsqpAiYhsEJFf2wSB5sMW67o9b3oNAgBAVj8y9BsFUAAF/FKgWUTeswkBtX376VFfv8VbCAAA/PoA0BsUQAEUyLIC5SJyqYh8YhMExi5Zputf/qZ3IAAAZPmjQt9RAAVQwE8FJojId21CQN3ARl1xyz1eQQAA4Gfw0ysUQAEUyLoCFfurAZ9aA4GSEm1Zfpyuf+VdL0AAAMj6R4T+owAKoIDfCswSkb+xBgEi2mvQED3u9vtTDwEAgN+BT+9QAAVQAAVEqkVkq4j83hYIlJSU6qQTTtaNe99LLQgAAHw0UAAFUAAFsqLAXBH5gS0IMMfp0zRSV973aCohAADIStjTTxRAARRAAaNAzf5qwB9sgUBpWZlOXbVaN72RrmoAAMAHAgVQAAVQIIsKfE5EfmgLAsxx+o1s1pO3bU9NNQAAyGLY02cUQAEUQAGjQC8R2WYTAkrLy/dXA953HgQAAD4EKIACKIACWVdgmYj8yCYINIxr0VMffcZpCAAAsh729B8FUAAFUMAoUC8i221CQFllpc5df56e89aHToIAAEDgowAKoAAKoMAfFThJRH5mEwQax0/U07fvcg4CAIA/XnR+QgEUQAEUQAGjQIOIvGATAsqrqvZVA952pxoAABDsKIACKIACKJBbAVMN+BebIDB02kxd8/QeJ6oBAEDui867KIACKIACKGAUGCQiL9uEgMraHrpw82VFhwAAgABHARRAARRAga4VKBGRDSLyK5sgMHzmHP38My8XDQQAgK4vOn9FARRAARRAgUCBESLyrk0IqOpZV7RqAAAQXFZeUQAFUAAFUKB7BYJqwK9tgkDzgsN17e69iVYDAIDuLzZboAAKoAAKoEBHBZpF5D2bEFBT30ePvGprYhAAAHS8pPyOAiiAAiiAAvkpUC4il4rIJzZBoPmwxXrWC2/EDgIAQH4Xma1QAAVQAAVQoDMFJojId21CQG3ffnrUtTfHCgEAQGeXk/dRAAVQAAVQIH8FKvZXAz61CQKmGrBuz1uxgAAAkP/FZUsUQAEUQAEU6E6BWSLyfZsQUDewUY+9+W7rEAAAdHcp+TsKoAAKoAAKhFOgWkS2isjvrYFASYm2LD9O17/yrjUQAADCXVS2RgEUQAEUQIF8FZgrIj+wBgEi2qtxsB532/1WIAAAyPcysh0KoAAKoAAKhFegZn814A/WQGB/NWDDa98qCAQAgPAXkz1QAAVQAAVQIKwCS0Tkh9YgQET7NI3Ulfc9EhkCAICwl5DtUQAFUAAFUCCaAr0+W1xom00IKC0r06mrVuvGve+FBgEAINpFZC8UQAEUQAEUiKrAMhH5kU0Q6DuyWU964PFQEAAARL187IcCKIACKIAC0RWoF5HtNiGgtLy8tRqw6Y338wIBACD6xWNPFEABFEABFChUgZNE5Gc2QaBhXIue+ujObiEAACj00rE/CqAACqAAChSmwEARecEmBJRVVurc9efpOW992CkIAACFXTT2RgEUQAEUQAFbCphqwL/YBIHGlol62uPP5oQAAMDWZeM4KIACKIACKFC4AoNE5GWbEFBeVbWvGvB2+2oAAFD4xeIIKIACKIACKGBTgRIR2SAiv7IJAoMmTNbTd+w+UA0AAGxeMo6FAiiAAiiAAvYUGCEi79qEgMraHrpw82V67tsfKQBg70JxJBRAARRAARSwrUDpZ5WAL3221PBvbYJA05z5WlVXpyGPabtvHA8FUAAFUAAFUKAbBZpF5L2Qhh3W4Lvbvpsm8mcUQAEUQAEUQIE4FCj/rBJwqYh8UiQQiKNPHBMFUAAFUAAFUCBPBSaIyHeLAAF5No/NUAAFUAAFUAAF4lKgYn814NMEQSCuvnBcFEABFEABFECBkArMEpHvJwQBIZvG5iiAAiiAAiiAAnEqUC0iW0Xk9zGDQJx94NgogAIogAIogAIRFZgnIj+IEQIiNovdUAAFUAAFUAAF4lagdn814A8xgEDcbef4KIACKIACKIACBSqwRER+aBkCCmwSu6MACqAACqAACiShQC8R2WYRApJoM+dAARRAARRAARSwpMAyEfm/FkDAUnM4DAqgAAqgAAqgQFIK1IvI9gIg4BdJNZTzoAAKoAAKoAAK2FdglYj8PAII/Df7TeGIKIACKIACKIACSSowUEReCAkBFyTZQM6FAiiAAiiAAigQnwJrReSXeYDA90SkR3zN4MgogAIogAIogAJJKzBcRPZ2AQF/KSLDkm4U50MBFEABFEABFEhGgZUi8oqI/HT//2+JyHkiYhYd4h8KoAAKoAAKoAAKoAAKoAAKoAAKoAAKoAAKoAAKoAAKoAAKoAAKoAAKoAAKoAAKoAAKoAAKoAAKoAAKoAAKoAAKoAAKoAAKoAAKoAAKoAAKoAAKoAAKoAAKoAAKoAAKoAAKoAAKoAAKoAAKoAAKoAAKoAAKoAAKoAAKoAAKoAAKoAAKoAAKoAAKoAAKoAAKoAAKoAAKoAAKoAAKoAAKoAAKoAAKoAAKoAAKoAAKoAAKoAAKoAAKoAAKoAAKoAAKoAAKoAAKoAAKoAAKoAAKoAAKoAAKoAAKoAAKoAAKoAAKoAAKoAAKoAAKoAAKoAAKoAAKoAAKoAAKoAAKoAAKoAAKoAAKoAAKoAAKoAAKoAAKoAAKoAAKoAAKoAAKoAAKoAAKoAAKoAAKoAAKuK3A/w8jmSxSshqVygAAAABJRU5ErkJggg==;" vertex="1" parent="1">
          <mxGeometry x="800" y="303" width="70" height="70" as="geometry" />
        </mxCell>
        <mxCell id="SUx3mmpvgNjhCRliXCZC-13" style="edgeStyle=orthogonalEdgeStyle;rounded=0;orthogonalLoop=1;jettySize=auto;html=1;sketch=1;curveFitting=1;jiggle=2;strokeWidth=0.5;endArrow=open;endFill=0;" edge="1" parent="1" source="SUx3mmpvgNjhCRliXCZC-11">
          <mxGeometry relative="1" as="geometry">
            <mxPoint x="800" y="338" as="targetPoint" />
          </mxGeometry>
        </mxCell>
        <mxCell id="SUx3mmpvgNjhCRliXCZC-11" value="variables.tf" style="shape=image;verticalLabelPosition=bottom;labelBackgroundColor=default;verticalAlign=top;aspect=fixed;imageAspect=0;image=data:image/png,iVBORw0KGgoAAAANSUhEUgAAAgAAAAIACAYAAAD0eNT6AAAAAXNSR0IArs4c6QAAIABJREFUeAHtvQmcHMV96A+2iY84ec7lOM5LXs6XvPz9cvGSvCTv+Smx2emREAjwYnNImp4Vi0BIWGAhbtYYW8IGH3IiWwZH5orMaGpWq/u+haTVfXAI0C0OiUsntrGh/p9aqcWwO6vto7q7qvvL58NnRrPd1VXf+nX9vlPTXX3WWfwHAQhAAAIQgAAEIAABCEAAAhCAAAQgAAEIQAACEIAABCAAAQhAAAIQgAAEIAABCEAAAhCAAAQgAAEIQAACEIAABCAAAQhAAAIQgAAEIAABCEAAAhCAAAQgAAEIQAACEIAABCAAAQhAAAIQgAAEIAABCEAAAhCAAAQgAAEIQAACEIAABCAAAQhAAAIQgAAEIAABCEAAAhCAAAQgAAEIQAACEIAABCAAAQhAAAIQgAAEIAABCEAAAhCAAAQgAAEIQAACEIAABCAAAQhAAAIQgAAEIAABCEAAAhCAAAQgAAEIQAACEIAABCAAAQhAAAIQgAAEIAABCEAAAhCAAAQgAAEIQAACEIAABCAAAQhAAAIQgEC8BJwh1b90yuJhxxUHHFf8wnGF5H8YEAPEQI5i4LjjitUFt3pdc3Pll+IdcSkdAoYQKJSq15P0GehzNNAjtwh+XzGw8bxyxycNGaKpBgTiIeCUal9g4Cf5EwPEADHQIwY2MBMQT96hVAMIFEfO/qBTEi9y4vc48fv6dsDf+QZJDOQgBgrl2ggDhmqqAAH9BIrl9iLJn+RPDBADxECvMbBa/8hLiRAwgEDRrX2JE7/XE59veDn4hkf8E/99xMAxA4ZqqgAB/QScsmjrI/hJgiRBYoAYyHUM6B95KRECBhBAAPj2gwASA8TAmWPAgKGaKkBAPwEE4MwnPgMjfIgBYkD/yEuJEDCAAALA4EaCIwaIgTPHgAFDNVWAgH4CCMCZT3wGRvgQA8SA/pGXEiFgAAEEgMGNBEcMEANnjgEDhmqqAAH9BIIKwP2PbJVbX3iT/2FADBAD1sbApaNmBrqrQf/IS4kQMIAAAoDMIHTEQN5iAAEwIPlQhfQJIAAM/nkb/GkvMY8ApJ97qIEBBBAABkMSIjGQtxhAAAxIPlQhfQIIAIN/3gZ/2kvMIwDp5x5qYAABBIDBkIRIDOQtBhAAA5IPVUifAALA4J+3wZ/2EvMIQPq5hxoYQAABYDAkIRIDeYsBBMCA5EMV0ieAADD4523wp73EPAKQfu6hBgYQQAAYDEmIxEDeYgABMCD5UIX0CSAADP55G/xpLzGPAKSfe6iBAQQQAAZDEiIxkLcYQAAMSD5UIX0CCACDf94Gf9pLzCMA6eceamAAAQSAwZCESAzkLQYQAAOSD1VInwACwOCft8Gf9hLzCED6uYcaGEAAAWAwJCESA3mLAQTAgORDFdIngAAw+Odt8Ke9xDwCkH7uoQYGEEAAGAxJiMRA3mIAATAg+VCF9AkgAAz+eRv8aS8xjwCkn3uogQEEEAAGw6wkxE37j8uHZj8vb/n2ajm8bbEcPW65/OZjW+XKp1+XWWkj7dBzviIABiQfqpA+AQRAz4DCwJwux8VbX5FDb54nHVf0+H/gVdPkA9N2IAEvpNtHJp0jCED6uYcaGEAAAWBQNGlgDlOXVTsOy0tHzuyR+LvLwA9nPIsEIAFdMYAAGJB8qEL6BBCA/AnAymfekGufP5qZZDjmvlV9Jn8lA4Ou6ZBrnjuSmXaHkSX2OXm+IwDp5x5qYAABBCAfAqC+Jbd9b528+Nrpp5OlGgTHT94kO3fZKwO1lftPt6f7N/5G/55UeyawAKx4+nV5zw/Wy8tvmNN1rAuu7pAj7l4qH5m3M3BZJGAzzjcEwIDkQxXSJ4AAmDEgxZkYHl+yV14y4t3E3z0xXjZ6tlyy7VXrktmW/Sdk+Zb5gQTgjn/rDNTO6rJ9XTMH3Zl5//7iuOVyNbMKgZjGGet+y0YA0s891MAAAghAdgVAJcivP7RZFss9L4zzEpj3OnjMPLlh7zGrBvJJ03YESv6qreoOAb9JYtGWQ1J92/cY9faqBGrW2hd9l+v3+GwX37mJABiQfKhC+gQQgPgGmTQHcDXlf93dS/tMXvVJ7XvVp61JYuoahovPMKtR36769/c9vNV3G2/8+grf/AYMa5cTLeKXZmyacGwEIP3cQw0MIIAAZE8AOlYd8HVVfH1iVO/V79omDM5+6nDPAxt8J+f6ds5Z97KvNq7bdVQOaGkPfIyx9z8h1b5+2sA26Z17CIAByYcqpE8AAUhvENKdALYceFNO+PF22b+lFjhxqST5+etnWZG4Fm4+FCo5j/raMt/tm7v+5VAMFUf1c8r8jYd8H0t3HFBe3+c0ApB+7qEGBhBAAPoeLGwYUNWU+A33+p+yrv9W7L2/4sY5ViQtlci9Ovt9Vd/mF2w66Lt9KoH7LbvRdgNbp8nJM1l3wNRzBwEwIPlQhfQJIAD2C8DszpdP36LWKBn5/UxNX5s6YHv1+vHivaESs7qNzyvDz+vGfcelWkHQL7vetrvz39dad3GlHz62b4MApJ97qIEBBBAAuwVAXQl//rDgv1U3SljVZXsDJcmkk8CmfcfllWPmBk7K6mLBMAsf3fqdNYGP1Yhr+dYFVt5mmXT/Jnk8BMCA5EMV0ieAANgpAOt3H+26pa1Rwgnz2c3f8n97XJIDdf2xvvv4k6ES8g/agy/+o46rHiJUv3BSGK7ePoOGd8j/XLDbaMGqZ5319whA+rmHGhhAAAGwTwDURXBDxwZbAMdLRI1e1dS/+nZt8qCvbmtUS/k2qv+ZPnNvni/Veghh26YuBmwe1fdzBs5UB+9vaj2GcQ9ulJsj1CdsO9jvvec5AmBA8qEK6RNAAN47MJg+UKpvkerbpJdUoryquwUmTNku1d0Dprf7zn/rDNVmtZJf1LY9seOwHHlP8AsPe+ubq+5YKJc9+VrkekVtV573RwDSzz3UwAACCID5yU8N1OqiNHUhW29JJejnl14/S05/4gUrkpD6Fl4sB7+1UT0kSFeSU7MI9z+yNVQ9GvWNui6hujS6nOhqX97KQQAMSD5UIX0CCID5ArD8qddl652LtCV/teDPqmfe0JYc404e13x5SeC2qwsjF297RXsb1V0IF12rZwZG/SSgHsa05UD4nyjiZp/V8hGA9HMPNTCAAAJgtgCoB/nouhDtdMKx6Dfoh+c8Hzj5q2/cX//RFu3J30uGavr+qjs0CtlXlkp1jYNXPq/xn5MIgAHJhyqkTwABiH+wCTOg655yVk8DnLrErinnjXuOSfWgnUZT6Gf6TF2017nzSKwJVfdPMmoVxumr7fhJJkw8m7YPApB+7qEGBhBAAMwTgNXPHpajvqrvorNhty+QS7fb97hf9Zv7mRJ9b3+bPPO5WJN/fTL70aznfD0xsLe61n9u00WZ9QxsfI8AGJB8qEL6BBAAswQg7IN86hNJ/fu7JnYaf4tfowSy4unXQyVWda1E0nc1dN2WefO8ULJS31fee/UUws6dPFCoUVzo+gwBSD/3UAMDCCAAZgiASloTpz4V6iE3XuKof73w6g75yJydiX0T1jUwe+WM/eYTgROqusZh1toXU2mzegLg2G8Fr3N9n9W/v/JLc+W8Df6fXeBx49Xf+YwAGJB8qEL6BBAAfwNGnAOr+r1a3bJWnwCivB9y0zy5wOKn0anfwlUyD8rgtglrU0n+9bHxwLQdcoCmpZnVswgenMYDher56nqPAKSfe6iBAQQQgHQFQD2f/vIb5wROdr0lR7V+vVomWNdAmXQ56pa4YbcvDMxDzXisNOTWxtmdL2l5OJPXx7dNWCM37DlmbZ8mHUN+jocAGJB8qEL6BBCA9ARAXUB2fmv0J86pRKHue1c/IfgZ/EzeRn3j9RJfkNdv/+c2o9q++rkj8vpx+i7kLN86P5Z1DUyOhTjrhgCkn3uogQEEEIDkBUDd3nZHyKVtGyVFdatcWr996xyk1e/oYdbdVzMoG/aa9w1ZXdehlloutgRfxbBRP184vEM+Om+XUaKjs/+TLAsBMCD5UIX0CSAAyQrAoi2HZEnjFeM3jF8e6lG3SQ62fo+lHpTTKPH19ZnpT9mrrdwfSmx6a7etd3b4jYMktkMA0s891MAAAghAcgLw0OznpfqtureBPcjn6luluk8+K8vIqmV71c8YQRiobUd8ZakV34jVo4WHty0O3L7eePBAoWjnLQJgQPKhCukTQACiDSR+vq3oXjXucyNnSLHcrlX9+uI0etzywMlRSZBNt8qpxwCrtf/D3OHQSAR4oFD4cxcBSD/3UAMDCCAA4QeRvpKa+rtaN17ng3zUg3FW7rDnQT5+GCmZaZTg+vrs7u+vs+Lbf3cGUxbukYOu0TQTxAOFQsUAAmBA8qEK6RNAAOITgPaV+7U+Oe7rP9os1TMCuicUm/+9af9xqdYt6CvZd/+7eiKfutLe1rYv3vqKdG+eH7jd3Tl4/1Z3HKyz+PbPpPsRAUg/91ADAwggAPEIgLoXXNctfuppgOoxtEkPkkkcT9266CWxIK8Tq09bz0PdDXL7hLWh2t+IlZodUj8zJNFvth8DATAg+VCF9AkgAPEIQPnWBVoGdrUozrLtr2VyUFcPPQozFT507PxMJboHp++QatW/Rkk96GffrTyZyVjRLRwIQPq5hxoYQAAB0C8A6p78oAN3o+3bvrdOqgsIdQ9+ppTXNrEzFKfqsuzNhsxdf1BeoWFFyMtvmJP4w5BMiacg9UAADEg+VCF9AgiAfgH4XvXpUInNkwD108EPp+/IbOJXA/XcDQdDLZCjnpQXZKC3aVv1TIib7o/+TAh1y6FN7U6jrghA+rmHGhhAAAHQLwDfeizcc+w9AVD3i9t8gZufAX3E3UsDS5J6yI5aL8BP+bZuoy4OVNd8eLEQ5tWmWyPT6icEwIDkQxXSJ4AA6BeA/5gZbj37+sFeLe+rLiRMa4CM87iPzd8VKsGN++GmTPLwWD82f7ccNDza7YFqjQF1bYVXJq+Nz28EIP3cQw0MIIAANB4gogycq3Yclv01rP+uVsb7QXu2fgpQV75fdsPswAKgnhGgpsij9Iup+6pbIb/24EYtCwRddfvCTDLS3XcIgAHJhyqkTwAB0C8AarBSA3r9N/oo72/59mqrH/FbP3h/M+TPIz+c8WwmE5vuJYIfX5K9CyTr40fXewQg/dxDDQwggADEIwDq6n11wVqUxF+/r3qAkPp9WNcAmEY5KtldEOJZCMNuX5CZZx7Uc1crIKplnev7Ocp79WyI+vJ53/u5jQAYkHyoQvoEEIDeB4moA2jX2u//oW/td3XPvOlPvjsTMzWTETTBqd+0pz/xQqYSm3qAk5oJ0fWYYLWGQNZ+KjpTHOn4GwKQfu6hBgYQQADiEwBvoFKr+Kmla4Mmv0bbq4R4zw/WS/W7sVe+Da8z1rwY6jduJQ02tM9vHdXdHWrZ3kZ9G+YzdbGoWnfC7/HZ7uT5jgAYkHyoQvoEEID4BUANuuqhQOoCrTCDfKN9uh4K9IwdDwVS33jDtF2th6C4ZSVpze58WaqFehr1Z5jPRt+7Qq59/mhm+CTZzwhA+rmHGhhAAAFIRgDU4Kb7scCXXDdD1ix4LLC6gC9MglPT5EkmhTiP9cC0HVKtYxCGQ/d91B0m6vd+JVZx1jnLZSMABiQfqpA+AQQgOQHwBtQfzXou1MVw3ROB+rfpyWDdrqPy0pEzAye+L3xxltyw55j1CU49oW/st54I3P5Gfa0+u/T6WZm7JsI7L5J8RQDSzz3UwAACCEDyAqAGuoWbD0n1UJveBvqgn6vp4M6d5k0Hj5+8KVQbH523y/rk39XHNwd/1HFvfX/d3UvlKkt+9kkymYc5FgJgQPKhCukTQADSEQA1aKlvx2Pv1/ft8MovzZUmLQO7dNurUi1m1FtC6+1ztRTylgPp9UuYhNJ9n4dmP69tlkdd+KlEaguP+tUmhQhA+rmHGhhAAAFIP9Ho/H1Y3RKmHi/bPSGl8e8w6yAUyzWpLpZLo746jqn7Oo+LR0yXU5fss5aHDqZxlIEAGJB8qEL6BBCA9AVADXCz1r4k1S1dvX0rDvr5bRPWSLXsbhyDp58y21fsD9UW9YhgP+WbuE3XnR53LArV7kb9e9UdC+Wy7dm5C8KkPkMA0s891MAAAgiAGQKgBsc1zx2Ro766XFsCabltgVy6/dXEE6qaqlYrFzZKamf6TC10ZOtv3Gqth6hP8fPYnF7rYZ9daz2YlOD7qgsCYEDyoQrpE0AAzBEANWip374nTNku1VS4lxCivF6SwhTy96pPh6r7v1WeTFxW+koUff1dyY66JU9XfykJysIFkH1xS/vvCED6uYcaGEAAATBLALyBUU2h61onPsmLyNTCNEo6gkrLlTfO7VonwWu/Da/qsbsj79G3ql/51gVy8Ta7n/dgQ7+pOiIABiQfqpA+AQTATAFQg9Typ16XrXfq+0256zayHfE+K/7u768LnPyVLFQse4pdx6oDodY36E2M1DUbWVj3AAFIf0ynBhDwTQABMFcA1GDa9UChkPfSN0o2n79+llTr8scxUC/YdLBrYaJGxz3TZ6O+uiyW+sTRRvUTzcSpT8kBLcFvb2zEQC13bMpdG3HwMrVMZgB8pwg2zDIBBMBsAfAG0IfnPC8vDPEo3UZJR60eqK4z8MrW9RrmAkaVSBdtOaS9LrraVF9O584jcsx9q0LNcDTqh8Fj5sn5G+1oez2HLLxHALKc1WibbwIIgB0CoAZdlSjDXF3fKPmoz9ST9tbv1rN6oHpMcW/HOdPnX3twoxXJf+76l+XlN+p7kM+Y+1bKzl162GchISfdBgTAd4pgwywTQADsEQA1SKq15W/+1upQybZRIh5687zI38DV4jdXhEiO6mFGJi5f3D0ZTZq2I9SKho14q5URf9D+jBXS051Dlv6NAGQ5q9E23wQQALsEwBuEv197RtvT5dT963PWhV997ztTtoUSErUCotceU1/vnbw5VNsaJX/1KODZnS8Z32ZT+0JnvRAA3ymCDbNMAAGwUwDUYDirU9/qgWp6O8xV6Ct3vCEvHN4ROEmWb51v/Nr2UxbuCdyuRolffXbDvSukukVSZxKjrPDnLgKQ5axG23wTQADCDyImDMCrnzsirx+n5170MN/Ib5+wNlSSnLbygPHJUN2X31tC9/u5uuDyu49vt/7hRibEus46IAC+UwQbZpkAAmC3AKhBccuBE/Kbj22VxZZoqwfe+I2VgZKyen5BmBXwbrp/VaDj6Bz4/Za1asfhyMlfJRm1XoDfY7JdcuciApDlrEbbfBNAAJIbdOIe4NtX7pfNo2aGTlzq4TN+66juh1eP7fX7TdjbTt33bsMDbtRv9V6dw7yOuHupVD+P+OXJdsmehwiA7xTBhlkmgAAkO/DEPdCvePp1Ofyu4IlZJbnr7vG/IM8j83aGSpD3PbTFiqS4eOsrodqnZkRUG9UzAuLua8oPf+4iAFnOarTNNwEEIPwgYuoAvGn/cXnPAxukegZAkG+v3wiQnK/58pJAZat6qFUIda07EDd7lcAvHRlsNuXiEdNldek+Ev8L5p9TCIDvFMGGWSaAAJg/WIVNdo/N3yXV0+X8SMBANTX/pL9nz2/adzzULYgPzX7equT4rce2+mKn+F5956KuZzeE7Sv2S/Y8RACynNVom28CCECyA0/SA/3iLa/0uXqgmikIcgeAup3Nj1TUb6N+llDXDSTd/ijHUwsc9XWdg2KnZlvUrEuUY7FvsrGBAPhOEWyYZQIIQLIDTxoDvbq/Xz2lr9EV+2oRoKDfzNVdBxcEeC6BOq6tC+Co9f9v/c6ahj+nqCSi1gpIo085ZrTzFgHIclajbb4JIADRBhKbBuIl216V3608Kdu+t05+5Qfr5Y9mPde1tHCYNtz49RW+ZwHu+O5a65Pkws2H5IQfb5d3TeyU4x7cKB+Zs1Nu3HPM+naF6fss7IMA+E4RbJhlAghAfgRA58CtViFsNKNQP+2v3qsL41Y9w+1wOtlTVvRzFgHIclajbb4JIADRB5O8DsgTpz51xlkAdWFhbTlXxec1PkxuNwLgO0WwYZYJIAAIQJSBWv0GfuWX5vYQAXXx3Nz1B5kit+CWuCj9b+u+CECWsxpt800AAUAAog7i6qJAlewfnbdLTlmwWy7e9gqJn8RvdAwgAL5TBBtmmQACgABEFQD2J4ZsiwEEIMtZjbb5JoAAMHjbNnhTX2I2agwgAL5TBBtmmQACwGAadTBlf2LIthhAALKc1WibbwIIAIO3bYM39SVmo8YAAuA7RbBhlgkgAAymUQdT9ieGbIsBBCDLWY22+SaAADB42zZ4U19iNmoMIAC+UwQbZpkAAsBgGnUwZX9iyLYYQACynNVom28CCACDt22DN/UlZqPGAALgO0WwYZYJIAAMplEHU/YnhmyLAQQgy1mNtvkmgAAweNs2eFNfYjZqDCAAvlMEG2aZAALAYBp1MGV/Ysi2GEAAspzVaJtvAggAg7dtgzf1JWajxgAC4DtFsGGWCSAADKZRB1P2J4ZsiwEEIMtZjbb5JoAAMHjbNnhTX2I2agwgAL5TBBtmmQACwGAadTBlf2LIthhAALKc1WibbwIIAIO3bYM39SVmo8YAAuA7RbBhlgkgAAymUQdT9ieGbIsBBCDLWY22+SaAADB42zZ4U19iNmoMIAC+UwQbZplAUAEYec8yOWHKdv6HATFADFgbA4Ou6ZCOK3z/n+UcQNtyTCCoAAQ5adjW/wADK1gRA+bGQI5TBE3PMgEEwNxBh4RA3xADZsRAlnMAbcsxAQTAjAGGgZ5+IAbMjYEcpwianmUCCIC5gw4Jgb4hBsyIgSznANqWYwIIgBkDDAM9/UAMmBsDOU4RND3LBBAAcwcdEgJ9QwyYEQNZzgG0LccEEAAzBhgGevqBGDA3BnKcImh6lgkgAOYOOiQE+oYYMCMGspwDaFuOCSAAZgwwDPT0AzFgbgzkOEXQ9CwTQADMHXRICPQNMWBGDGQ5B9C2HBNAAMwYYBjo6QdiwNwYyHGKoOlZJhBYAMpiZaEsxvM/DIgBYsDWGHBc8VIQ4cpyDqBtOSYQQgDacoyLpkMAAhkg4LhiPQKQgY6kCdEIIADR+LE3BCBgHwEEwL4+o8YxEEAAYoBKkRCAgNEEEACju4fKJUUAAUiKNMeBAARMIYAAmNIT1CNVAghAqvg5OAQgkAIBBCAF6BzSPAIIgHl9Qo0gAIF4CSAA8fKldEsIIACWdBTVhAAEtBFAALShpCCbCSAANvcedYcABMIQQADCUGOfzBFAADLXpTQIAhDogwAC0Acg/pwPAghAPvqZVkIAAu8SQADeZcG7HBNAAHLc+TQdAjklgADktONp9nsJIADv5cG/IACB7BNAALLfx7TQBwEEwAckNoEABDJFAAHIVHfSmLAEEICw5NgvKoF+pckfcsq1fyyWpzY1Dav8YdTy2B8CfgkgAH5JsV2mCSAAme5eIxtXHDn7g12PkXXFG92eyPZ0sVQdaGSlqVSmCCAAmepOGhOWAAIQlhz7hSHQNPjhX3ZKYm23xC+7/bujf6nyiTDlsw8E/BBAAPxQYpvME0AAMt/FRjWw4IqHuiX77snf+/erRVd83qjKU5nMEEAAMtOVNCQKAQQgCj32DUKg0FL5E8cVb/sUgJMiUBaVga0zfjPIcdgWAn0RQAD6IsTfc0EAAchFNxvRyEKpen2g5O8KbzbgoFMWFxnRCCqRCQIIQCa6kUZEJYAARCXI/n4JOG71OyEFoEsE1M8Hg0rtH/N7PLaDQG8EEIDeyPB5rgggALnq7lQb67hiUhQBOLXvS9wpkGo3ZuLgCEAmupFGRCWAAEQlyP5+CWgSAO/agIcvKHf8it9jsx0E6gkgAPU0eJ9bAghAbrs+8YZrFYCT1wfsKbq1f028IRzQegIIgPVdSAN0EEAAdFCkDD8EYhAANRvwjiq337WVj/qpA9tAQBFAAIgDCKgToSzaAv0uWxZtgINAGAIxCYB3p8DO/i3i02HqxT75I4AA5K/PaXEDAghAAyh8FAuBmAVAiYBaY2DSwNYZH4mlARSaGQIIQGa6koZEIYAARKHHvkEIJCAAp2YDak86JfF3QerGtvkigADkq79pbS8EbBKA4hWP/mpxqPhnp1S72CnVmvk/XgbFcnvRKVf+rJfQCfxxcgLQtYDQzwtu7cvntk46J3BF2SHzBBCAzHcxDfRDwAYBKLSK33HK4mHHFT8LdL3CuyvJeb8T8xqCSdEVz+pYlz9hAfD6emP/0rT/6edcYJv8EEAA8tPXtPQMBEwXgPNK1T91XHGAxH96WVwvsSX/WqqNO0Mo9fmnlARAcVLieEu/tiUf6LOSbJALAghALrqZRvZFwGQBUAO244rtJH8Dkv+pmYNCuXppXzHV299TFIAuWSq4Yk1TqfrnvdWPz/NDAAHIT1/T0jMQMFkAHLd6JcnfnOTf1RdlseMM4XTGPwUVgAlTtsthty/UPdPxpuPWRre1tb3vjJXlj5kmgABkuntpnF8CJgtAwRU/RgAMEwA1ExDywsCgAvD4oj1y8/4T8puPbZUDWto1i0Bt+YCy+CO/5wnbZYsAApCt/qQ1IQmYLACOK1YhAOYJQFOpdl6YcAsjAFtfeFOq/+euPyjdm+drlgBxrOhWrznrLHl2mPawj70EEAB7+46aayRguADMRQDME4D+bvUfwoRgFAFQErBp33H59Yc2y/4tNd0isOCzgyu/H6ZN7GMnAQTAzn6j1poJGC0AJXEXAmCcABzrV5r8oTBhGFUAvNmAWZ0vySE3zdMsAdUjjitamQ0I07P27YMA2Ndn1DgGAiYLwHnljk86rjiBBJgkAdVvhg1DXQKgRGDD3mNy/ORNsqh7NqAs5pw/pPK7YdvIfnYQQADs6CdqGTMBkwVANV19K0MATBGA2pNqNcawIalTALzZgI5VB+QVN87RPBsgXnPc6mVh28lqqJeRAAAgAElEQVR+5hNAAMzvI2qYAAHTBUAhcMqi5LhdU7S6B3rK87syYKk2r+hWfitKSMYhAEoE1u8+Kr/8/XWyWNYrSsWSqEZtcxRe7BsfAQQgPraUbBEBGwRA4RzYOuM3C+XaCMet/cgpiwr/J8DArT1edMV9uh6zG5cAeLMBYvk+edno2bql7qBTFhdZdEpTVR8EEAAfkNgk+wRsEYDs90T2Wxi3ACgR6Nx5RN41sVP7bIASzs8Mqf1G9nspHy1EAPLRz7SyDwIIQB+A+LM2AkkIgDcbUF26T37++llaZwOKrni54NYu1AaEglIjgACkhp4Dm0QAATCpN7JdlyQF4ORswNGu2QDtF5GWRWXA5TN/Ldu9le3WIQDZ7l9a55MAAuATFJtFJpC0AHizAY8v2SsvHTlT92zAXmfo1M9EhkIBqRBAAFLBzkFNI4AAmNYj2a1PWgKgRGD1s4flmPtWaZUAxxXvqDb1u7by0ez2WjZbhgBks19pVUACCEBAYGwemkCaAuDNBjw6b5e8ZMR0vSJQEruc0tR+ocGwY+IEEIDEkXNAEwkgACb2SjbrZIIAKBFYteOwvPHrK/RKwKnZgIGtMz6Szd7LVqsQgGz1J60JSQABCAmO3QITMEUA6mcDLrq2Q7cIPO+Ua/8nMBx2SJQAApAobg5mKgEEwNSeyV69TBMAJQLLnnxNXnfPMt0S8PNCWYwvjpz9wez1YjZahABkox9pRUQCCEBEgOzum4CJAqAkYMuBN+UD03bIC6/WOxtQdMW2giv+1jcgNkyMAAKQGGoOZDIBBMDk3slW3UwVAO8ngaXbX5Uj7l4ay2zAua2TzslWb9rdGgTA7v6j9poIIACaQFJMnwRMF4D62YCBrdN0i8DmQrn2V31CYoNECCAAiWDmIKYTQABM76Hs1M8GAfBmAxZuPiSvumOhbgn4SbFUG9vcXHl/dnrVzpYgAHb2G7XWTAAB0AyU4nolYJMAKBHYvP+EnDBluzx/WLtuEVjtlCt/1iso/hA7AQQgdsQcwAYCCIANvZSNOtomAN5swPyNh2TLbQt0S8Cbajagra3tfdnoXbtagQDY1V/UNiYCCEBMYCm2BwFbBaB+NmBAi+bZgLJYWWip/EkPWHwQKwEEIFa8FG4LAQTAlp6yv542C4A3GzB3w0FZvmW+5tmA6hHHFa1nnSXPtr+X7WgBAmBHP1HLmAkgADEDpvjTBLIgAEoENuw9JsdP3iSLLTXNIiDmFoeJ/3oaGG9iI4AAxIaWgm0igADY1Ft21zUrAuDNBsxY86K8csxc3RJw+ORsgN19bXrtEQDTe4j6JUIAAUgEMwc566yzsiYASgQ27jk1G1DWPhsw67xyxycJnHgIIADxcKVUywggAJZ1mMXVzaIAeLMB0594QV55o+bZgLJ43XGrV1rc5cZWHQEwtmuoWJIEEIAkaef7WFkWACUCnTuPyLsmdspiWej9WaAsKgNbZ/xmvqNHb+sRAL08Kc1SAgiApR1nYbWzLgDebEB16T75+etnaZWAoiteLpaqgyzsdiOrjAAY2S1UKmkCCEDSxPN7vLwIQNdswK6jXbMBjqt/NqDQUvn1/EaRnpYjAHo4UorlBBAAyzvQournSQC82YDKkr3y0lEztc4GOCXxYpNbO9+irjeuqgiAcV1ChdIgYJsANDdXPty/Rfy3AWXxR/wfL4OmwbWP64zJPAqAEoHVzx6WY+5bpVcCXPFOwRUT+11b+ajOPspLWQhAXnqadp6RgA0C0Nxc+SXHrY1yXLFd+5Sq7ina7JV3zHFr/1l0K39xxkDy8ce8CoA3G/DQ7OflxddO1y0CO/u3iE/7wM8mdQQQgDoYvM0vAdMFYFCp/WOOK1aQ+DX/lhxcVH7quNXLopwpeRcAJQIrd7whR49brlsC3nbc6jfV7FiU/snTvghAnnqbtvZKwHQBKLjV2ST/1JO/l7DeKpbE/+41mPr4AwLwpvRmA344fYccdE2Hx1XX69P93eo/9NEN/PnkolTrg4wrQPNHQM3WquWsz22ddI6/PdgqVQImC0CxPLUpyEnKtomIwoqwAYsAvCsASgSWPfmaHHnPMl3J3yvnF44rvlYcOfuDYfspD/sxA6C3l9VFqY4rVjmu+PmpcfgXTknMdMq1/6P3SJSmlYDJAuCUxIMk9USSupc8/Ly+E/aBNQjAewVAScCWA2/KSbVn5AVX654NqG4ttlT/RutgkaHCEAA9ndm/VPmE44qOM4zTvyi6tS/pORqlaCdgtAC4teVnCCw/yYptgv/W3yezolv71zCBiAD0FADvJ4El216V13x5SZ/sA54PbxXd6p392pZ8IEx/ZXkfBCB67xZd8XnHFa/6iMl3nLK4KPoRKUE7AbMFQCzyEVy6B03K60saQk7rIQC9C4A3G/DAtB36ZwNKYkv/Uvtfax88LC4QAQjfeV0XZpfFw0HG5qIrnm1ra3tf+KOyZywEzBaA6jeDBBnbJvJzwVsDLp/5a2GCEQE4swB4swELNx+SV92+ULeI/rTgipuamyvvD9N3WdsHAQjXowW3dqFaljrMWFtwxd+GOyp7xUbAZAEolGt/5bji7TDBxj4xyUBZVMIGIwLgTwCUCGzef0J++7FtcsCwdt0i8ET/IbX/HrYPs7IfAhCsJ8N86+8+BqufDIIdla1jJ2CyAKjGF0riW90DiX/HlNz7mvp3xStqFcawQYkA+BcAbzZg3oaDsnzrfN0ScEItrJXnKVkEwP9ZXCjVHMcVBzSMu63+j8qWiRAwXQDUlGXRFd91XPGOhgDUPZDmpryiK/ZGncJDAIILgBKBTfuPy/se2iL7t9Q0x1ttSdOwyh8mMtAYdhAEoO8OuaDc8SuFcvUHGsdeBKBv7MluYboAeDSccu0fi674j6Irtjmu2Mn/iTB43nFrSxy3Nrpp8MO/7PVF2FcEIJwAeLMBsztfkkPHap8NOOq4ovWss+TZYfvVxv0QgDP3WqEs/sVxxW7NX7oQgDNjT/6vtghA8mQ4om4CCEA0AVAi8PiiPZpnAU7+nFR0xfwmd9rv6e5zU8tDABr3jFpOulAW42O69goBaIw9vU8RgPTY5+3ICIC5AnDqm97hk7MB2Y9MBKBnH6tlvh239ozmb/31wooA9MSe7icIQLr883R0BMB4AegarNXzN84fUvndLMcmAvBu7/YrTf7QqW/9ahnp+oSt+z0C8C52M94hAGb0Qx5qgQDYIQAqCRRc8UaWZwMQgJMjjjOk+peOKzbHnPg9kUAATBvoEQDTeiS79UEA7BGA0wmhLCoDW2f8ZtaiMu8CoJaHLpZqYx1X/Ox0X8f77V9JAAJg2omEAJjWI9mtDwJgoQCcTAoHs7aWe54FoKml9inHFRsSTPzMAJg6rCMApvZM9uqFAFgrACcH8LKoFFoqv56FyMyjANR96/9pCsmfGQATTxwEwMReyWadEADLBeDkbMBLxVJ1oO0RmjcBGDCs9j8cV3SmlPiZATD1hEEATO2Z7NULAUheANQjhm/59mpvANb1qlblnKRWirM1SvMiAGq550JZ3Oi44ic6k//wtsXytglrgsYT1wCYdsIgAKb1SHbrgwAkLwCj710h1QJClSV75aWjZgYdsPvafk/Rrf2rjRGbBwFQyzyfXMlT3619A6+aJidM2S637D8h739ka1/x0f3vCIBpJwsCYFqPZLc+CEB6AqAkYPWzh+WY+1Z1H5Sj/rtrNkDHUtFJRn62BUCera64d1xxTOe3/vIt8+XcDQe7hFLFEwKQZMTGdCwEICawFNuDAAKQrgCoQVv9/+i8XfKSEdOjJv7u++/s3yI+3aPTDf0gqwKgntbplGsLdSZ+9RCq8ZM3dT2UyoshBMDQwA5aLQQgKDG2D0sAATBDANTgvWrHYXnj11d0T+JR//2241a/Uxw5+4NhYySp/bIoAE6p1uyUxes6k3/p5nlyzrqXT3/rRwCSitCEjoMAJASaw5yFAJgjAN5ArmYDLrq2I2ri77Z/7cn+5er/MjnksyQA/UuVTziu6NCZ+L1v/Rv3HW+Y/JkBMDm6A9QNAQgAi00jEUAAzBMANZCv3PGGHD1uebckHvnCsZ+r9eWbmyu/FCloYto5KwLQ9a3fFa/qTP5X3DhHTn/ihV4TvyePXAMQU3AmWSwCkCTtfB8LATBTANSAvuXAm/KBaTvkhVfrng2obi22VP/GtMi3XQCaBtc+7rhVoTPxF8tC3jWxU27Yc6zP5M8MgGkRHbI+CEBIcOwWmAACYK4AeN/qlm1/TY64e6nu2YC31GzAua2TzgkcNDHtYLMAFF3xOccVh3Qm/8tvmCPbV+73lfi9WGEGIKbgTLJYBCBJ2vk+FgJgvgDUzwZcoHs2oCTWNpWqf27CWWCjAAwqtX8s6DnUlyR43/rX7T4aKPkzA2BCFGuoAwKgASJF+CIQdPB6fNGewIOS9+0kq6+KSV+Dev3fvYWAwvBYsu1VqVYSrC9Pw/ufqKfQNTdX3u8raGLayDYBKJRqjuOKAxr4n+7Py0bPlrXl+0KfY8wAxBScSRaLACRJO9/HQgDsmAGol4XN+090rfx2/rD204lDUxJadV6p+qdpnRG2CEDxikd/Neh546d/brp/lVz7fPBv/fWxgQCkFb0aj4sAaIRJUWckEHQgYwagpzAkOQNQP9gv2HhIDrt9gW4JeFPNBqj16s8YODH80QYBaCrVznNcsc9PQve7TfPIGXLKQj0zawhADIGZdJEIQNLE83s8BKBnQq9Psn7epyUAqm7ebMAA/bMBCz47uPL7SZ4ZJgvAwNYZH1EXTTqueNtvYveznfrWv/q5I6Gn/LvHJwKQZMTGdCwEICawFNuDAAJgtwB4CWDehoOyfOt8zbMB1SNq/foeQRPTB6YKQJM79Z+KrnjWT0L3u80l182Qj83fpS3xe3GAAMQUnEkWiwAkSTvfx0IAsiEAKgFs2Husa334YktNrwiUxZzzh1R+N+4zxTQB6Fea/KE4vvWrBZ7UQk9e0tb5igDEHaUJlI8AJACZQ3QRQACyIwBeIpm55kU5eMw8rRJQcMUbcc8GmCQA/d3qPziueNrvN3o/2w26pqNrYSevn+J4RQAyMLAjABnoREuagABkTwBUYtm459RsQFnvbEDRrc4otIrfiSO8TRAAtTDSqfH3F36Sut9tRn1tmVzx9OuxfOuvFwkEII7ITLhMOwRAnq3WvC66Yr7up135Palyut3PHFc855Rr959X7vhk1NBEALIpAF5SqK3cLy+7YbbW2QDHFQedsrgoaux13z9tASi44m+Lrtimc1xR3/ofnL4j9sTv9TcC0D2qLPy36QLQ3Fz5cKEs2nWeKJQV6kEvh9VtSVFCHAHItgCoxLBu11F558S1Uq0wp/c8qz0y4PKZvxYl/ur3TUsAur71l8Rdjive0snnunuWyWVPvpZY8ld9jQDUR5Sl700XAKckHtV5olBWpIH5eFNL7VNhQx0ByL4AeN8Opy7ZJy+9fpZmCRAHiuX2Ytj4q98vDQFQ547jig06xyC1XPP3a890PczJY5/UKwJQH1GWvjdZAIpDxT/rPFkoK1Ly9wbzuWFDHQHIjwCoJKRWmrv1O2u8uNH1+o7jigfUCnlh41Dtl6QAqGWP1YJHjit+qnMMGt62WKrlmpNK+N2PgwBEiUBD9jVZAAqumKjzhKEsLQLw9meGdfx2mPBFAPIlAF7CmLJgt1Qr0Gk+//YU3dq/holDtU9SAuCUK3/muGK1zrYPvGqa/G7lSbnlwInUkr/qWwQgbPQZtJ/RAlASy3SeOJSlRQCkU5raL0wIIwD5FACVLGKcDZjU79rKR4PGY/wCIM9WtzI6rjiuc9y56vaFcuHmQ6kmfk/sEICgUWfg9iYLgOOKpTpPHsrSIwD9W8Snw4QyApBfAfCSxqPzdsmLR0zXOxtQEruKbu3/BYnJOAXAKbX/geOKxTrHmwEt7V0LL23af9yI5M8MQJBoM3hbowWgLP5d50lEWVoE4O2mwbWPhwlpBAABUIlDrUx3w/jleiWga9386jfUinp+YjMeAZBnF8q14Y4rjukca8q3zJdzNxw0JvF7MscMgJ9IM3wbkwVArYut80SirOgCUHCrs8OGdFABGDp2vpzd+ZJxA583AKbxmubDgHS39z9mPisHDe/QLAK1J52S+Lu+YlS3ADS5037PKdXm6Rxj+rfU5Dce2iI37TPnW399DCAAfUWZBX83WQAUPqcsHtZ5UlFWJAk4VnQrfxE2rIMKgOorNQjepwZBg6Y+6wfBpN9nSQAUu+VPvS5HfXWZZgkQP3dc8ZXm5sov9RarOgXAKYuS44rDOscWJb+z1potvwhAb9Fl0eemC4BaCKhYElWdJxdlhZCAsni9UBafjRLaYQTA6yv19Dn1FLqkE65px8uaACi+Ww68KSdN2yEvvFr3bIDYXCjX/qpRzOoQALVMseOK6V6M6ngtlmty3A83dj1sybTY614fBKBRZFn2mekCcBJn11LAF5+aYntVx4lGGb4k4GdOWexw3Oo3+pcqn4ga2kW39u0o3NVz6L/92Lau59J3H4zy8u8sCoDXd0u3vSqv+fIS3bMBPyu61dv6tS35QH38RhUAp1T7guMKrWPRlTfOldOfeMEayUUA6iPK0vd2CIClcKn2ewg4bm1UFAHw9jXpVigveSX1mmUBUAzVve3/PvUpeX7rNL0iUBJrBwyr/Q8vIMMKQNGt/JbjiqleLOp4Vcsmf2XSerl+91Frkr/qKwTAiyaLXxEAizvPsqp3XSjVdbW2r9mHMyYAlSD+zYDFUJJK/N5xsi4AXjsXbTkkr7pj0RljIETy/UmhLG5sa2t7XxgBUA8l6no4kRs9fr26XzZ6tmxfsd+qxO/1EQJg2QDcqLoIQCMqfBYXgag/A3gDp/eqpozTXA7VGwyTes2LACieW/afkN/+z23y/GHtukVgheOK3V4M+XutPeJvO/9ycOe/r5WdO49YmfxV/yAAcY2SCZaLACQIm0Odpe7TdsqionMwVQ9EmZTSA1GSSvzecfIkAF6b5288JMu3LtAtAamVd+mombKyZK+1id/rFwQgAwM6ApCBTrSuCfLsYll80XHFmzpFYGQKj0T1BsOkXvMoAIqtug30voe3SrUins6YSbqsW769umtZ5KTiJc7jIADWDbw9K4wA9GTCJ8kQGFAWf1TQ/LyHQdd0yAem7Ujl8ahxDrZe2XkVAK/96lZQdUto0ok76vE+N3KGfGz+buu/9Xv9oF4RgGTGyViPggDEipfC+yCgLsgqlKrX635U6qivLZMrnn49UwOuGnTzLgCKgZoNUMmn2FKzQgTG3LdKrn72cOZiEQHoY3Cz4c8IgA29lP06FoZW/z/HFeuiftOq39+bDaj/1mL7ewTg3ecpzFzzohw8Zp6xEpDF+Ks/fxCADIzLCEAGOjEjTVCLtRRLtbGOK35Wn8ijvh89bnnXA2jqBy9b3yMA7wqA6sONe451PSVPraAXNU507n/9uGVyZQZnoOrPGwQgAwMvApCBTsxYE5wh1b8suNVNOgfkS65Tv8Husn4aFgF4rwB4CUmtoKdW0tMZM2HKyvq3fo+3ekUAMjDwIgAZ6MQMNuHc1knnnIrNX4QZiHvb56b7V8nVz9l77zUC0FgAVELasOeYvOcH66VaWa+3/o/z8zzchYIAZGywRQAy1qEZa05/t/oPjiue1jlwN4+cIacs3GPlbAAC0LsAeMmpumyv/MIXZyUmAWpVyglTtnctY+zVIQ+vzABkYLBFADLQiRlvgnoiZKEsxjualhH2ZELNBqx93q711xGAvgVAJd/OXUflXRM7Y5eA4Xctlou3vmKlTEaVFAQgAwMvApCBTsxJE5rcqf9UdMWzXgLX8arWYq8t32fNAI4A+BMAL7lNXbJPXnq9/tmAgVed+ta//4Q1seMx0fWKAGRg4EUAMtCJOWrCwNYZH3Hc6nccV7yjQwBUGeo3Y/VtcZ0FT2NDAIIJgEp2nTv1zgbk+WmU9fKAAGRg4EUAMtCJOWxCU6l2nuOKfbokQJVz+Q1zZPtKs5/MhgAEFwAvaT06b5e8eMT00D8LqGWIx0/e1LUQkVdmnl8RgAwMvAhABjoxp034bGvlvziumKRTArzZAHVFuYmDOwIQXgBUfz6x47D80jdWBpaA0s3z5Nz1LxsZE2nFKQKQgYEXAchAJ+a8CU5ZXOC44iWdIjDkpnly1tqXjBvwEYBoAuAly+ZRMwNJQBaXlfZYhH1FADIw8CIAGehEmnDWoFL7x3TPBvRvqXVN+W7cd9wYEUAA9AiAeiRvEGFc+cwbxsRA2IStez8EIAMDLwKQgU6kCacJOKVas+OKV4IM7n1tq6Z/56wzY/oXAUAAdCfysOUhAKeHHXvfIAD29h01b0ygaXDt444ran0l9iB/92YD1JPowg6YOvZDABAAHXGkowwEoPH4Y9WnCIBV3UVlAxA4NRvwWpBE39e25Vvmy7kbDqYmAQgAAqAjeesoAwEIMBiZuikCYGrPUC8dBPqXKp9wXDG9r8Qe5O9pLgKDACAAOpK3jjIQAB0jVMplIAApdwCHT4RAsVwb4rjiaJBE39e2V9+5SC7ekuwysAgAAqAjeesoAwFIZOiK9yAIQLx8Kd0cAv1bxH9zXLGor8Qe5O9JPwgGAUAAdCRvHWUgAOaMbaFrggCERseOVhKQZzuuaHVccTxIou9r2+Fti+XibfHPBiAACICO5K2jDATAygHwvZW2RQCKQ8U/O27tR44rtjuu2Gnh/885rlhQdKvXFEfO/uB7e4F/JU2g/5Daf3dc8URfiT3I3wdd0yEfnL4j1gsEEQAEQEfy1lEGApD0qBXD8UwXgH5tSz5QcMXEIAOxBds+fV6p+qcxdCdFBiDQ3Fx5f7FUG+u44qc6Y+aL45bLuBaOQQAQAB3JW0cZCECAwcbUTU0XgFNPfgu0apfOwTzGsvZ8ZkjtN0yNizzVq6ml9inHFet19vVF13bIh2Y/r302AAFAAHQkbx1lIAAZGCVNFoD+pfa/dlzxts6B2ayyqt/JQAhlognntk46xymJuxxXvKUzRsbct7LrATQ6BlxVBgKAAOiKpajlIAAZGPpMFoBCSXxL52BsXFll8br6iSMDYZSZJhRbqn9TdMU2nbFyyXUz5GPzd2mZDUAAEICoiVvX/ghABoY9kwXAccVinQOxiWUVh7b/cQbCKFNNULMBp64N0DobcNP9q+Tq545EEgEEAAHQlcCjloMAZGDYM1sAastNTNo669RUqv55BsIok00olsT/dtzaMzr7+9KRM+XjS/aGlgAEAAGImrh17Y8AZGDYM1oASuJBnYOvgWX9pLm58uEMhFFmm6D659RPUVqvRbnj3zpl587gswEIAAKgK4FHLQcByMCwZ7IANJVq5xmYtLXdkVBwxY8zEEK5aEL/FvHpU2tPaOv/y0bPlmL5vkCzAQgAAhA1cevaHwHIwNBnsgAovE5JzMyoBBxlLQC7TqB+11Y+WixVv+e44h1dMVksC/nl76+T63cf9SUCCAACoCuBRy0HAbBr/GpYW9MFYFCp/WOOm7lrAQ6r2Y2GHcKHxhMolqc2Oa7Yp0sCVDlX3DhHdqw60KcEIAAIQNTErWt/BMD4oarvCpouAKoF6qrsglu9znGrW3UOuimUpZ5N/8BnB1d+v++eYQuTCXy2tfJfnJKYrDOGiuWa/NqDG+XGPcd6FQEEAAHQlcCjloMAmDxC+aybDQJQ35R+pckfUk91G1AWf2TT/4WWyq/Xt4P32SBQLFUHOq54SacIDLlpnpzV+VJDCUAAEICoiVvX/ghABsYw2wQgA8hpQsYInPyZSkzSKQH9W2py/ORNcuO+4+8RAQQAAdCVwKOWgwBkYCBDADLQiTTBCAJFV3zOccUhnSIw9OZ5cnbny6clAAFAAKImbl37IwBGDDvRKoEAROPH3hCoJ9A0uPZxx60KnRLgzQZs2necZwG8gADoSuBRy0EA6s98S98jAJZ2HNU2mkChJAYXXPGGThEYdvtCOWHK9kDrEIy+d8Xp2YOoA36W9r901MxAHON6vLPNTBEAo4cgf5VDAPxxYisIBCXQv1T5hOOKDp0SELQsBKDxjAEC0JhLECFBAIKOCAZujwAY2ClUKVMEiuXaEMcVR4Mmbx3bIwCNEx0C0JgLApCpoafvxiAAfTNiCwhEJaBuXXVcsUhHUg9SBgLQONEhAI25IABRz3TL9kcALOswqmsxAXm244pWxxXHgiTxKNsiAI0THQLQmAsCYPHwEqbqCEAYauwDgfAEmoZV/tBxxdIoid3vvghA40SHADTmggCEP6+t3BMBsLLbqLTlBNra2t53ajbghN9kHmY7BKBxokMAGnNBACwfWIJWHwEISoztIaCPQNGt/IXjis4wyd3PPghA40SHADTmggDoO7etKAkBsKKbqGSGCfRrW/KBYqk21nHFz/wk9SDbIACNEx0C0JgLApDhgaZR0xCARlT4DALJE+hfav9rpyS2BEnwfW3bPHKGrC3fx2JA3VYQRACiCcDCzYdk+Zb5gRZTUj95JX9WccQzEkAAzoiHP0IgUQLq0denZgPe6iu5+/17sSzkXRM75brdRxGBUyKAAIQTgC0H3pQPTNshL7i6I2jyV9sjAImOJj4OhgD4gMQmEEiYQKGl/e8dVzztN8n72e7yG+bI9pX7kYAX3pQIQHABWLr9VTni7qVhEr+3DwKQ8DjS5+EQgD4RsQEEUiHQ3Fz5sFOu3e+44m0/Cd7PNsVyTY57cKPcsPdYrkUAAfAvAOpb/6TaM2G/9XvJXzpudWgqJxIH7Z0AAtA7G/4CARMIOOXaPzplscNPgve7zRU3zpHTn3ghtxKAAPgTgJU73pCjxy2vS+Ii9PtCaer/NeF8og51BBCAOhi8hYChBJoGP/zLBVdMdFzxjt8k39d26jHDX//RFqkeMxzk6oSQigIAABhDSURBVO8sbIsA9C0AP5y+Qw4aHuq3/kaS8NrA1hkfMfT0ym+1EID89j0tt49AoVwb0VdiD/p39+b5cu6Gg7mSAASgdwHQ+a3/dCyWxF32nW05qDECkINOpomZIVAsVQeeHlTd8NOx3csYMKxdfuuxrXLz/hO5EAEEoLEAPDzneXnxtdMbfYMP/1mpNk+tdZGZkzBLDUEAstSbtCXrBOISAE8IrrpjoVywKfuzAQjAewVg9bOH5Zj7VoVP8o1l9G3HrX5D3dqa9fPS2vYhANZ2HRXPIYG4BUCJwMCrpskJU7bLLRmeDUAA3hWAx5fslZeOnKk7+e8ulMW/5PAUtavJCIBd/UVt800gCQHwZgNa71wkF205lMmfBBCAN2XnrqNdC0R5/a3pVV2kOumCcsev5PtMtaT1CIAlHUU1IXDWWWclKQAqIZzfemo24EC2rg3IuwBUl+6Tn79+lt5v/SXxYpNbO58T1SICCIBFnUVVc08gaQHwvhUOb1ssF297JTOzAXkVgM6dR7q+9avlob2+1fJaFpVCS+XXc3+C2gYAAbCtx6hvngmkJQAqSQy6pqNrHXi1MpztawHkUQDUwk9qASgtCf/URX9FV7xcLFUH5fmctLrtCIDV3Uflc0YgqACopwGeP6xd66B//bhlcuUzb1gtAXkSgPW7j8q7v79OxvCtf8pnhtR+I2enYLaaiwBkqz9pTbYJBBWA0feu6Lqtb9jtC7VKgFohTj0VztaZgLwIwIw1L8orx8zV2vdOWbzuuNUrs32m5aR1CEBOOppmZoJAGAFQSVot8KNu7VML/uicAv7iuOVWzgZkXQDUw57GT94kiy01rf3tuGLWeeWOT2biZKIRZ52FABAFELCHQFgB8L6pz994SJZvXaA1KVx0bYf80aznrJoNyLIAqGWdy7fM19rHjisOO67gcb72DBX+aooA+OPEVhAwgUBUAVAisGn/cXn/I1u1fzu86f5Vcs1zR6wQgSwKgOrXrlmeFr2zPI4r5haHif9qQvxTB80EEADNQCkOAjES0CEA3mzArLUvyiE3zdP6TVFddDhlwW7jJSBrAqBmdlpu0zuz47jVIye/9cuzYwxpik6TAAKQJn2ODYFgBHQKgBKBuH4r7poNeN7c2YCsCIB3bYfuOz2cslhZaKn8SbDoZGvrCCAA1nUZFc4xAd0C4M0GTF/9grzyS3qvFlfry/948V4jZwOyIAALNx+S6uFNOi/qdFzxZrFUG9vW1va+HJ9m+Wk6ApCfvqal9hOISwC6ZgP2nLpyvKzvynF17/ldEzvlut1HjRIBmwVALcSkbsEc2DpNd/J/wilX/sz+s4QW+CaAAPhGxYYQSJ1AnALgzQZUl+2TX/ii3nXiL7thtqyt3G+MBNgqAEu3vyqvvXuJ7sT/E/Wtv7m58v7UA5wKJEsAAUiWN0eDQBQCSQiAEgFvzXid08vebIBamc6TjbRebRMA71v/hVd36E7+mwvl2l9FiUn2tZgAAmBx51H13BFISgC8xDx1yT55qeanxqn16DtWHUhVAmwSgGVPviavu2eZ7sT/80JZjD+3ddI5uTuJaPC7BBCAd1nwDgKmE0haAE7OBuh/brxaoU6tVLdx3/FURMAWAXh03i6pFlrSOhPjim0FV/yt6bFO/RIggAAkAJlDQEATgTQEwJsNeGz+LnnJdTO0JqOhN8+TsztfTlwCTBeAVc+8IW+4d4VW1o4rur71F0fO/qCmcKQY2wkgALb3IPXPE4E0BUCJwBM7Dssx963Umpj6n5oN2JTgbIDJAqC+9V8yYrpWxgVXPOWUxN/l6VyhrT4IIAA+ILEJBAwhkLYAeLMBcSQp9+b5cu76g4nMBpgoAHHIleOKdxxXTBrYOuMjhoQw1TCJAAJgUm9QFwicmYApAqBEII5p6gEt7V3PKdiy/0SsImCaADy+ZK9UCyfp/K3fKYldRbf2/84cUfw11wQQgFx3P423jIBJAuDNBqgnAV44XO+Faq13LpKLthyKTQJMEYDOnfovsPS+9fe7tvJRy8Kb6iZNAAFImjjHg0B4AiYKgBIBdavaiK8s1foN9vzWaV1Pt9tyQP9sgAkCEMctlo4r9jhDp34mfISxZ64IIAC56m4aazkBUwVASUBci9UMb1ssF297RetsQJoC4C2ypBZG0jrlXxaVAZfP/DXLQ5zqJ0kAAUiSNseCQDQCJguA95NAHMvVqnXvJ059qksyvONEeU1LAMTyffKy0bP1Jn5XvOSUxQXRIou9c0kAAchlt9NoSwnYIAAnZwNOxPLAmlFfXS6XP/V65NmApAVgYwwPWuqaPSiLymeG1H7D0nCm2mkTQADS7gGODwH/BGwRAO/b+YJNB7U/snbQ8I4uufCOEeY1SQGYseZFeeUYvY9adlxx0CnVLvYfOWwJgQYEEIAGUPgIAoYSsE0AVHLevP9E18V8A4a1a536/uK45XLlM2+Emg1IQgA27D31eOUWfY9XPnXNwNSiW/ktQ0OUatlEAAGwqbeoa94J2CgA3jf0+RsPyfKtC7RKwKBrOuTkmc8FloC4BWBW50tyyE3ztLa14Io3HFe05v0coP0aCSAAGmFSFARiJmCzACgR2LT/+MnZgBa9swE33b9KrnnuiG8RiEsA4mqfUxZzzh9S+d2Yw4vi80YAAchbj9NemwnYLgDebEAc35A/N3KG/M8Fu31JQBwCEMcMh+NWj/Ct3+Yz1vC6IwCGdxDVg0AdgawIgBKBuH4j75oNeP7MswE6BSCuaxyKrpjf5E77vbru5y0E9BJAAPTypDQIxEkgSwLgzQbEcZV886iZ8vFFe3qdDdAlAHHc5eC44kSxVBvb1tb2vjhjibIhcBYCQBBAwB4CWRQAJQJx3Sd/24Q1ct2uoz1EIKoAqOWJH5i2Q6oFirSu5ueKVeeVqn9qT0RSU6sJIABWdx+VzxmBrAqANxsQx0p5l90wW9ZW7n+PBEQRgDhWOnRc8RO+9efsZDahuQiACb1AHSDgj0DWBUCJQBxr5at19++a2CnX7z45GxBGAOJ61kHBFWuaStU/9xcBbAUBjQQQAI0wKQoCMRPIgwB4swFxPC3v8hvnyI5VB2RQAVDXKeh+2qHjirfU+NvcXHl/zGFD8RBoTAABaMyFTyFgIoE8CYASgTXPH5E3f2u11t/Ziy012T/g6nwDr9L+W/+Gppbap0yMMeqUIwIIQI46m6ZaTyBvAuDNBjy+ZK+8dORMrSKg+eI9v3X7eaEsxjc3V37J+mCkAfYTQADs70NakB8CeRUAJQJP7Dgsx9y30m+iNXG77f3L1f+Vn2ilpcYTQACM7yIqCIHTBPIsAN5swKPzdslLRkw3McH3Vqe3Hbf6neLI2R883ZG8gYAJBBAAE3qBOkDAHwEE4M2u2/lWPfOGvOHeFb0lXJM+39m/RXzaX++yFQQSJoAAJAycw0EgAgEE4KQA1M8GXHRth0kJ36vLO44rJjUNfviXI3Q3u0IgXgIIQLx8KR0COgkgAO8VACUCy558TV53zzIv8ZrwurtQFv+is98pCwKxEEAAYsFKoRCIhQAC0FMAlATEtUhPwDsFur71X1Du+JVYOp9CIaCbAAKgmyjlQSA+AghAYwHwfhKIaZnevmcVSuLFJrd2fnw9T8kQiIEAAhADVIqEQEwEEIAzC0D9bEAMD+ppLAJlUSm0VH49pi6nWAjERwABiI8tJUNANwEEoG8B8GYDFm4+JK+6Y2HjpO2KyJ8XXfFysVQdpLuPKQ8CiRFAABJDzYEgEJkAAuBfAJQIbN5/Qk6Ysl2eP6w9csJ/z/UAZVEZ2DrjNyN3KAVAIE0CCECa9Dk2BIIRQACCCYA3GzB/4yHZctuC6BJQFq87bvXKYL3G1hAwlAACYGjHUC0INCCAAIQTgPrZgAEtoWcDZp1X7vhkg27hIwjYSQABsLPfqHU+CSAA4QXAmw2YtfYlecHVQRcP4lt/Ps+4jLcaAch4B9O8TBFAAKILgBKBS0cFe7JgpoKIxkDAI4AAeCR4hYD5BBAABMD8KKWG1hAILABu7UmnLCr8DwNiIJUYWPmeq9H7uJ1t9L0ruh6e401/83pSIJgBsCZFUdE4CQQXgOj3zwYZwNgW3sRA+BhAABrPGCAAcWYVyraGAAIQfnAlMcHO9BhAABAAa5IRFU2eAAJAEjM9iVG/8DGKACAAyWcVjmgNAQQg/OBKYoKd6TGAACAA1iQjKpo8AQSAJGZ6EqN+4WMUAUAAks8qHNEaAo4rbmGADT/Awg52JscAAoAAWJOMqGjyBIrl2hUmD2DUjQRLDISPAQQAAUg+q3BEawgU3cpvOa74KYNs+EEWdrAzNQYQAATAmmRERdMh4JRqXzd1AKNeJFdiIHwMIAAIQDpZhaNaQ+Dc1knnOK6YxUAbfqCFHexMjAEEAAGwJhFR0fQINDdX3u+Uq2McVxw0cSCjTiRYYiB4DCAACEB6WYUjW0dAiUD/Uvtfdz10pFRrdvgfBsSAMTFQLNXGBhEhBAABsC4JUWEIQAACEOhJoGlo+7kIQOOkHuRBRzwLoGds8QkEIAABCBhMAAGInvyVKCAABgc5VYMABCAAgZ4EEAAEoGdU8AkEIAABCGSeAAKAAGQ+yGkgBCAAAQj0JIAAIAA9o4JPIAABCEAg8wQQAAQg80FOAyEAAQhAoCcBBAAB6BkVfAIBCEAAApkngAAgAJkPchoIAQhAAAI9CSAACEDPqOATCEAAAhDIPAEEAAHIfJDTQAhAAAIQ6EkAAUAAekYFn0AAAhCAQOYJIAAIQOaDnAZCAAIQgEBPAggAAtAzKvgEAhCAAAQyTwABQAAyH+Q0EAIQgAAEehJAABCAnlHBJxCAAAQgkHkCCAACkPkgp4EQgAAEINCTAAKAAPSMCj6BAAQgAIHME0AAEIDMBzkNhAAEIACBngSCCsA1X14itxw4Ibe+oCdxZqWcS0fNlI4rfP/fsyf4BAIQgAAEIJAggaACoJLc8LsWy8VbX0EC6iQIAUgwaDkUBCAAAQhEJxBGAJQEDGydJidM2c5swCkJQACixyIlQAACEIBAggQKrvjbIFPX3bcd9dXlcsXTr+d+NgABSDBoORQEIAABCEQn8NnBld/vntSD/nvQNR3ygWk7ci0BCED0WKQECEAAAhBIkEBzc+X9RVe8HDTpN9r+hntXyFXPvJFLEUAAEgxaDgUBCEAAAnoIOK74WqOEHuazS0ZMl4/M3Zk7CUAA9MQipUAAAhCAQIIEBrbO+Ijjiu1hEn5v+4y9/wm55rkjuREBBCDBgOVQEIAABCCgj8BnhtR+w3HF4t4SepjPm0fOkFMW7smFBCAA+mKRkiAAAQhAIHEC8mzHFa2OK46HSfi97XPT/avkmuezPRuAACQerBwQAhCAAAR0EygObf9jxxUrekvoYT5vHjVTPr4ou7MBCIDuKKQ8CEAAAhBIhUC/tiUfKJZqYx1X/DRMwu9tn9smrJHrdh3N3M8CCEAqYcpBIQABCEAgLgJNLbVPOa7Y0FtCD/P5ZaNny/YV+zMlAQhAXBFIuRCAAAQgkBqBc1snnXNqNuCtMAm/0T7FspB3TeyU63ZnYzYAAUgtPDkwBCAAAQjETaDQ0v73BVc81Sihh/3s8hvnyI5VB6yfDUAA4o4+yocABCAAgVQJ9CtN/lChLMY7rvhF2KTffb9iuSbv+cF6uXHfcWtFAAFINSw5OAQgAAEIJEXAKdf+seiKZ7sn8yj/Hjp2vpzd+ZKVEoAAJBV5HAcCEIAABFIn0Nxc+fCp2YC3oyT++n37t9Tk+Mmb5CbLZgMQgNTDkQpAAAIQgEDSBApl8VnHFfvqE3nU96Wb58m561+2ZjYAAUg66jgeBCAAAQgYQaB4xaO/6rhiUtTEX7//gJb2k7MB+82/NgABMCIMqQQEIAABCKRFoFhuLzquOFCfyKO+v+r2hXLh5kNGzwYgAGlFHMeFAAQgAAFjCAwqtX/MKYuHoyb++v0HXjVNTpiyXW7Zf8JIEUAAjAk/KgIBCEAAAmkTcEq1ZscVr9Qn8qjvh9+1WC7e+opxEoAApB1tHB8CEIAABIwi0DS49vFCWbRHTfz1+5/femo24IA5swEIgFFhR2UgAAEIQMAUAqdmA16rT+RR34+8Z5lc9uRrRswGIACmRBr1gAAEIAAB4wgUWsXvFN3qjKiJv37/Qdd0yAem7UhdAhAA48KNCkEAAhCAgFkE5NmOK1odVxyrT+RR318/bplc+fTrqYkAAmBWlFEbCEAAAhAwlIBTav8Dx60tiZr46/dPczYAATA00KgWBCAAAQiYSOD0bMDx+kQe9f2Y+1bJ1c8eTnQ2AAEwMb6oEwQgAAEIGE2gOLT9jx1XrIia+Ov3/9zIGfKx+bsTkwAEwOgQo3IQgAAEIGAqgX5tSz5QLNXGOq74aX0ij/r+pvtXydXPHYldBBAAUyOLekEAAhCAgBUEmlpqn3JcsSFq4q/fv3nUTPnjRXtilQAEwIrwopIQgAAEIGAygXNbJ51zajbgrfpEHvW9mg1Y+/zRWEQAATA5oqgbBCAAAQhYRaDQ0v73jiuejpr46/e/bPRsWVu+T7sEIABWhRaVhQAEIAAB0wn0K03+UKEsxjuu+EV9Io/yvlgW8q6JnXLdbn2zAQiA6ZFE/SAAAQhAwEoCTrn2j0VXPBsl8Xff9/Ib5shpKw9omQ1AAKwMKyoNAQhAAAI2EGhurnz41GzA292Tedh/e7MBG/YciyQCCIANEUQdIQABCEDAagJNpdp5jiv2hU36jfYbOna+nLX2pdASgABYHVJUHgIQgAAEbCFQvOLRX3VcMalRMg/7Wf+Wmhw/eZPcuO94YBFAAGyJHOoJAQhAAAKZIFAstxcdVxwIm/Qb7Ve6eZ6cs+7lQBKAAGQinGgEBCAAAQjYRGBQqf1jTlk83CiZh/1sQEt712zApv3+ZgMQAJsihrpCAAIQgECmCDilWrPjilfCJv1G+111+0K5cPOhPmcDEIBMhRKNgQAEIAAB2wh8ZljHbxfKor1RMg/72cCrpskJU7bLLftP9CoCCIBtkUJ9IQABCEAgkwROzQa8FjbpN9rv6jsXycVbXmkoAQhAJsOIRkEAAhCAgI0ECq3id4pudUajZB72s/NbT80GHHjvbAACYGOEUGcIQAACEMgwAXm244pWxxXHwib9RvsNb1ssl2x79fRsAAKQ4RCiaRCAAAQgYC8Bp9T+B45bW9IomYf9bNA1HfKBaTvklgNvSgTA3tig5hCAAAQgkHECbW1t7yuUxY2OK34SNuk32m/0uOXyoms7ZKO/9fZZxlHTPAhAAAIQgIB5BIpD2//YccWK3pJzEp+bR4UaQQACEIAABHJAoF/bkg8US7Wxjit+mkTC736MHCCmiRCAAAQgAAFzCTS11D7luGJD9wQd97/NJULNIAABCEAAAjkhcG7rpHNOzQa8FXfi98rPCVqaCQEIQAACEDCfQKGl/e8dVzztJek4X82nQQ0hAAEIQAACOSLQrzT5Q4WyGO+44hcIQI46nqZCAAIQgAAEFIEmd+o/FV3xbFwSAGUIQAACEIAABAwlMLB1xkdOzQa8rVsEDG0y1YIABCAAAQhAwCPQVKqd57hin04J8MrmFQIQgAAEIAABgwkUr3j0Vx1XTNIlAQY3lapBAAIQgAAEINCdQLHcXnRc8UJUEeheLv+GAAQgAAEIQMBwAoNK7R9zyuLh0BJQFq8b3kSqBwEIQAACEIBAbwScUu0LjiteDSECnb2VyecQgAAEIAABCFhA4DPDOn67UBbtwSSgNsqCplFFCEAAAhCAAAT6IlBwa67jisM+RGB70+CHf7mv8vg7BCAAAQhAAAKWEPjs4MrvO66Y26sElMSWJnfa71nSHKoJAQhAAAIQgEAQAkVXfM4piZmOKw6d+n9poVwboR46FKQctoUABCAAAQhAAAIQgAAEIAABCEAAAhCAAAQgAAEIQAACEIAABCAAAQhAAAIQgAAEIAABCEAAAhCAAAQgAAEIQAACEIAABCAAAQhAAAIQgAAEIAABCEAAAhCAAAQgAAEIQAACEIAABCAAAQhAAAIQgAAEIAABCEAAAhCAAAQgAAEIQAACEIAABCAAAQhAAAIQgAAEIAABCEAAAhCAAAQgAAEIQAACEIAABCAAAQhAAAIQgAAEIAABCEAAAhCAAAQgAAEIQAACEIAABCAAAQhAAAIQgAAEIAABCEAAAhCAAAQgAAEIQAACEIAABCAAAQhAAAIQgAAEIAABCEAAAhCAAAQgAAEIQAACEIAABCAAAQhAAAKpEPj/AQtuarXGf6qKAAAAAElFTkSuQmCC;" vertex="1" parent="1">
          <mxGeometry x="630" y="303" width="70" height="70" as="geometry" />
        </mxCell>
      </root>
    </mxGraphModel>
  </diagram>
</mxfile>
